<svg width="58" height="58" viewBox="0 0 58 58" fill="none" xmlns="http://www.w3.org/2000/svg">
<path d="M53 36.4961C53 46.1711 45.175 53.9961 35.5 53.9961L38.125 49.6211" stroke="#23A06C" stroke-width="3" stroke-linecap="round" stroke-linejoin="round"/>
<path d="M3 21.5C3 11.825 10.825 4 20.5 4L17.875 8.375" stroke="#23A06C" stroke-width="3" stroke-linecap="round" stroke-linejoin="round"/>
<rect x="12.9727" y="22.4102" width="23.5294" height="22.5882" rx="5" stroke="#23A06C" stroke-width="3"/>
<path d="M39.0296 13H26.4414C23.68 13 21.4414 15.2386 21.4414 18V22.3719L31.5182 22.4086C34.2725 22.4186 36.5 24.6542 36.5 27.4085V35.5882H39.0296C41.7911 35.5882 44.0296 33.3497 44.0296 30.5882V18C44.0296 15.2386 41.7911 13 39.0296 13Z" fill="#23A06C" fill-opacity="0.3" stroke="#23A06C" stroke-width="3"/>
</svg>
