<svg width="200" height="129" viewBox="0 0 200 129" fill="none" xmlns="http://www.w3.org/2000/svg">
<path d="M23 30C23 27.2386 25.2386 25 28 25H158C160.761 25 163 27.2386 163 30V116H23V30Z" fill="#DBE8FC" stroke="#1B1C1E"/>
<g style="mix-blend-mode:overlay">
<path fill-rule="evenodd" clip-rule="evenodd" d="M28 25C25.2386 25 23 27.2386 23 30V33C23 30.2386 25.2386 28 28 28H158C160.761 28 163 30.2386 163 33V30C163 27.2386 160.761 25 158 25H28Z" fill="#DBE8FC"/>
</g>
<path d="M30 34C30 32.8954 30.8954 32 32 32H154C155.105 32 156 32.8954 156 34V116H30V34Z" fill="white" stroke="#1B1C1E"/>
<rect x="109" y="47" width="29" height="29" rx="3" fill="#F9FBFF"/>
<rect x="109" y="81" width="29" height="29" rx="3" fill="#F9FBFF"/>
<g style="mix-blend-mode:multiply">
<rect x="116" y="54" width="15" height="15" rx="3" fill="#F2F7FF"/>
</g>
<g style="mix-blend-mode:multiply">
<rect x="116" y="88" width="15" height="15" rx="3" fill="#F2F7FF"/>
</g>
<g style="mix-blend-mode:multiply">
<path d="M31 33.5C31 32.6716 31.6716 32 32.5 32H92V116H31V33.5Z" fill="#F9FBFF"/>
</g>
<path d="M11 123C11 125.761 13.2386 128 16 128H170C172.761 128 175 125.761 175 123V116H11V123Z" fill="#DBE8FC" stroke="#1B1C1E"/>
<g style="mix-blend-mode:multiply">
<path fill-rule="evenodd" clip-rule="evenodd" d="M16 125C13.2386 125 11 122.761 11 120V123C11 125.761 13.2386 128 16 128H170C172.761 128 175 125.761 175 123V120C175 122.761 172.761 125 170 125H16Z" fill="#DBE8FC"/>
</g>
<rect x="137.352" y="6.69531" width="54.5838" height="40.4324" rx="3" fill="white" stroke="#1B1C1E"/>
<path d="M147.462 0.632812H136.289C133.528 0.632812 131.289 2.87139 131.289 5.63281V16.8058M147.462 53.195H136.289C133.528 53.195 131.289 50.9564 131.289 48.195V37.022M181.83 0.632812H193.003C195.764 0.632812 198.003 2.87139 198.003 5.63281V16.8058M181.83 53.195H193.003C195.764 53.195 198.003 50.9564 198.003 48.195V37.022" stroke="#1B1C1E" stroke-linecap="round" stroke-linejoin="round"/>
<path fill-rule="evenodd" clip-rule="evenodd" d="M148.5 37.5007C150.587 37.5007 152.278 35.8093 152.278 33.723C152.278 31.6366 150.587 29.9453 148.5 29.9453C146.414 29.9453 144.723 31.6366 144.723 33.723C144.723 35.8093 146.414 37.5007 148.5 37.5007ZM156.356 43.9426C156.784 44.9738 157.003 46.0791 157.003 47.1953H140.004C140.004 46.0791 140.224 44.9738 140.651 43.9426C141.078 42.9114 141.704 41.9744 142.493 41.1851C143.283 40.3958 144.22 39.7697 145.251 39.3426C146.282 38.9154 147.387 38.6956 148.504 38.6956C149.62 38.6956 150.725 38.9154 151.756 39.3426C152.788 39.7697 153.725 40.3958 154.514 41.1851C155.303 41.9744 155.929 42.9114 156.356 43.9426Z" fill="#C2DAFF"/>
<path d="M157.003 47.1953V47.6953C157.28 47.6953 157.503 47.4715 157.503 47.1953H157.003ZM156.356 43.9426L156.818 43.7513V43.7513L156.356 43.9426ZM140.004 47.1953H139.504C139.504 47.4715 139.728 47.6953 140.004 47.6953V47.1953ZM140.651 43.9426L140.189 43.7513H140.189L140.651 43.9426ZM142.493 41.1851L142.14 40.8315L142.493 41.1851ZM145.251 39.3426L145.442 39.8045L145.251 39.3426ZM151.756 39.3426L151.565 39.8045H151.565L151.756 39.3426ZM154.514 41.1851L154.867 40.8315L154.867 40.8315L154.514 41.1851ZM151.778 33.723C151.778 35.5332 150.311 37.0007 148.5 37.0007V38.0007C150.863 38.0007 152.778 36.0855 152.778 33.723H151.778ZM148.5 30.4453C150.311 30.4453 151.778 31.9128 151.778 33.723H152.778C152.778 31.3605 150.863 29.4453 148.5 29.4453V30.4453ZM145.223 33.723C145.223 31.9128 146.69 30.4453 148.5 30.4453V29.4453C146.138 29.4453 144.223 31.3605 144.223 33.723H145.223ZM148.5 37.0007C146.69 37.0007 145.223 35.5332 145.223 33.723H144.223C144.223 36.0855 146.138 38.0007 148.5 38.0007V37.0007ZM157.503 47.1953C157.503 46.0134 157.271 44.8432 156.818 43.7513L155.894 44.1339C156.297 45.1045 156.503 46.1448 156.503 47.1953H157.503ZM140.004 47.6953H157.003V46.6953H140.004V47.6953ZM140.189 43.7513C139.737 44.8432 139.504 46.0134 139.504 47.1953H140.504C140.504 46.1448 140.711 45.1045 141.113 44.1339L140.189 43.7513ZM142.14 40.8315C141.304 41.6672 140.641 42.6594 140.189 43.7513L141.113 44.1339C141.515 43.1634 142.104 42.2815 142.847 41.5386L142.14 40.8315ZM145.06 38.8806C143.968 39.3329 142.976 39.9958 142.14 40.8315L142.847 41.5386C143.59 40.7958 144.472 40.2065 145.442 39.8045L145.06 38.8806ZM148.504 38.1956C147.322 38.1956 146.152 38.4283 145.06 38.8806L145.442 39.8045C146.413 39.4025 147.453 39.1956 148.504 39.1956V38.1956ZM151.948 38.8806C150.856 38.4283 149.686 38.1956 148.504 38.1956V39.1956C149.554 39.1956 150.594 39.4025 151.565 39.8045L151.948 38.8806ZM154.867 40.8315C154.032 39.9958 153.04 39.3329 151.948 38.8806L151.565 39.8045C152.536 40.2065 153.418 40.7958 154.16 41.5386L154.867 40.8315ZM156.818 43.7513C156.366 42.6594 155.703 41.6672 154.867 40.8315L154.16 41.5386C154.903 42.2815 155.492 43.1634 155.894 44.1339L156.818 43.7513Z" fill="#1B1C1E"/>
<g style="mix-blend-mode:overlay">
<path fill-rule="evenodd" clip-rule="evenodd" d="M149.024 37.4647C148.853 37.4884 148.678 37.5007 148.5 37.5007C146.414 37.5007 144.723 35.8093 144.723 33.723C144.723 31.6366 146.414 29.9453 148.5 29.9453C148.678 29.9453 148.853 29.9576 149.024 29.9813C147.185 30.2361 145.77 31.8142 145.77 33.723C145.77 35.6317 147.185 37.2098 149.024 37.4647ZM149.027 38.7117C148.09 38.7695 147.168 38.9823 146.298 39.3426C145.267 39.7697 144.33 40.3958 143.54 41.1851C142.751 41.9744 142.125 42.9114 141.698 43.9426C141.271 44.9738 141.051 46.0791 141.051 47.1953H140.004C140.004 46.0791 140.224 44.9738 140.651 43.9426C141.078 42.9114 141.704 41.9744 142.493 41.1851C143.283 40.3958 144.22 39.7697 145.251 39.3426C146.282 38.9154 147.387 38.6956 148.504 38.6956C148.678 38.6956 148.853 38.7009 149.027 38.7117Z" fill="#C2DAFF"/>
</g>
<g style="mix-blend-mode:multiply">
<path fill-rule="evenodd" clip-rule="evenodd" d="M147.602 37.3927C147.89 37.4632 148.192 37.5007 148.502 37.5007C150.588 37.5007 152.28 35.8093 152.28 33.723C152.28 31.6366 150.588 29.9453 148.502 29.9453C148.192 29.9453 147.89 29.9827 147.602 30.0533C149.253 30.4571 150.479 31.9469 150.479 33.723C150.479 35.499 149.253 36.9888 147.602 37.3927ZM155.204 47.1953C155.204 46.0791 154.984 44.9738 154.557 43.9426C154.13 42.9114 153.504 41.9744 152.715 41.1851C151.925 40.3958 150.988 39.7697 149.957 39.3426C149.204 39.0307 148.412 38.8294 147.605 38.7434C147.903 38.7116 148.204 38.6956 148.505 38.6956C149.621 38.6956 150.727 38.9154 151.758 39.3426C152.789 39.7697 153.726 40.3958 154.516 41.1851C155.305 41.9744 155.931 42.9114 156.358 43.9426C156.785 44.9738 157.005 46.0791 157.005 47.1953H155.204Z" fill="#C2DAFF"/>
</g>
<path fill-rule="evenodd" clip-rule="evenodd" d="M180.5 37.5007C182.587 37.5007 184.278 35.8093 184.278 33.723C184.278 31.6366 182.587 29.9453 180.5 29.9453C178.414 29.9453 176.723 31.6366 176.723 33.723C176.723 35.8093 178.414 37.5007 180.5 37.5007ZM188.356 43.9426C188.784 44.9738 189.003 46.0791 189.003 47.1953H172.004C172.004 46.0791 172.224 44.9738 172.651 43.9426C173.078 42.9114 173.704 41.9744 174.493 41.1851C175.283 40.3958 176.22 39.7697 177.251 39.3426C178.282 38.9154 179.387 38.6956 180.504 38.6956C181.62 38.6956 182.725 38.9154 183.756 39.3426C184.788 39.7697 185.725 40.3958 186.514 41.1851C187.303 41.9744 187.929 42.9114 188.356 43.9426Z" fill="#C2DAFF"/>
<path d="M189.003 47.1953V47.6953C189.28 47.6953 189.503 47.4715 189.503 47.1953H189.003ZM188.356 43.9426L188.818 43.7513V43.7513L188.356 43.9426ZM172.004 47.1953H171.504C171.504 47.4715 171.728 47.6953 172.004 47.6953V47.1953ZM172.651 43.9426L172.189 43.7513H172.189L172.651 43.9426ZM174.493 41.1851L174.14 40.8315L174.493 41.1851ZM177.251 39.3426L177.442 39.8045L177.251 39.3426ZM183.756 39.3426L183.565 39.8045H183.565L183.756 39.3426ZM186.514 41.1851L186.867 40.8315L186.867 40.8315L186.514 41.1851ZM183.778 33.723C183.778 35.5332 182.311 37.0007 180.5 37.0007V38.0007C182.863 38.0007 184.778 36.0855 184.778 33.723H183.778ZM180.5 30.4453C182.311 30.4453 183.778 31.9128 183.778 33.723H184.778C184.778 31.3605 182.863 29.4453 180.5 29.4453V30.4453ZM177.223 33.723C177.223 31.9128 178.69 30.4453 180.5 30.4453V29.4453C178.138 29.4453 176.223 31.3605 176.223 33.723H177.223ZM180.5 37.0007C178.69 37.0007 177.223 35.5332 177.223 33.723H176.223C176.223 36.0855 178.138 38.0007 180.5 38.0007V37.0007ZM189.503 47.1953C189.503 46.0134 189.271 44.8432 188.818 43.7513L187.894 44.1339C188.297 45.1045 188.503 46.1448 188.503 47.1953H189.503ZM172.004 47.6953H189.003V46.6953H172.004V47.6953ZM172.189 43.7513C171.737 44.8432 171.504 46.0134 171.504 47.1953H172.504C172.504 46.1448 172.711 45.1045 173.113 44.1339L172.189 43.7513ZM174.14 40.8315C173.304 41.6672 172.641 42.6594 172.189 43.7513L173.113 44.1339C173.515 43.1634 174.104 42.2815 174.847 41.5386L174.14 40.8315ZM177.06 38.8806C175.968 39.3329 174.976 39.9958 174.14 40.8315L174.847 41.5386C175.59 40.7958 176.472 40.2065 177.442 39.8045L177.06 38.8806ZM180.504 38.1956C179.322 38.1956 178.152 38.4283 177.06 38.8806L177.442 39.8045C178.413 39.4025 179.453 39.1956 180.504 39.1956V38.1956ZM183.948 38.8806C182.856 38.4283 181.686 38.1956 180.504 38.1956V39.1956C181.554 39.1956 182.594 39.4025 183.565 39.8045L183.948 38.8806ZM186.867 40.8315C186.032 39.9958 185.04 39.3329 183.948 38.8806L183.565 39.8045C184.536 40.2065 185.418 40.7958 186.16 41.5386L186.867 40.8315ZM188.818 43.7513C188.366 42.6594 187.703 41.6672 186.867 40.8315L186.16 41.5386C186.903 42.2815 187.492 43.1634 187.894 44.1339L188.818 43.7513Z" fill="#1B1C1E"/>
<g style="mix-blend-mode:overlay">
<path fill-rule="evenodd" clip-rule="evenodd" d="M181.024 37.4647C180.853 37.4884 180.678 37.5007 180.5 37.5007C178.414 37.5007 176.723 35.8093 176.723 33.723C176.723 31.6366 178.414 29.9453 180.5 29.9453C180.678 29.9453 180.853 29.9576 181.024 29.9813C179.185 30.2361 177.77 31.8142 177.77 33.723C177.77 35.6317 179.185 37.2098 181.024 37.4647ZM181.027 38.7117C180.09 38.7695 179.168 38.9823 178.298 39.3426C177.267 39.7697 176.33 40.3958 175.54 41.1851C174.751 41.9744 174.125 42.9114 173.698 43.9426C173.271 44.9738 173.051 46.0791 173.051 47.1953H172.004C172.004 46.0791 172.224 44.9738 172.651 43.9426C173.078 42.9114 173.704 41.9744 174.493 41.1851C175.283 40.3958 176.22 39.7697 177.251 39.3426C178.282 38.9154 179.387 38.6956 180.504 38.6956C180.678 38.6956 180.853 38.7009 181.027 38.7117Z" fill="#C2DAFF"/>
</g>
<g style="mix-blend-mode:multiply">
<path fill-rule="evenodd" clip-rule="evenodd" d="M179.602 37.3927C179.89 37.4632 180.192 37.5007 180.502 37.5007C182.588 37.5007 184.28 35.8093 184.28 33.723C184.28 31.6366 182.588 29.9453 180.502 29.9453C180.192 29.9453 179.89 29.9827 179.602 30.0533C181.253 30.4571 182.479 31.9469 182.479 33.723C182.479 35.499 181.253 36.9888 179.602 37.3927ZM187.204 47.1953C187.204 46.0791 186.984 44.9738 186.557 43.9426C186.13 42.9114 185.504 41.9744 184.715 41.1851C183.925 40.3958 182.988 39.7697 181.957 39.3426C181.204 39.0307 180.412 38.8294 179.605 38.7434C179.903 38.7116 180.204 38.6956 180.505 38.6956C181.621 38.6956 182.727 38.9154 183.758 39.3426C184.789 39.7697 185.726 40.3958 186.516 41.1851C187.305 41.9744 187.931 42.9114 188.358 43.9426C188.785 44.9738 189.005 46.0791 189.005 47.1953H187.204Z" fill="#C2DAFF"/>
</g>
<path fill-rule="evenodd" clip-rule="evenodd" d="M164.465 33.5863C167.395 33.5863 169.77 31.2112 169.77 28.2814C169.77 25.3516 167.395 22.9766 164.465 22.9766C161.535 22.9766 159.16 25.3516 159.16 28.2814C159.16 31.2112 161.535 33.5863 164.465 33.5863ZM175.495 42.6354C176.094 44.0836 176.403 45.6357 176.403 47.2031L152.531 47.2031C152.531 45.6357 152.84 44.0836 153.44 42.6354C154.04 41.1873 154.919 39.8715 156.027 38.7631C157.136 37.6548 158.451 36.7756 159.9 36.1758C161.348 35.5759 162.9 35.2672 164.467 35.2672C166.035 35.2672 167.587 35.5759 169.035 36.1758C170.483 36.7756 171.799 37.6548 172.907 38.7631C174.016 39.8715 174.895 41.1873 175.495 42.6354Z" fill="#C2DAFF"/>
<path d="M176.403 47.2031V47.7031C176.679 47.7031 176.903 47.4793 176.903 47.2031H176.403ZM175.495 42.6354L175.956 42.4441H175.956L175.495 42.6354ZM152.531 47.2031H152.031C152.031 47.3357 152.084 47.4629 152.178 47.5567C152.271 47.6504 152.399 47.7031 152.531 47.7031L152.531 47.2031ZM153.44 42.6354L153.902 42.8268H153.902L153.44 42.6354ZM159.9 36.1758L159.708 35.7138H159.708L159.9 36.1758ZM164.467 35.2672V35.7672V35.2672ZM169.035 36.1758L169.226 35.7138L169.035 36.1758ZM172.907 38.7631L173.261 38.4096V38.4096L172.907 38.7631ZM169.27 28.2814C169.27 30.9351 167.119 33.0863 164.465 33.0863V34.0863C167.671 34.0863 170.27 31.4874 170.27 28.2814H169.27ZM164.465 23.4766C167.119 23.4766 169.27 25.6278 169.27 28.2814H170.27C170.27 25.0755 167.671 22.4766 164.465 22.4766V23.4766ZM159.66 28.2814C159.66 25.6278 161.811 23.4766 164.465 23.4766V22.4766C161.259 22.4766 158.66 25.0755 158.66 28.2814H159.66ZM164.465 33.0863C161.811 33.0863 159.66 30.9351 159.66 28.2814H158.66C158.66 31.4874 161.259 34.0863 164.465 34.0863V33.0863ZM176.903 47.2031C176.903 45.57 176.581 43.9529 175.956 42.4441L175.033 42.8268C175.607 44.2143 175.903 45.7013 175.903 47.2031H176.903ZM152.531 47.7031L176.403 47.7031V46.7031L152.531 46.7031L152.531 47.7031ZM152.978 42.4441C152.353 43.9529 152.031 45.57 152.031 47.2031H153.031C153.031 45.7013 153.327 44.2143 153.902 42.8268L152.978 42.4441ZM155.674 38.4096C154.519 39.5644 153.603 40.9353 152.978 42.4441L153.902 42.8268C154.476 41.4393 155.319 40.1786 156.381 39.1167L155.674 38.4096ZM159.708 35.7138C158.199 36.3388 156.828 37.2548 155.674 38.4096L156.381 39.1167C157.443 38.0548 158.703 37.2124 160.091 36.6377L159.708 35.7138ZM164.467 34.7672C162.834 34.7672 161.217 35.0889 159.708 35.7138L160.091 36.6377C161.478 36.063 162.965 35.7672 164.467 35.7672V34.7672ZM169.226 35.7138C167.717 35.0889 166.1 34.7672 164.467 34.7672V35.7672C165.969 35.7672 167.456 36.063 168.844 36.6377L169.226 35.7138ZM173.261 38.4096C172.106 37.2548 170.735 36.3388 169.226 35.7138L168.844 36.6377C170.231 37.2124 171.492 38.0548 172.554 39.1167L173.261 38.4096ZM175.956 42.4441C175.332 40.9353 174.416 39.5644 173.261 38.4096L172.554 39.1167C173.616 40.1786 174.458 41.4393 175.033 42.8268L175.956 42.4441Z" fill="#1B1C1E"/>
<g style="mix-blend-mode:overlay">
<path fill-rule="evenodd" clip-rule="evenodd" d="M165.199 33.5359C164.959 33.5691 164.714 33.5863 164.465 33.5863C161.535 33.5863 159.16 31.2112 159.16 28.2814C159.16 25.3516 161.535 22.9766 164.465 22.9766C164.714 22.9766 164.959 22.9937 165.199 23.027C162.617 23.3846 160.629 25.6008 160.629 28.2814C160.629 30.962 162.617 33.1783 165.199 33.5359ZM165.202 35.2898C163.885 35.3709 162.59 35.6698 161.368 36.1758C159.92 36.7756 158.604 37.6548 157.496 38.7631C156.388 39.8715 155.508 41.1873 154.909 42.6354C154.309 44.0836 154 45.6357 154 47.2031H152.531C152.531 45.6357 152.84 44.0836 153.44 42.6354C154.04 41.1873 154.919 39.8715 156.027 38.7631C157.136 37.6548 158.451 36.7756 159.9 36.1758C161.348 35.5759 162.9 35.2672 164.467 35.2672C164.712 35.2672 164.957 35.2747 165.202 35.2898Z" fill="#C2DAFF"/>
</g>
<g style="mix-blend-mode:multiply">
<path fill-rule="evenodd" clip-rule="evenodd" d="M163.199 33.4344C163.605 33.5336 164.029 33.5863 164.465 33.5863C167.395 33.5863 169.77 31.2112 169.77 28.2814C169.77 25.3516 167.395 22.9766 164.465 22.9766C164.029 22.9766 163.605 23.0292 163.199 23.1285C165.518 23.696 167.238 25.7878 167.238 28.2814C167.238 30.775 165.518 32.8668 163.199 33.4344ZM173.872 47.2031C173.872 45.6357 173.563 44.0836 172.963 42.6354C172.363 41.1873 171.484 39.8715 170.376 38.7631C169.267 37.6548 167.952 36.7756 166.503 36.1758C165.447 35.738 164.334 35.4553 163.201 35.3345C163.621 35.2897 164.043 35.2672 164.467 35.2672C166.034 35.2672 167.587 35.5759 169.035 36.1758C170.483 36.7756 171.799 37.6548 172.907 38.7631C174.015 39.8715 174.895 41.1873 175.494 42.6354C176.094 44.0836 176.403 45.6357 176.403 47.2031H173.872Z" fill="#C2DAFF"/>
</g>
<path d="M63.5 72.5L61 75L58.5 72.5L56.5 76L51 63L65 68L61 70L63.5 72.5Z" fill="#C2DAFF" stroke="#1B1C1E" stroke-linecap="round" stroke-linejoin="round"/>
<g style="mix-blend-mode:multiply">
<path fill-rule="evenodd" clip-rule="evenodd" d="M63 69L65 68L63.25 67.375L62 68L63 69ZM63 72L62 73L59.5 70.5L57.5 74L53.1748 63.7767L51 63L56.5 76L58.5 72.5L61 75L63.5 72.5L63 72Z" fill="#C2DAFF"/>
</g>
<path d="M37 39H88.5M37 45H72M88.5 45H75M37 51H88.5M37 57H63" stroke="#1B1C1E" stroke-linecap="round" stroke-linejoin="round"/>
</svg>
