<svg width="48" height="48" viewBox="0 0 48 48" fill="none" xmlns="http://www.w3.org/2000/svg">
<circle cx="25.2257" cy="9.42492" r="1.65929" fill="#FF9A02"/>
<circle cx="30.5343" cy="9.42492" r="1.65929" fill="#FF9A02"/>
<circle cx="35.8468" cy="9.42492" r="1.65929" fill="#FF9A02"/>
<path d="M1 10V13.5H43.5V10C43.5 6.13401 40.366 3 36.5 3H8C4.13401 3 1 6.13401 1 10Z" fill="#FF9A02" fill-opacity="0.2"/>
<path d="M39.8572 36.6014C39.8572 37.9547 38.7601 39.0518 37.4068 39.0518C36.0536 39.0518 34.9565 37.9547 34.9565 36.6014C34.9565 35.8844 35.2645 35.2392 35.7555 34.7911C36.191 34.3936 36.7706 34.1511 37.4068 34.1511C37.8525 34.1511 38.2704 34.2701 38.6304 34.478C39.3637 34.9014 39.8572 35.6938 39.8572 36.6014Z" fill="#FF9A02" fill-opacity="0.2"/>
<path d="M46.9997 25.9791C46.9997 27.3324 45.9027 28.4294 44.5494 28.4294C44.0651 28.4294 43.6137 28.289 43.2336 28.0466C42.5514 27.6115 42.099 26.8482 42.099 25.9791C42.099 24.6258 43.1961 23.5288 44.5494 23.5288C45.9027 23.5288 46.9997 24.6258 46.9997 25.9791Z" fill="#FF9A02" fill-opacity="0.2"/>
<path d="M32.9072 30.1696C32.9072 30.7686 32.6923 31.3173 32.3354 31.743C31.8859 32.2791 31.2112 32.62 30.4568 32.62C29.9195 32.62 29.4225 32.447 29.0186 32.1537C28.4053 31.7083 28.0065 30.9856 28.0065 30.1696C28.0065 28.8164 29.1036 27.7193 30.4568 27.7193C31.8101 27.7193 32.9072 28.8164 32.9072 30.1696Z" fill="#FF9A02" fill-opacity="0.2"/>
<path d="M25.4598 39.9706C25.4598 41.3238 24.3628 42.4209 23.0095 42.4209C21.6562 42.4209 20.5591 41.3238 20.5591 39.9706C20.5591 38.6173 21.6562 37.5202 23.0095 37.5202C23.6483 37.5202 24.2301 37.7647 24.6663 38.1652C25.1541 38.6131 25.4598 39.2561 25.4598 39.9706Z" fill="#FF9A02" fill-opacity="0.2"/>
<path d="M17.8392 46.4779C18.3914 46.4779 18.8392 46.0302 18.8392 45.4779C18.8392 44.9257 18.3914 44.4779 17.8392 44.4779V46.4779ZM42.4779 18.1963C42.4779 18.7486 42.9257 19.1963 43.4779 19.1963C44.0302 19.1963 44.4779 18.7486 44.4779 18.1963H42.4779ZM24.6663 38.1652L23.9899 38.9018L24.6663 38.1652ZM32.3354 31.743L31.5691 31.1005L32.3354 31.743ZM9.21218 20.0721C8.65989 20.0721 8.21218 20.5199 8.21218 21.0721C8.21218 21.6244 8.65989 22.0721 9.21218 22.0721V20.0721ZM22.8658 22.0721C23.4181 22.0721 23.8658 21.6244 23.8658 21.0721C23.8658 20.5199 23.4181 20.0721 22.8658 20.0721V22.0721ZM9.21218 26.6414C8.65989 26.6414 8.21218 27.0892 8.21218 27.6414C8.21218 28.1937 8.65989 28.6414 9.21218 28.6414V26.6414ZM12.2463 28.6414C12.7986 28.6414 13.2463 28.1937 13.2463 27.6414C13.2463 27.0892 12.7986 26.6414 12.2463 26.6414V28.6414ZM17.8392 44.4779H8.5297V46.4779H17.8392V44.4779ZM2 37.9482V9.57139H0V37.9482H2ZM7.57138 4H35.9482V2H7.57138V4ZM42.4779 10.5297V18.1963H44.4779V10.5297H42.4779ZM35.9482 4C39.5545 4 42.4779 6.92345 42.4779 10.5297H44.4779C44.4779 5.81888 40.6591 2 35.9482 2V4ZM2 9.57139C2 6.4944 4.49439 4 7.57138 4V2C3.38982 2 0 5.38983 0 9.57139H2ZM8.5297 44.4779C4.92345 44.4779 2 41.5545 2 37.9482H0C0 42.6591 3.81888 46.4779 8.5297 46.4779V44.4779ZM1 14.6195H43.4779V12.6195H1V14.6195ZM38.8572 36.6014C38.8572 37.4024 38.2079 38.0518 37.4068 38.0518V40.0518C39.3124 40.0518 40.8572 38.507 40.8572 36.6014H38.8572ZM37.4068 38.0518C36.6058 38.0518 35.9565 37.4024 35.9565 36.6014H33.9565C33.9565 38.507 35.5013 40.0518 37.4068 40.0518V38.0518ZM45.9997 25.9791C45.9997 26.7801 45.3504 27.4294 44.5494 27.4294V29.4294C46.4549 29.4294 47.9997 27.8847 47.9997 25.9791H45.9997ZM43.099 25.9791C43.099 25.1781 43.7484 24.5288 44.5494 24.5288V22.5288C42.6438 22.5288 41.099 24.0735 41.099 25.9791H43.099ZM44.5494 24.5288C45.3504 24.5288 45.9997 25.1781 45.9997 25.9791H47.9997C47.9997 24.0735 46.4549 22.5288 44.5494 22.5288V24.5288ZM29.0065 30.1696C29.0065 29.3686 29.6558 28.7193 30.4568 28.7193V26.7193C28.5513 26.7193 27.0065 28.2641 27.0065 30.1696H29.0065ZM30.4568 28.7193C31.2578 28.7193 31.9072 29.3686 31.9072 30.1696H33.9072C33.9072 28.2641 32.3624 26.7193 30.4568 26.7193V28.7193ZM24.4598 39.9706C24.4598 40.7716 23.8105 41.4209 23.0095 41.4209V43.4209C24.9151 43.4209 26.4598 41.8761 26.4598 39.9706H24.4598ZM23.0095 41.4209C22.2085 41.4209 21.5591 40.7716 21.5591 39.9706H19.5591C19.5591 41.8761 21.1039 43.4209 23.0095 43.4209V41.4209ZM21.5591 39.9706C21.5591 39.1696 22.2085 38.5202 23.0095 38.5202V36.5202C21.1039 36.5202 19.5591 38.065 19.5591 39.9706H21.5591ZM23.0095 38.5202C23.3882 38.5202 23.731 38.664 23.9899 38.9018L25.3426 37.4286C24.7292 36.8653 23.9085 36.5202 23.0095 36.5202V38.5202ZM23.9899 38.9018C24.2801 39.1683 24.4598 39.5477 24.4598 39.9706H26.4598C26.4598 38.9645 26.028 38.0579 25.3426 37.4286L23.9899 38.9018ZM30.4568 31.62C30.1375 31.62 29.845 31.518 29.6062 31.3445L28.431 32.9629C29 33.376 29.7014 33.62 30.4568 33.62V31.62ZM29.6062 31.3445C29.2408 31.0792 29.0065 30.6518 29.0065 30.1696H27.0065C27.0065 31.3193 27.5698 32.3375 28.431 32.9629L29.6062 31.3445ZM25.4763 38.7516L29.8286 32.7401L28.2086 31.5673L23.8563 37.5787L25.4763 38.7516ZM31.9072 30.1696C31.9072 30.525 31.7807 30.8482 31.5691 31.1005L33.1017 32.3855C33.6039 31.7865 33.9072 31.0122 33.9072 30.1696H31.9072ZM31.5691 31.1005C31.3015 31.4197 30.903 31.62 30.4568 31.62V33.62C31.5194 33.62 32.4704 33.1385 33.1017 32.3855L31.5691 31.1005ZM35.9565 36.6014C35.9565 36.177 36.1375 35.7963 36.4296 35.5297L35.0813 34.0525C34.3915 34.6821 33.9565 35.5917 33.9565 36.6014H35.9565ZM36.4296 35.5297C36.6882 35.2937 37.0297 35.1511 37.4068 35.1511V33.1511C36.5116 33.1511 35.6939 33.4934 35.0813 34.0525L36.4296 35.5297ZM31.6701 32.4895L35.0901 35.5377L36.4208 34.0446L33.0008 30.9965L31.6701 32.4895ZM37.4068 35.1511C37.6723 35.1511 37.9183 35.2215 38.1304 35.344L39.1305 33.612C38.6225 33.3186 38.0327 33.1511 37.4068 33.1511V35.1511ZM38.1304 35.344C38.567 35.5961 38.8572 36.0655 38.8572 36.6014H40.8572C40.8572 35.3221 40.1605 34.2068 39.1305 33.612L38.1304 35.344ZM44.5494 27.4294C44.2612 27.4294 43.9956 27.3465 43.7713 27.2034L42.6959 28.8897C43.2319 29.2315 43.869 29.4294 44.5494 29.4294V27.4294ZM43.7713 27.2034C43.365 26.9443 43.099 26.4924 43.099 25.9791H41.099C41.099 27.2039 41.7379 28.2788 42.6959 28.8897L43.7713 27.2034ZM39.4436 35.06L44.0468 28.6286L42.4204 27.4646L37.8173 33.896L39.4436 35.06ZM9.21218 22.0721H22.8658V20.0721H9.21218V22.0721ZM9.21218 28.6414H12.2463V26.6414H9.21218V28.6414Z" fill="#FF9A02"/>
</svg>
