<svg width="48" height="48" viewBox="0 0 48 48" fill="none" xmlns="http://www.w3.org/2000/svg">
<path d="M5.65748 25.1703C6.88368 23.9441 8.87176 23.9441 10.098 25.1703L10.1841 25.2564C11.4103 26.4826 11.4103 28.4706 10.1841 29.6968L6.85294 33.0279C5.62673 34.254 3.63866 34.254 2.41246 33.0279L2.32635 32.9418C1.10015 31.7156 1.10015 29.7276 2.32636 28.5014L5.65748 25.1703Z" fill="#0F67EA" fill-opacity="0.2"/>
<path d="M21.3176 36.783C22.5438 35.5568 24.5318 35.5568 25.758 36.783L25.8441 36.8691C27.0704 38.0952 27.0704 40.0833 25.8441 41.3095L23.3242 43.8294C22.098 45.0556 20.1099 45.0556 18.8837 43.8294L18.7976 43.7433C17.5714 42.5171 17.5714 40.5291 18.7976 39.3029L21.3176 36.783Z" fill="#0F67EA" fill-opacity="0.2"/>
<path d="M12.4634 27.4849C13.6896 26.2587 15.6777 26.2587 16.9039 27.4849L16.99 27.571C18.2162 28.7972 18.2162 30.7852 16.99 32.0114L11.4236 37.5776C10.1974 38.8038 8.20932 38.8038 6.98311 37.5777L6.89701 37.4916C5.67081 36.2654 5.67081 34.2773 6.89702 33.0512L12.4634 27.4849Z" fill="#0F67EA" fill-opacity="0.2"/>
<path d="M18.0751 30.9779C19.3013 29.7517 21.2894 29.7517 22.5156 30.9779L22.6017 31.064C23.8279 32.2902 23.8279 34.2782 22.6017 35.5044L17.0353 41.0706C15.8091 42.2968 13.821 42.2968 12.5948 41.0706L12.5087 40.9845C11.2825 39.7584 11.2825 37.7703 12.5087 36.5441L18.0751 30.9779Z" fill="#0F67EA" fill-opacity="0.2"/>
<path d="M41.7023 31.2496L35.3903 26.5207L41.6617 31.2786C43.0432 32.3268 43.3135 34.2963 42.2653 35.6778L42.1917 35.7748C41.1436 37.1563 39.174 37.4265 37.7925 36.3784L30.3056 30.7442L36.5769 35.5021C37.9584 36.5502 38.2287 38.5198 37.1806 39.9013L37.107 39.9983C36.0588 41.3797 34.0892 41.65 32.7077 40.6019L30.8456 39.1892L28.6232 37.4653L30.7215 39.09C30.7639 39.1222 30.8053 39.1553 30.8456 39.1892L32.7077 40.6019C34.0892 41.65 36.0588 41.3797 37.107 39.9983L37.1806 39.9013C38.2287 38.5198 37.9584 36.5502 36.5769 35.5021L30.3056 30.7442L37.7925 36.3784C39.174 37.4265 41.1436 37.1563 42.1917 35.7748L42.2653 35.6778C43.3135 34.2963 43.0432 32.3268 41.6617 31.2786L35.3903 26.5207L41.7023 31.2496C43.0838 32.2977 45.0534 32.0275 46.1015 30.646L46.1751 30.549C47.2233 29.1675 46.953 27.1979 45.5715 26.1498L44.1038 25.0726L26.9784 12.5034L17.1539 18.5574C15.2923 19.7047 12.8632 19.2452 11.5491 17.4973C10.0449 15.4964 10.596 12.6343 12.7356 11.335L22.5066 5.40169C22.9957 5.10467 23.4939 4.83612 23.9993 4.59552C31.771 0.89581 41.2431 3.8068 45.515 11.4996C47.7263 15.4816 47.4502 20.3805 44.8054 24.0888L44.1038 25.0726L45.5715 26.1498C46.953 27.1979 47.2233 29.1675 46.1751 30.549L46.1015 30.646C45.0534 32.0275 43.0838 32.2977 41.7023 31.2496Z" fill="#0F67EA" fill-opacity="0.2"/>
<path d="M24.7539 42.3997L26.8523 44.1898C28.2338 45.2379 30.2034 44.9677 31.2515 43.5862L31.3251 43.4892C32.3411 42.1502 32.1184 40.2586 30.8456 39.1892M30.8456 39.1892C30.8053 39.1553 30.7639 39.1222 30.7215 39.09L28.6232 37.4653L30.8456 39.1892ZM30.8456 39.1892L32.7077 40.6019C34.0892 41.65 36.0588 41.3797 37.107 39.9983L37.1806 39.9013C38.2287 38.5198 37.9584 36.5502 36.5769 35.5021L30.3056 30.7441L37.7925 36.3784C39.174 37.4265 41.1436 37.1563 42.1917 35.7748L42.2653 35.6778C43.3135 34.2963 43.0432 32.3268 41.6617 31.2786L35.3903 26.5207L41.7023 31.2496C43.0838 32.2977 45.0534 32.0275 46.1015 30.646L46.1751 30.549C47.2233 29.1675 46.953 27.1979 45.5715 26.1498L44.1038 25.0726M44.1038 25.0726L26.9784 12.5034L17.1539 18.5574C15.2923 19.7047 12.8632 19.2452 11.5491 17.4973C10.0449 15.4964 10.596 12.6343 12.7356 11.335L22.5066 5.40169C22.9957 5.10467 23.4939 4.83612 23.9993 4.59552M44.1038 25.0726L44.8054 24.0888C47.4502 20.3805 47.7263 15.4816 45.515 11.4996C41.2431 3.8068 31.771 0.89581 23.9993 4.59552M4.77348 26.0543L3.19461 24.0888C0.549806 20.3805 0.273662 15.4816 2.48496 11.4996C6.75404 3.81188 16.2306 0.906978 23.9993 4.59552M2.32635 32.9418L2.41246 33.0279C3.63866 34.254 5.62673 34.254 6.85294 33.0279L10.1841 29.6968C11.4103 28.4706 11.4103 26.4826 10.1841 25.2564L10.098 25.1703C8.87176 23.9441 6.88368 23.9441 5.65748 25.1703L2.32636 28.5014C1.10015 29.7276 1.10015 31.7156 2.32635 32.9418ZM18.7976 43.7433L18.8837 43.8294C20.1099 45.0556 22.098 45.0556 23.3242 43.8294L25.8441 41.3095C27.0703 40.0833 27.0704 38.0953 25.8441 36.8691L25.758 36.783C24.5318 35.5568 22.5438 35.5568 21.3176 36.783L18.7976 39.3029C17.5714 40.5291 17.5714 42.5171 18.7976 43.7433ZM6.89701 37.4916L6.98311 37.5777C8.20932 38.8038 10.1974 38.8038 11.4236 37.5776L16.99 32.0114C18.2162 30.7852 18.2162 28.7972 16.99 27.571L16.9039 27.4849C15.6777 26.2587 13.6896 26.2587 12.4634 27.4849L6.89702 33.0512C5.67081 34.2773 5.67081 36.2654 6.89701 37.4916ZM12.5087 40.9845L12.5948 41.0706C13.821 42.2968 15.8091 42.2968 17.0353 41.0706L22.6017 35.5044C23.8279 34.2782 23.8279 32.2902 22.6017 31.064L22.5156 30.9779C21.2894 29.7517 19.3013 29.7517 18.0751 30.9779L12.5087 36.5441C11.2825 37.7703 11.2825 39.7584 12.5087 40.9845Z" stroke="#0F67EA" stroke-width="2" stroke-linecap="round" stroke-linejoin="round"/>
<path d="M30.8456 39.1912C32.1184 40.2606 32.3411 42.1521 31.3251 43.4912L31.2515 43.5882C30.2034 44.9697 28.2338 45.2399 26.8523 44.1918L24.7539 42.4016L25.8441 41.3115C27.0704 40.0853 27.0704 38.0972 25.8441 36.8711L25.758 36.785C24.5318 35.5588 22.5438 35.5588 21.3176 36.785L22.6017 35.5064C23.8279 34.2802 23.8279 32.2921 22.6017 31.066L22.5156 30.9799C21.2894 29.7537 19.3013 29.7537 18.0751 30.9799L16.99 32.0134C18.2162 30.7872 18.2162 28.7992 16.99 27.573L16.9039 27.4869C15.6777 26.2607 13.6896 26.2607 12.4634 27.4869L10.1841 29.6988C11.4103 28.4726 11.4103 26.4846 10.1841 25.2584L10.098 25.1723C8.87175 23.9461 6.88368 23.9461 5.65748 25.1723L4.77348 26.0563L3.19461 24.0908C0.549805 20.3824 0.273662 15.4836 2.48496 11.5016C6.75404 3.81388 16.2306 0.90897 23.9993 4.59751C23.4939 4.83811 22.9957 5.10667 22.5066 5.40368L12.7356 11.337C10.596 12.6363 10.0449 15.4984 11.5491 17.4993C12.8632 19.2472 15.2923 19.7067 17.1539 18.5594L26.9784 12.5054L44.1038 25.0746M30.8456 39.1912C30.8053 39.1573 30.7639 39.1242 30.7215 39.092L28.6232 37.4673L30.8456 39.1912ZM30.8456 39.1912L32.7077 40.6039C34.0892 41.652 36.0588 41.3817 37.107 40.0002L37.1806 39.9032C38.2287 38.5218 37.9584 36.5522 36.5769 35.5041L30.3056 30.7461L37.7925 36.3804C39.174 37.4285 41.1436 37.1583 42.1917 35.7768L42.2653 35.6798C43.3135 34.2983 43.0432 32.3287 41.6617 31.2806L35.3903 26.5227L41.7023 31.2516C43.0838 32.2997 45.0534 32.0295 46.1015 30.648L46.1751 30.551C47.2233 29.1695 46.953 27.1999 45.5715 26.1518L44.1038 25.0746M44.1038 25.0746L44.8054 24.0908" stroke="#0F67EA" stroke-width="2" stroke-linecap="round" stroke-linejoin="round"/>
</svg>
