<svg width="58" height="58" viewBox="0 0 58 58" fill="none" xmlns="http://www.w3.org/2000/svg">
<rect x="4" y="4" width="50" height="50" rx="25" fill="#23A06C" fill-opacity="0.2"/>
<path d="M22.9609 33.2312C22.9609 35.5754 24.7735 37.4604 26.9968 37.4604H31.5401C33.4734 37.4604 35.0443 35.817 35.0443 33.7629C35.0443 31.5637 34.0776 30.7662 32.6518 30.2587L25.3776 27.7212C23.9518 27.2137 22.9851 26.4404 22.9851 24.217C22.9851 22.187 24.5559 20.5195 26.4893 20.5195H31.0326C33.2559 20.5195 35.0685 22.4045 35.0685 24.7487" stroke="#23A06C" stroke-width="3" stroke-linecap="round" stroke-linejoin="round"/>
<path d="M29 18.125V39.875" stroke="#23A06C" stroke-width="3" stroke-linecap="round" stroke-linejoin="round"/>
<path d="M54 29C54 42.8 42.8 54 29 54C15.2 54 4 42.8 4 29C4 15.2 15.2 4 29 4" stroke="#23A06C" stroke-width="3" stroke-linecap="round" stroke-linejoin="round"/>
<path d="M41.0859 7.25001V16.9167M41.0859 16.9167H50.7526M41.0859 16.9167L54.0026 4" stroke="#23A06C" stroke-width="4" stroke-linecap="round" stroke-linejoin="round"/>
</svg>
