<svg width="49" height="49" viewBox="0 0 49 49" fill="none" xmlns="http://www.w3.org/2000/svg">
<path d="M41.4825 28.756H47V20.3947H41.4825C41.0526 18.6344 40.3573 16.9782 39.4413 15.4708L43.344 11.5681L37.4317 5.65586L33.529 9.55851C32.0217 8.64268 30.3655 7.94741 28.6053 7.5175L28.6053 2H20.3947L20.3947 7.51749C18.6345 7.94741 16.9783 8.64268 15.471 9.55851L11.5683 5.65586L5.65604 11.5681L9.55865 15.4708C8.64275 16.9782 7.94743 18.6344 7.51749 20.3947L2 20.3947V28.756H7.51749C7.94742 30.5162 8.64272 32.1725 9.55859 33.6798L5.65603 37.5824L11.5683 43.4947L15.4709 39.5921C16.9783 40.508 18.6345 41.2033 20.3947 41.6332V31.5914C18.0256 30.1871 16.4373 27.6044 16.4373 24.6507C16.4373 21.4503 18.3021 18.6854 21.0043 17.3832L22.0812 23.8444H26.9187L27.9956 17.3832C30.6979 18.6854 32.5626 21.4503 32.5626 24.6507C32.5626 27.6044 30.9743 30.1871 28.6053 31.5914V41.6332C30.3655 41.2033 32.0217 40.508 33.5291 39.5921L37.4317 43.4947L43.344 37.5824L39.4414 33.6798C40.3573 32.1725 41.0526 30.5162 41.4825 28.756Z" fill="#A263C0" fill-opacity="0.2"/>
<path d="M28.6053 41.6332V47.1507M28.6053 41.6332C30.3655 41.2033 32.0217 40.508 33.5291 39.5921L37.4317 43.4947L43.344 37.5824L39.4414 33.6798C40.3573 32.1725 41.0526 30.5162 41.4825 28.756H47V20.3947H41.4825C41.0526 18.6344 40.3573 16.9782 39.4414 15.4708L43.344 11.5681L37.4317 5.65586L33.529 9.55851C32.0217 8.64268 30.3655 7.94741 28.6053 7.5175L28.6053 2H20.3947L20.3947 7.51749C18.6345 7.94741 16.9783 8.64268 15.471 9.55851L11.5683 5.65586L5.65604 11.5681L9.55865 15.4708C8.64275 16.9782 7.94743 18.6344 7.51749 20.3947L2 20.3947V28.756H7.51749C7.94742 30.5162 8.64272 32.1725 9.55859 33.6798L5.65603 37.5824L11.5683 43.4947L15.4709 39.5921C16.9783 40.508 18.6345 41.2033 20.3947 41.6332M28.6053 41.6332V31.5914C30.9743 30.1871 32.5626 27.6044 32.5626 24.6507C32.5626 21.4503 30.6979 18.6854 27.9956 17.3832L26.9187 23.8444H22.0812L21.0043 17.3832C18.3021 18.6854 16.4373 21.4503 16.4373 24.6507C16.4373 27.6044 18.0256 30.1871 20.3947 31.5914V41.6332M20.3947 41.6332V47.1507" stroke="#A263C0" stroke-width="2.41879" stroke-linecap="round" stroke-linejoin="round"/>
</svg>
