<svg width="48" height="48" viewBox="0 0 48 48" fill="none" xmlns="http://www.w3.org/2000/svg">
<path d="M6.87891 13.0938H25.3324" stroke="#DB4F4E" stroke-width="2" stroke-miterlimit="10" stroke-linecap="round" stroke-linejoin="round"/>
<path d="M6.87891 18.4375H18.9138" stroke="#DB4F4E" stroke-width="2" stroke-miterlimit="10" stroke-linecap="round" stroke-linejoin="round"/>
<path d="M1 7.2093V22.7209C1 24.4934 2.43685 25.9302 4.2093 25.9302H4.74419C5.63041 25.9302 6.34884 26.6487 6.34884 27.5349V31.2791C6.34884 31.7198 6.85204 31.9714 7.20465 31.707L14.4791 26.2512C14.7568 26.0428 15.0947 25.9302 15.4419 25.9302H27.7442C29.5166 25.9302 30.9535 24.4934 30.9535 22.7209V7.2093C30.9535 5.43685 29.5166 4 27.7442 4H4.2093C2.43685 4 1 5.43685 1 7.2093Z" fill="#DB4F4E" fill-opacity="0.2" stroke="#DB4F4E" stroke-width="2" stroke-linecap="round"/>
<path d="M18.6512 30.7874V34.0412C18.6512 35.8137 20.088 37.2505 21.8605 37.2505H32.5581C32.9053 37.2505 33.2432 37.3632 33.5209 37.5715L40.7953 43.0273C41.148 43.2918 41.6512 43.0402 41.6512 42.5994V38.8552C41.6512 37.969 42.3696 37.2505 43.2558 37.2505H43.7907C45.5631 37.2505 47 35.8137 47 34.0412V18.5296C47 16.7572 45.5631 15.3203 43.7907 15.3203L35.1211 15.3203" stroke="#DB4F4E" stroke-width="2" stroke-linecap="round"/>
</svg>
