<svg width="58" height="58" viewBox="0 0 58 58" fill="none" xmlns="http://www.w3.org/2000/svg">
<path d="M17 40.5566V28.7642C17 27.8524 16.2577 27.1132 15.3421 27.1132H14.6316C10.4458 27.1132 7 30.4922 7 34.6604C7 38.8286 10.4458 42.2075 14.6316 42.2075H15.3421C16.2577 42.2075 17 41.4684 17 40.5566Z" fill="#23A06C" fill-opacity="0.2"/>
<path d="M42 40.504V28.7115C42 27.7997 42.7423 27.0606 43.6579 27.0606H44.3684C48.5542 27.0606 52 30.4922 52 34.6604C52 37.9028 50.0508 40.6676 47.1684 41.7358C46.2928 41.9882 45.2981 42.1549 44.3684 42.1549H43.6579C42.7423 42.1549 42 41.4158 42 40.504Z" fill="#23A06C" fill-opacity="0.2"/>
<path d="M7 34.6604C7 30.4922 10.4458 27.1132 14.6316 27.1132H15.3421C16.2577 27.1132 17 27.8524 17 28.7642V40.5566C17 41.4684 16.2577 42.2075 15.3421 42.2075H14.6316C10.4458 42.2075 7 38.8286 7 34.6604ZM7 34.6604V26.5C7 14.0736 17.0736 4 29.5 4V4C41.9264 4 52 14.0736 52 26.5V34.6604M52 34.6604C52 30.4922 48.5542 27.0606 44.3684 27.0606H43.6579C42.7423 27.0606 42 27.7997 42 28.7115V40.504C42 41.4158 42.7423 42.1549 43.6579 42.1549H44.3684C45.2981 42.1549 46.2928 41.9882 47.1684 41.7358M52 34.6604C52 37.9028 50.0508 40.6676 47.1684 41.7358M47.1684 41.7358V41.7358C47.1684 46.0239 43.6923 49.5 39.4043 49.5H38M38 49.5V49.5C38 47.567 36.433 46 34.5 46H32.5C30.567 46 29 47.567 29 49.5V49.5C29 51.433 30.567 53 32.5 53H34.5C36.433 53 38 51.433 38 49.5V49.5Z" stroke="#23A06C" stroke-width="3"/>
</svg>
