<svg width="409" height="122" viewBox="0 0 350 104" fill="none" xmlns="http://www.w3.org/2000/svg">
<g clip-path="url(#clip0_22168_9120)">
<path d="M136.1 80.8998L175.6 101L213.6 80.8998V2.2998H136.1V80.8998Z" fill="white"/>
<path d="M214.401 2.59961L135.301 82.2996L176.301 102.6L214.401 83.0996V2.59961Z" fill="#F2F3F2"/>
<path d="M133.5 28.5002V82.6002L134.9 83.3002L174.4 103.4L175.6 104L176.8 103.4L214.9 83.3002L216.3 82.6002V-0.299805H133.5V28.5002ZM136.1 81.1002V2.3002H213.7V81.1002L175.6 101.2L136.1 81.1002Z" fill="#DCDEDC"/>
<path d="M174.901 3.6002C175.301 3.6002 175.701 3.6002 176.101 3.7002L174.901 6.0002C173.101 5.9002 171.501 7.3002 171.401 9.1002C171.301 10.9002 172.701 12.5002 174.501 12.6002H174.901C175.701 12.6002 176.501 12.3002 177.101 11.8002L178.401 14.0002C177.401 14.7002 176.201 15.1002 174.901 15.1002C171.701 15.2002 169.001 12.8002 168.901 9.6002C168.801 6.4002 171.201 3.7002 174.401 3.6002H174.901ZM179.001 8.5002L180.501 11.0002L179.001 13.4002L177.601 11.0002H174.701L176.201 8.5002H179.001ZM176.601 7.6002C176.601 7.2002 176.701 6.8002 176.901 6.5002C177.101 6.2002 177.501 5.9002 177.801 5.7002L178.001 5.6002C178.401 5.4002 178.501 5.3002 178.501 5.1002C178.501 4.9002 178.201 4.7002 178.001 4.7002C177.601 4.7002 177.301 4.9002 177.101 5.3002L176.601 4.8002C176.701 4.6002 176.901 4.4002 177.101 4.2002C177.401 4.0002 177.701 4.0002 178.001 4.0002C178.301 4.0002 178.701 4.1002 178.901 4.3002C179.101 4.5002 179.301 4.8002 179.301 5.1002C179.301 5.6002 179.001 6.0002 178.401 6.2002L178.101 6.4002C177.801 6.6002 177.601 6.7002 177.501 7.0002H179.301V7.7002L176.601 7.6002ZM174.901 20.1002L184.401 14.7002V-0.299805H165.301V14.6002L174.901 20.1002Z" fill="#FF492C"/>
<path d="M218.2 55.5H131.6L128.4 62.5L131.6 69.5H218.2L221.3 62.5L218.2 55.5Z" fill="#2690CE"/>
<path d="M156.53 51.0002C156.45 51.0002 156.4 50.9602 156.38 50.8802L156.02 49.7002C156 49.6736 155.98 49.6602 155.96 49.6602H153C152.98 49.6602 152.96 49.6736 152.94 49.7002L152.6 50.8802C152.573 50.9602 152.52 51.0002 152.44 51.0002H150.92C150.867 51.0002 150.83 50.9869 150.81 50.9602C150.783 50.9336 150.78 50.8902 150.8 50.8302L153.39 42.7202C153.41 42.6402 153.46 42.6002 153.54 42.6002H155.43C155.51 42.6002 155.56 42.6402 155.58 42.7202L158.18 50.8302C158.187 50.8502 158.19 50.8702 158.19 50.8902C158.19 50.9636 158.147 51.0002 158.06 51.0002H156.53ZM153.38 48.2802C153.367 48.3269 153.38 48.3502 153.42 48.3502H155.54C155.587 48.3502 155.6 48.3269 155.58 48.2802L154.5 44.7102C154.493 44.6769 154.483 44.6636 154.47 44.6702C154.45 44.6769 154.437 44.6902 154.43 44.7102L153.38 48.2802ZM162.76 42.7402C162.76 42.7002 162.773 42.6669 162.8 42.6402C162.827 42.6136 162.86 42.6002 162.9 42.6002H164.31C164.35 42.6002 164.383 42.6136 164.41 42.6402C164.437 42.6669 164.45 42.7002 164.45 42.7402V50.8602C164.45 50.9002 164.437 50.9336 164.41 50.9602C164.383 50.9869 164.35 51.0002 164.31 51.0002H162.9C162.86 51.0002 162.827 50.9869 162.8 50.9602C162.773 50.9336 162.76 50.9002 162.76 50.8602V50.4602C162.76 50.4336 162.753 50.4202 162.74 50.4202C162.72 50.4136 162.703 50.4202 162.69 50.4402C162.35 50.8802 161.89 51.1002 161.31 51.1002C160.75 51.1002 160.267 50.9436 159.86 50.6302C159.46 50.3169 159.17 49.8869 158.99 49.3402C158.857 48.9269 158.79 48.4436 158.79 47.8902C158.79 47.3236 158.86 46.8269 159 46.4002C159.187 45.8936 159.477 45.4902 159.87 45.1902C160.27 44.8902 160.76 44.7402 161.34 44.7402C161.92 44.7402 162.37 44.9402 162.69 45.3402C162.703 45.3602 162.72 45.3669 162.74 45.3602C162.753 45.3536 162.76 45.3369 162.76 45.3102V42.7402ZM162.51 49.1302C162.67 48.8302 162.75 48.4269 162.75 47.9202C162.75 47.3802 162.66 46.9602 162.48 46.6602C162.3 46.3469 162.033 46.1902 161.68 46.1902C161.307 46.1902 161.023 46.3469 160.83 46.6602C160.63 46.9669 160.53 47.3902 160.53 47.9302C160.53 48.4102 160.613 48.8102 160.78 49.1302C160.98 49.4702 161.277 49.6402 161.67 49.6402C162.03 49.6402 162.31 49.4702 162.51 49.1302ZM168.45 51.1002C167.777 51.1002 167.2 50.9236 166.72 50.5702C166.24 50.2169 165.913 49.7369 165.74 49.1302C165.627 48.7502 165.57 48.3402 165.57 47.9002C165.57 47.4336 165.627 47.0102 165.74 46.6302C165.92 46.0369 166.25 45.5736 166.73 45.2402C167.21 44.9069 167.787 44.7402 168.46 44.7402C169.113 44.7402 169.673 44.9036 170.14 45.2302C170.607 45.5636 170.933 46.0269 171.12 46.6202C171.253 47.0202 171.32 47.4402 171.32 47.8802C171.32 48.3136 171.263 48.7169 171.15 49.0902C170.97 49.7169 170.643 50.2069 170.17 50.5602C169.697 50.9202 169.123 51.1002 168.45 51.1002ZM168.45 49.6402C168.71 49.6402 168.933 49.5602 169.12 49.4002C169.307 49.2402 169.44 49.0202 169.52 48.7402C169.58 48.4869 169.61 48.2069 169.61 47.9002C169.61 47.5669 169.58 47.2836 169.52 47.0502C169.427 46.7769 169.29 46.5669 169.11 46.4202C168.923 46.2669 168.7 46.1902 168.44 46.1902C168.167 46.1902 167.94 46.2669 167.76 46.4202C167.58 46.5669 167.45 46.7769 167.37 47.0502C167.303 47.2436 167.27 47.5269 167.27 47.9002C167.27 48.2602 167.3 48.5402 167.36 48.7402C167.44 49.0202 167.573 49.2402 167.76 49.4002C167.947 49.5602 168.177 49.6402 168.45 49.6402ZM177.92 46.4902C178.06 46.8969 178.13 47.3769 178.13 47.9302C178.13 48.4836 178.053 48.9836 177.9 49.4302C177.72 49.9436 177.43 50.3502 177.03 50.6502C176.637 50.9502 176.147 51.1002 175.56 51.1002C174.987 51.1002 174.54 50.9002 174.22 50.5002C174.207 50.4736 174.19 50.4636 174.17 50.4702C174.157 50.4769 174.15 50.4936 174.15 50.5202V53.0902C174.15 53.1302 174.137 53.1636 174.11 53.1902C174.077 53.2169 174.04 53.2302 174 53.2302H172.6C172.56 53.2302 172.527 53.2169 172.5 53.1902C172.473 53.1636 172.46 53.1302 172.46 53.0902V44.9802C172.46 44.9402 172.473 44.9036 172.5 44.8702C172.527 44.8436 172.56 44.8302 172.6 44.8302H174C174.04 44.8302 174.077 44.8436 174.11 44.8702C174.137 44.9036 174.15 44.9402 174.15 44.9802V45.3702C174.15 45.3969 174.157 45.4102 174.17 45.4102C174.19 45.4169 174.207 45.4136 174.22 45.4002C174.553 44.9602 175.017 44.7402 175.61 44.7402C176.163 44.7402 176.643 44.8936 177.05 45.2002C177.45 45.5069 177.74 45.9369 177.92 46.4902ZM176.08 49.1802C176.28 48.8669 176.38 48.4402 176.38 47.9002C176.38 47.4002 176.297 47.0002 176.13 46.7002C175.943 46.3602 175.647 46.1902 175.24 46.1902C174.873 46.1902 174.597 46.3602 174.41 46.7002C174.243 46.9936 174.16 47.4002 174.16 47.9202C174.16 48.4536 174.247 48.8669 174.42 49.1602C174.607 49.4802 174.88 49.6402 175.24 49.6402C175.6 49.6402 175.88 49.4869 176.08 49.1802ZM182.76 46.0402C182.76 46.0802 182.747 46.1169 182.72 46.1502C182.693 46.1769 182.66 46.1902 182.62 46.1902H181.47C181.43 46.1902 181.41 46.2102 181.41 46.2502V48.7902C181.41 49.0569 181.463 49.2536 181.57 49.3802C181.677 49.5069 181.85 49.5702 182.09 49.5702H182.49C182.53 49.5702 182.563 49.5836 182.59 49.6102C182.617 49.6436 182.63 49.6802 182.63 49.7202V50.8602C182.63 50.9469 182.583 50.9969 182.49 51.0102C182.15 51.0302 181.91 51.0402 181.77 51.0402C181.103 51.0402 180.607 50.9302 180.28 50.7102C179.953 50.4902 179.787 50.0736 179.78 49.4602V46.2502C179.78 46.2102 179.76 46.1902 179.72 46.1902H179.03C178.99 46.1902 178.957 46.1769 178.93 46.1502C178.903 46.1169 178.89 46.0802 178.89 46.0402V44.9802C178.89 44.9402 178.903 44.9036 178.93 44.8702C178.957 44.8436 178.99 44.8302 179.03 44.8302H179.72C179.76 44.8302 179.78 44.8102 179.78 44.7702V43.3402C179.78 43.3002 179.793 43.2669 179.82 43.2402C179.847 43.2136 179.88 43.2002 179.92 43.2002H181.26C181.3 43.2002 181.337 43.2136 181.37 43.2402C181.397 43.2669 181.41 43.3002 181.41 43.3402V44.7702C181.41 44.8102 181.43 44.8302 181.47 44.8302H182.62C182.66 44.8302 182.693 44.8436 182.72 44.8702C182.747 44.9036 182.76 44.9402 182.76 44.9802V46.0402ZM184.7 44.1402C184.427 44.1402 184.2 44.0502 184.02 43.8702C183.84 43.6902 183.75 43.4636 183.75 43.1902C183.75 42.9102 183.837 42.6802 184.01 42.5002C184.19 42.3269 184.42 42.2402 184.7 42.2402C184.98 42.2402 185.207 42.3269 185.38 42.5002C185.553 42.6802 185.64 42.9102 185.64 43.1902C185.64 43.4636 185.55 43.6902 185.37 43.8702C185.19 44.0502 184.967 44.1402 184.7 44.1402ZM183.98 51.0002C183.94 51.0002 183.903 50.9869 183.87 50.9602C183.843 50.9336 183.83 50.9002 183.83 50.8602V44.9602C183.83 44.9202 183.843 44.8869 183.87 44.8602C183.903 44.8336 183.94 44.8202 183.98 44.8202H185.38C185.42 44.8202 185.453 44.8336 185.48 44.8602C185.507 44.8869 185.52 44.9202 185.52 44.9602V50.8602C185.52 50.9002 185.507 50.9336 185.48 50.9602C185.453 50.9869 185.42 51.0002 185.38 51.0002H183.98ZM189.57 51.1002C188.897 51.1002 188.32 50.9236 187.84 50.5702C187.36 50.2169 187.033 49.7369 186.86 49.1302C186.747 48.7502 186.69 48.3402 186.69 47.9002C186.69 47.4336 186.747 47.0102 186.86 46.6302C187.04 46.0369 187.37 45.5736 187.85 45.2402C188.33 44.9069 188.907 44.7402 189.58 44.7402C190.233 44.7402 190.793 44.9036 191.26 45.2302C191.727 45.5636 192.053 46.0269 192.24 46.6202C192.373 47.0202 192.44 47.4402 192.44 47.8802C192.44 48.3136 192.383 48.7169 192.27 49.0902C192.09 49.7169 191.763 50.2069 191.29 50.5602C190.817 50.9202 190.243 51.1002 189.57 51.1002ZM189.57 49.6402C189.83 49.6402 190.053 49.5602 190.24 49.4002C190.427 49.2402 190.56 49.0202 190.64 48.7402C190.7 48.4869 190.73 48.2069 190.73 47.9002C190.73 47.5669 190.7 47.2836 190.64 47.0502C190.547 46.7769 190.41 46.5669 190.23 46.4202C190.043 46.2669 189.82 46.1902 189.56 46.1902C189.287 46.1902 189.06 46.2669 188.88 46.4202C188.7 46.5669 188.57 46.7769 188.49 47.0502C188.423 47.2436 188.39 47.5269 188.39 47.9002C188.39 48.2602 188.42 48.5402 188.48 48.7402C188.56 49.0202 188.693 49.2402 188.88 49.4002C189.067 49.5602 189.297 49.6402 189.57 49.6402ZM196.74 44.7402C197.38 44.7402 197.897 44.9336 198.29 45.3202C198.683 45.7136 198.88 46.2469 198.88 46.9202V50.8602C198.88 50.9002 198.867 50.9336 198.84 50.9602C198.813 50.9869 198.78 51.0002 198.74 51.0002H197.33C197.29 51.0002 197.257 50.9869 197.23 50.9602C197.203 50.9336 197.19 50.9002 197.19 50.8602V47.2702C197.19 46.9502 197.1 46.6902 196.92 46.4902C196.74 46.2902 196.5 46.1902 196.2 46.1902C195.907 46.1902 195.67 46.2902 195.49 46.4902C195.31 46.6902 195.22 46.9502 195.22 47.2702V50.8602C195.22 50.9002 195.207 50.9336 195.18 50.9602C195.153 50.9869 195.12 51.0002 195.08 51.0002H193.67C193.63 51.0002 193.597 50.9869 193.57 50.9602C193.543 50.9336 193.53 50.9002 193.53 50.8602V44.9802C193.53 44.9402 193.543 44.9036 193.57 44.8702C193.597 44.8436 193.63 44.8302 193.67 44.8302H195.08C195.12 44.8302 195.153 44.8436 195.18 44.8702C195.207 44.9036 195.22 44.9402 195.22 44.9802V45.4002C195.22 45.4202 195.227 45.4336 195.24 45.4402C195.26 45.4536 195.273 45.4502 195.28 45.4302C195.607 44.9702 196.093 44.7402 196.74 44.7402ZM145.56 30.7402C145.56 30.7002 145.573 30.6669 145.6 30.6402C145.627 30.6136 145.66 30.6002 145.7 30.6002H147.1C147.14 30.6002 147.177 30.6136 147.21 30.6402C147.237 30.6669 147.25 30.7002 147.25 30.7402V38.8602C147.25 38.9002 147.237 38.9336 147.21 38.9602C147.177 38.9869 147.14 39.0002 147.1 39.0002H145.7C145.66 39.0002 145.627 38.9869 145.6 38.9602C145.573 38.9336 145.56 38.9002 145.56 38.8602V35.5402C145.56 35.5002 145.54 35.4802 145.5 35.4802H142.84C142.8 35.4802 142.78 35.5002 142.78 35.5402V38.8602C142.78 38.9002 142.767 38.9336 142.74 38.9602C142.713 38.9869 142.68 39.0002 142.64 39.0002H141.24C141.2 39.0002 141.163 38.9869 141.13 38.9602C141.103 38.9336 141.09 38.9002 141.09 38.8602V30.7402C141.09 30.7002 141.103 30.6669 141.13 30.6402C141.163 30.6136 141.2 30.6002 141.24 30.6002H142.64C142.68 30.6002 142.713 30.6136 142.74 30.6402C142.767 30.6669 142.78 30.7002 142.78 30.7402V33.9702C142.78 34.0102 142.8 34.0302 142.84 34.0302H145.5C145.54 34.0302 145.56 34.0102 145.56 33.9702V30.7402ZM149.43 32.1402C149.157 32.1402 148.93 32.0502 148.75 31.8702C148.57 31.6902 148.48 31.4636 148.48 31.1902C148.48 30.9102 148.57 30.6802 148.75 30.5002C148.923 30.3269 149.15 30.2402 149.43 30.2402C149.71 30.2402 149.94 30.3269 150.12 30.5002C150.293 30.6802 150.38 30.9102 150.38 31.1902C150.38 31.4636 150.29 31.6902 150.11 31.8702C149.93 32.0502 149.703 32.1402 149.43 32.1402ZM148.71 39.0002C148.67 39.0002 148.637 38.9869 148.61 38.9602C148.583 38.9336 148.57 38.9002 148.57 38.8602V32.9602C148.57 32.9202 148.583 32.8869 148.61 32.8602C148.637 32.8336 148.67 32.8202 148.71 32.8202H150.12C150.16 32.8202 150.193 32.8336 150.22 32.8602C150.247 32.8869 150.26 32.9202 150.26 32.9602V38.8602C150.26 38.9002 150.247 38.9336 150.22 38.9602C150.193 38.9869 150.16 39.0002 150.12 39.0002H148.71ZM155.35 32.9802C155.35 32.9402 155.363 32.9036 155.39 32.8702C155.417 32.8436 155.45 32.8302 155.49 32.8302H156.9C156.94 32.8302 156.973 32.8436 157 32.8702C157.027 32.9036 157.04 32.9402 157.04 32.9802V38.4502C157.04 39.4969 156.737 40.2436 156.13 40.6902C155.53 41.1369 154.753 41.3602 153.8 41.3602C153.52 41.3602 153.207 41.3402 152.86 41.3002C152.78 41.2936 152.74 41.2436 152.74 41.1502L152.79 39.9102C152.79 39.8102 152.847 39.7669 152.96 39.7802C153.247 39.8269 153.51 39.8502 153.75 39.8502C154.263 39.8502 154.657 39.7402 154.93 39.5202C155.21 39.2936 155.35 38.9336 155.35 38.4402C155.35 38.4136 155.34 38.3969 155.32 38.3902C155.307 38.3902 155.293 38.3969 155.28 38.4102C154.973 38.7369 154.527 38.9002 153.94 38.9002C153.42 38.9002 152.943 38.7769 152.51 38.5302C152.077 38.2769 151.767 37.8702 151.58 37.3102C151.46 36.9436 151.4 36.4669 151.4 35.8802C151.4 35.2536 151.473 34.7469 151.62 34.3602C151.787 33.8669 152.07 33.4736 152.47 33.1802C152.87 32.8869 153.333 32.7402 153.86 32.7402C154.473 32.7402 154.947 32.9236 155.28 33.2902C155.293 33.3036 155.307 33.3102 155.32 33.3102C155.34 33.3036 155.35 33.2869 155.35 33.2602V32.9802ZM155.25 36.8502C155.317 36.6102 155.35 36.2836 155.35 35.8702C155.35 35.6236 155.34 35.4302 155.32 35.2902C155.307 35.1569 155.28 35.0302 155.24 34.9102C155.167 34.6902 155.047 34.5169 154.88 34.3902C154.713 34.2569 154.507 34.1902 154.26 34.1902C154.02 34.1902 153.813 34.2569 153.64 34.3902C153.473 34.5169 153.35 34.6902 153.27 34.9102C153.157 35.1502 153.1 35.4736 153.1 35.8802C153.1 36.3269 153.15 36.6469 153.25 36.8402C153.323 37.0536 153.45 37.2269 153.63 37.3602C153.81 37.4936 154.023 37.5602 154.27 37.5602C154.523 37.5602 154.733 37.4936 154.9 37.3602C155.073 37.2269 155.19 37.0569 155.25 36.8502ZM161.47 32.7402C162.11 32.7402 162.627 32.9336 163.02 33.3202C163.407 33.7136 163.6 34.2469 163.6 34.9202V38.8602C163.6 38.9002 163.587 38.9336 163.56 38.9602C163.533 38.9869 163.5 39.0002 163.46 39.0002H162.06C162.02 39.0002 161.983 38.9869 161.95 38.9602C161.923 38.9336 161.91 38.9002 161.91 38.8602V35.2702C161.91 34.9502 161.82 34.6902 161.64 34.4902C161.46 34.2902 161.223 34.1902 160.93 34.1902C160.63 34.1902 160.39 34.2902 160.21 34.4902C160.03 34.6902 159.94 34.9502 159.94 35.2702V38.8602C159.94 38.9002 159.927 38.9336 159.9 38.9602C159.873 38.9869 159.84 39.0002 159.8 39.0002H158.4C158.36 39.0002 158.323 38.9869 158.29 38.9602C158.263 38.9336 158.25 38.9002 158.25 38.8602V30.7402C158.25 30.7002 158.263 30.6669 158.29 30.6402C158.323 30.6136 158.36 30.6002 158.4 30.6002H159.8C159.84 30.6002 159.873 30.6136 159.9 30.6402C159.927 30.6669 159.94 30.7002 159.94 30.7402V33.4002C159.94 33.4202 159.95 33.4336 159.97 33.4402C159.983 33.4536 159.993 33.4502 160 33.4302C160.333 32.9702 160.823 32.7402 161.47 32.7402ZM170.24 35.2802C170.287 35.5869 170.303 35.9269 170.29 36.3002C170.283 36.3936 170.23 36.4402 170.13 36.4402H166.42C166.373 36.4402 166.36 36.4602 166.38 36.5002C166.4 36.6602 166.443 36.8202 166.51 36.9802C166.717 37.4336 167.14 37.6602 167.78 37.6602C168.293 37.6469 168.697 37.4369 168.99 37.0302C169.023 36.9836 169.06 36.9602 169.1 36.9602C169.127 36.9602 169.153 36.9769 169.18 37.0102L170.05 37.8602C170.09 37.9002 170.11 37.9369 170.11 37.9702C170.11 37.9836 170.093 38.0136 170.06 38.0602C169.793 38.3936 169.453 38.6502 169.04 38.8302C168.627 39.0102 168.17 39.1002 167.67 39.1002C166.983 39.1002 166.403 38.9436 165.93 38.6302C165.45 38.3169 165.107 37.8802 164.9 37.3202C164.733 36.9202 164.65 36.3969 164.65 35.7502C164.65 35.3102 164.71 34.9202 164.83 34.5802C165.01 34.0136 165.33 33.5636 165.79 33.2302C166.25 32.8902 166.797 32.7202 167.43 32.7202C168.23 32.7202 168.873 32.9536 169.36 33.4202C169.84 33.8869 170.133 34.5069 170.24 35.2802ZM167.44 34.1902C166.94 34.1902 166.61 34.4269 166.45 34.9002C166.417 35.0002 166.387 35.1269 166.36 35.2802C166.36 35.3202 166.38 35.3402 166.42 35.3402H168.5C168.547 35.3402 168.563 35.3202 168.55 35.2802C168.51 35.0469 168.49 34.9336 168.49 34.9402C168.417 34.7002 168.29 34.5169 168.11 34.3902C167.93 34.2569 167.707 34.1902 167.44 34.1902ZM173.71 39.0802C173.17 39.0802 172.7 39.0069 172.3 38.8602C171.9 38.7069 171.59 38.4936 171.37 38.2202C171.15 37.9469 171.04 37.6402 171.04 37.3002V37.1802C171.04 37.1402 171.057 37.1036 171.09 37.0702C171.117 37.0436 171.15 37.0302 171.19 37.0302H172.52C172.56 37.0302 172.593 37.0436 172.62 37.0702C172.647 37.1036 172.66 37.1402 172.66 37.1802V37.1902C172.66 37.3636 172.76 37.5136 172.96 37.6402C173.153 37.7602 173.4 37.8202 173.7 37.8202C173.967 37.8202 174.187 37.7669 174.36 37.6602C174.527 37.5536 174.61 37.4202 174.61 37.2602C174.61 37.1136 174.537 37.0069 174.39 36.9402C174.25 36.8669 174.013 36.7902 173.68 36.7102C173.307 36.6102 173.013 36.5169 172.8 36.4302C172.287 36.2569 171.877 36.0402 171.57 35.7802C171.27 35.5269 171.12 35.1602 171.12 34.6802C171.12 34.0869 171.35 33.6169 171.81 33.2702C172.27 32.9236 172.88 32.7502 173.64 32.7502C174.147 32.7502 174.593 32.8302 174.98 32.9902C175.367 33.1569 175.663 33.3869 175.87 33.6802C176.083 33.9802 176.19 34.3169 176.19 34.6902C176.19 34.7302 176.177 34.7636 176.15 34.7902C176.123 34.8236 176.09 34.8402 176.05 34.8402H174.76C174.72 34.8402 174.687 34.8236 174.66 34.7902C174.633 34.7636 174.62 34.7302 174.62 34.6902C174.62 34.5169 174.53 34.3702 174.35 34.2502C174.17 34.1302 173.933 34.0702 173.64 34.0702C173.373 34.0702 173.157 34.1169 172.99 34.2102C172.823 34.3102 172.74 34.4436 172.74 34.6102C172.74 34.7702 172.82 34.8902 172.98 34.9702C173.147 35.0502 173.42 35.1336 173.8 35.2202C173.893 35.2469 173.993 35.2736 174.1 35.3002C174.213 35.3269 174.333 35.3602 174.46 35.4002C175.033 35.5669 175.483 35.7836 175.81 36.0502C176.137 36.3102 176.3 36.6936 176.3 37.2002C176.3 37.7936 176.067 38.2569 175.6 38.5902C175.133 38.9169 174.503 39.0802 173.71 39.0802ZM180.8 34.0402C180.8 34.0802 180.787 34.1169 180.76 34.1502C180.733 34.1769 180.7 34.1902 180.66 34.1902H179.5C179.46 34.1902 179.44 34.2102 179.44 34.2502V36.7902C179.44 37.0569 179.497 37.2536 179.61 37.3802C179.717 37.5069 179.89 37.5702 180.13 37.5702H180.52C180.56 37.5702 180.597 37.5836 180.63 37.6102C180.657 37.6436 180.67 37.6802 180.67 37.7202V38.8602C180.67 38.9469 180.62 38.9969 180.52 39.0102C180.187 39.0302 179.947 39.0402 179.8 39.0402C179.14 39.0402 178.647 38.9302 178.32 38.7102C177.987 38.4902 177.817 38.0736 177.81 37.4602V34.2502C177.81 34.2102 177.79 34.1902 177.75 34.1902H177.07C177.03 34.1902 176.997 34.1769 176.97 34.1502C176.937 34.1169 176.92 34.0802 176.92 34.0402V32.9802C176.92 32.9402 176.937 32.9036 176.97 32.8702C176.997 32.8436 177.03 32.8302 177.07 32.8302H177.75C177.79 32.8302 177.81 32.8102 177.81 32.7702V31.3402C177.81 31.3002 177.823 31.2669 177.85 31.2402C177.883 31.2136 177.92 31.2002 177.96 31.2002H179.3C179.34 31.2002 179.373 31.2136 179.4 31.2402C179.427 31.2669 179.44 31.3002 179.44 31.3402V32.7702C179.44 32.8102 179.46 32.8302 179.5 32.8302H180.66C180.7 32.8302 180.733 32.8436 180.76 32.8702C180.787 32.9036 180.8 32.9402 180.8 32.9802V34.0402ZM187.38 39.1002C186.76 39.1002 186.217 38.9802 185.75 38.7402C185.283 38.5002 184.92 38.1602 184.66 37.7202C184.4 37.2869 184.27 36.7869 184.27 36.2202V30.7402C184.27 30.7002 184.283 30.6669 184.31 30.6402C184.337 30.6136 184.37 30.6002 184.41 30.6002H185.82C185.86 30.6002 185.893 30.6136 185.92 30.6402C185.947 30.6669 185.96 30.7002 185.96 30.7402V36.2302C185.96 36.6502 186.09 36.9902 186.35 37.2502C186.61 37.5102 186.953 37.6402 187.38 37.6402C187.8 37.6402 188.14 37.5102 188.4 37.2502C188.66 36.9902 188.79 36.6502 188.79 36.2302V30.7402C188.79 30.7002 188.803 30.6669 188.83 30.6402C188.863 30.6136 188.9 30.6002 188.94 30.6002H190.34C190.38 30.6002 190.413 30.6136 190.44 30.6402C190.467 30.6669 190.48 30.7002 190.48 30.7402V36.2202C190.48 36.7869 190.35 37.2869 190.09 37.7202C189.83 38.1602 189.467 38.5002 189 38.7402C188.533 38.9802 187.993 39.1002 187.38 39.1002ZM194.23 39.0802C193.69 39.0802 193.22 39.0069 192.82 38.8602C192.42 38.7069 192.11 38.4936 191.89 38.2202C191.67 37.9469 191.56 37.6402 191.56 37.3002V37.1802C191.56 37.1402 191.577 37.1036 191.61 37.0702C191.637 37.0436 191.67 37.0302 191.71 37.0302H193.04C193.08 37.0302 193.113 37.0436 193.14 37.0702C193.167 37.1036 193.18 37.1402 193.18 37.1802V37.1902C193.18 37.3636 193.28 37.5136 193.48 37.6402C193.673 37.7602 193.92 37.8202 194.22 37.8202C194.487 37.8202 194.707 37.7669 194.88 37.6602C195.047 37.5536 195.13 37.4202 195.13 37.2602C195.13 37.1136 195.057 37.0069 194.91 36.9402C194.77 36.8669 194.533 36.7902 194.2 36.7102C193.827 36.6102 193.533 36.5169 193.32 36.4302C192.807 36.2569 192.397 36.0402 192.09 35.7802C191.79 35.5269 191.64 35.1602 191.64 34.6802C191.64 34.0869 191.87 33.6169 192.33 33.2702C192.79 32.9236 193.4 32.7502 194.16 32.7502C194.667 32.7502 195.113 32.8302 195.5 32.9902C195.887 33.1569 196.183 33.3869 196.39 33.6802C196.603 33.9802 196.71 34.3169 196.71 34.6902C196.71 34.7302 196.697 34.7636 196.67 34.7902C196.643 34.8236 196.61 34.8402 196.57 34.8402H195.28C195.24 34.8402 195.207 34.8236 195.18 34.7902C195.153 34.7636 195.14 34.7302 195.14 34.6902C195.14 34.5169 195.05 34.3702 194.87 34.2502C194.69 34.1302 194.453 34.0702 194.16 34.0702C193.893 34.0702 193.677 34.1169 193.51 34.2102C193.343 34.3102 193.26 34.4436 193.26 34.6102C193.26 34.7702 193.34 34.8902 193.5 34.9702C193.667 35.0502 193.94 35.1336 194.32 35.2202C194.413 35.2469 194.513 35.2736 194.62 35.3002C194.733 35.3269 194.853 35.3602 194.98 35.4002C195.553 35.5669 196.003 35.7836 196.33 36.0502C196.657 36.3102 196.82 36.6936 196.82 37.2002C196.82 37.7936 196.587 38.2569 196.12 38.5902C195.653 38.9169 195.023 39.0802 194.23 39.0802ZM203.25 35.2802C203.297 35.5869 203.313 35.9269 203.3 36.3002C203.293 36.3936 203.24 36.4402 203.14 36.4402H199.44C199.387 36.4402 199.37 36.4602 199.39 36.5002C199.41 36.6602 199.453 36.8202 199.52 36.9802C199.727 37.4336 200.15 37.6602 200.79 37.6602C201.303 37.6469 201.707 37.4369 202 37.0302C202.033 36.9836 202.07 36.9602 202.11 36.9602C202.137 36.9602 202.167 36.9769 202.2 37.0102L203.06 37.8602C203.1 37.9002 203.12 37.9369 203.12 37.9702C203.12 37.9836 203.103 38.0136 203.07 38.0602C202.81 38.3936 202.47 38.6502 202.05 38.8302C201.637 39.0102 201.18 39.1002 200.68 39.1002C199.993 39.1002 199.413 38.9436 198.94 38.6302C198.46 38.3169 198.117 37.8802 197.91 37.3202C197.743 36.9202 197.66 36.3969 197.66 35.7502C197.66 35.3102 197.72 34.9202 197.84 34.5802C198.027 34.0136 198.35 33.5636 198.81 33.2302C199.27 32.8902 199.813 32.7202 200.44 32.7202C201.24 32.7202 201.883 32.9536 202.37 33.4202C202.857 33.8869 203.15 34.5069 203.25 35.2802ZM200.46 34.1902C199.953 34.1902 199.62 34.4269 199.46 34.9002C199.427 35.0002 199.4 35.1269 199.38 35.2802C199.38 35.3202 199.4 35.3402 199.44 35.3402H201.51C201.557 35.3402 201.573 35.3202 201.56 35.2802C201.52 35.0469 201.5 34.9336 201.5 34.9402C201.427 34.7002 201.3 34.5169 201.12 34.3902C200.94 34.2569 200.72 34.1902 200.46 34.1902ZM207.42 32.7502C207.707 32.7502 207.933 32.8069 208.1 32.9202C208.167 32.9469 208.19 33.0069 208.17 33.1002L207.92 34.4602C207.913 34.5602 207.857 34.5902 207.75 34.5502C207.63 34.5102 207.49 34.4902 207.33 34.4902C207.27 34.4902 207.183 34.4969 207.07 34.5102C206.783 34.5369 206.54 34.6436 206.34 34.8302C206.14 35.0169 206.04 35.2669 206.04 35.5802V38.8602C206.04 38.9002 206.023 38.9336 205.99 38.9602C205.963 38.9869 205.93 39.0002 205.89 39.0002H204.49C204.45 39.0002 204.417 38.9869 204.39 38.9602C204.357 38.9336 204.34 38.9002 204.34 38.8602V32.9802C204.34 32.9402 204.357 32.9036 204.39 32.8702C204.417 32.8436 204.45 32.8302 204.49 32.8302H205.89C205.93 32.8302 205.963 32.8436 205.99 32.8702C206.023 32.9036 206.04 32.9402 206.04 32.9802V33.4302C206.04 33.4569 206.047 33.4736 206.06 33.4802C206.073 33.4869 206.087 33.4836 206.1 33.4702C206.427 32.9902 206.867 32.7502 207.42 32.7502Z" fill="#252530"/>
<path d="M159.2 66.4004C159.127 66.4004 159.08 66.3671 159.06 66.3004L157.24 59.5304L157.23 59.4904C157.23 59.4304 157.267 59.4004 157.34 59.4004H158.32C158.394 59.4004 158.44 59.4337 158.46 59.5004L159.6 64.0604C159.607 64.0804 159.617 64.0904 159.63 64.0904C159.644 64.0904 159.654 64.0804 159.66 64.0604L160.75 59.5004C160.77 59.4337 160.814 59.4004 160.88 59.4004H161.84C161.914 59.4004 161.96 59.4337 161.98 59.5004L163.14 64.0704C163.147 64.0904 163.157 64.1004 163.17 64.1004C163.184 64.1004 163.194 64.0904 163.2 64.0704L164.32 59.5004C164.34 59.4337 164.387 59.4004 164.46 59.4004H165.39C165.484 59.4004 165.52 59.4437 165.5 59.5304L163.77 66.3004C163.75 66.3671 163.704 66.4004 163.63 66.4004H162.7C162.627 66.4004 162.58 66.3671 162.56 66.3004L161.39 61.5304C161.384 61.5104 161.374 61.4971 161.36 61.4904C161.347 61.4904 161.337 61.5037 161.33 61.5304L160.21 66.3004C160.19 66.3671 160.147 66.4004 160.08 66.4004H159.2ZM166.61 66.4004C166.577 66.4004 166.547 66.3871 166.52 66.3604C166.5 66.3404 166.49 66.3137 166.49 66.2804V59.5204C166.49 59.4871 166.5 59.4604 166.52 59.4404C166.547 59.4137 166.577 59.4004 166.61 59.4004H167.53C167.564 59.4004 167.59 59.4137 167.61 59.4404C167.637 59.4604 167.65 59.4871 167.65 59.5204V66.2804C167.65 66.3137 167.637 66.3404 167.61 66.3604C167.59 66.3871 167.564 66.4004 167.53 66.4004H166.61ZM173.18 59.5204C173.18 59.4871 173.19 59.4604 173.21 59.4404C173.237 59.4137 173.267 59.4004 173.3 59.4004H174.22C174.254 59.4004 174.28 59.4137 174.3 59.4404C174.327 59.4604 174.34 59.4871 174.34 59.5204V66.2804C174.34 66.3137 174.327 66.3404 174.3 66.3604C174.28 66.3871 174.254 66.4004 174.22 66.4004H173.33C173.264 66.4004 173.217 66.3737 173.19 66.3204L170.31 61.6004C170.297 61.5804 170.284 61.5704 170.27 61.5704C170.257 61.5771 170.25 61.5937 170.25 61.6204L170.27 66.2804C170.27 66.3137 170.257 66.3404 170.23 66.3604C170.21 66.3871 170.184 66.4004 170.15 66.4004H169.23C169.197 66.4004 169.167 66.3871 169.14 66.3604C169.12 66.3404 169.11 66.3137 169.11 66.2804V59.5204C169.11 59.4871 169.12 59.4604 169.14 59.4404C169.167 59.4137 169.197 59.4004 169.23 59.4004H170.12C170.187 59.4004 170.234 59.4271 170.26 59.4804L173.13 64.2004C173.144 64.2204 173.157 64.2271 173.17 64.2204C173.184 64.2204 173.19 64.2071 173.19 64.1804L173.18 59.5204ZM180.4 59.4004C180.434 59.4004 180.46 59.4137 180.48 59.4404C180.507 59.4604 180.52 59.4871 180.52 59.5204V60.2904C180.52 60.3237 180.507 60.3504 180.48 60.3704C180.46 60.3971 180.434 60.4104 180.4 60.4104H178.56C178.527 60.4104 178.51 60.4271 178.51 60.4604V66.2804C178.51 66.3137 178.5 66.3404 178.48 66.3604C178.454 66.3871 178.424 66.4004 178.39 66.4004H177.47C177.437 66.4004 177.41 66.3871 177.39 66.3604C177.364 66.3404 177.35 66.3137 177.35 66.2804V60.4604C177.35 60.4271 177.334 60.4104 177.3 60.4104H175.53C175.497 60.4104 175.467 60.3971 175.44 60.3704C175.42 60.3504 175.41 60.3237 175.41 60.2904V59.5204C175.41 59.4871 175.42 59.4604 175.44 59.4404C175.467 59.4137 175.497 59.4004 175.53 59.4004H180.4ZM186.33 60.2804C186.33 60.3137 186.317 60.3404 186.29 60.3604C186.27 60.3871 186.244 60.4004 186.21 60.4004H182.8C182.767 60.4004 182.75 60.4171 182.75 60.4504V62.3204C182.75 62.3537 182.767 62.3704 182.8 62.3704H185.09C185.124 62.3704 185.154 62.3804 185.18 62.4004C185.2 62.4271 185.21 62.4571 185.21 62.4904V63.2504C185.21 63.2837 185.2 63.3137 185.18 63.3404C185.154 63.3604 185.124 63.3704 185.09 63.3704H182.8C182.767 63.3704 182.75 63.3871 182.75 63.4204V65.3504C182.75 65.3837 182.767 65.4004 182.8 65.4004H186.21C186.244 65.4004 186.27 65.4137 186.29 65.4404C186.317 65.4604 186.33 65.4871 186.33 65.5204V66.2804C186.33 66.3137 186.317 66.3404 186.29 66.3604C186.27 66.3871 186.244 66.4004 186.21 66.4004H181.71C181.677 66.4004 181.647 66.3871 181.62 66.3604C181.6 66.3404 181.59 66.3137 181.59 66.2804V59.5204C181.59 59.4871 181.6 59.4604 181.62 59.4404C181.647 59.4137 181.677 59.4004 181.71 59.4004H186.21C186.244 59.4004 186.27 59.4137 186.29 59.4404C186.317 59.4604 186.33 59.4871 186.33 59.5204V60.2804ZM191.44 66.4004C191.374 66.4004 191.327 66.3704 191.3 66.3104L189.98 63.4304C189.967 63.4037 189.947 63.3904 189.92 63.3904H188.72C188.687 63.3904 188.67 63.4071 188.67 63.4404V66.2804C188.67 66.3137 188.657 66.3404 188.63 66.3604C188.61 66.3871 188.584 66.4004 188.55 66.4004H187.63C187.597 66.4004 187.567 66.3871 187.54 66.3604C187.52 66.3404 187.51 66.3137 187.51 66.2804V59.5204C187.51 59.4871 187.52 59.4604 187.54 59.4404C187.567 59.4137 187.597 59.4004 187.63 59.4004H190.38C190.787 59.4004 191.147 59.4837 191.46 59.6504C191.774 59.8237 192.017 60.0637 192.19 60.3704C192.364 60.6837 192.45 61.0404 192.45 61.4404C192.45 61.9004 192.33 62.2904 192.09 62.6104C191.857 62.9371 191.53 63.1637 191.11 63.2904C191.097 63.2904 191.087 63.2971 191.08 63.3104C191.074 63.3237 191.074 63.3371 191.08 63.3504L192.49 66.2604C192.504 66.2871 192.51 66.3071 192.51 66.3204C192.51 66.3737 192.474 66.4004 192.4 66.4004H191.44ZM188.72 60.4004C188.687 60.4004 188.67 60.4171 188.67 60.4504V62.4404C188.67 62.4737 188.687 62.4904 188.72 62.4904H190.22C190.54 62.4904 190.8 62.3937 191 62.2004C191.194 62.0137 191.29 61.7637 191.29 61.4504C191.29 61.1371 191.194 60.8837 191 60.6904C190.8 60.4971 190.54 60.4004 190.22 60.4004H188.72Z" fill="white"/>
<path d="M161.489 84.4603C161.469 84.4803 161.463 84.5003 161.469 84.5203C161.483 84.5403 161.503 84.5503 161.529 84.5503H165.459C165.506 84.5503 165.546 84.5669 165.579 84.6003C165.619 84.6336 165.639 84.6736 165.639 84.7203V86.1303C165.639 86.1769 165.619 86.2169 165.579 86.2503C165.546 86.2836 165.506 86.3003 165.459 86.3003H158.939C158.886 86.3003 158.843 86.2836 158.809 86.2503C158.776 86.2169 158.759 86.1769 158.759 86.1303V84.7903C158.759 84.7036 158.789 84.6303 158.849 84.5703C159.323 84.1103 159.806 83.6069 160.299 83.0603C160.793 82.5136 161.103 82.1736 161.229 82.0403C161.496 81.7203 161.769 81.4136 162.049 81.1203C162.929 80.1469 163.369 79.4236 163.369 78.9503C163.369 78.6103 163.249 78.3303 163.009 78.1103C162.769 77.8969 162.456 77.7903 162.069 77.7903C161.683 77.7903 161.369 77.8969 161.129 78.1103C160.883 78.3303 160.759 78.6203 160.759 78.9803V79.3403C160.759 79.3869 160.743 79.4269 160.709 79.4603C160.676 79.4936 160.636 79.5103 160.589 79.5103H158.879C158.833 79.5103 158.793 79.4936 158.759 79.4603C158.719 79.4269 158.699 79.3869 158.699 79.3403V78.6603C158.733 78.1403 158.899 77.6769 159.199 77.2703C159.499 76.8703 159.896 76.5636 160.389 76.3503C160.889 76.1369 161.449 76.0303 162.069 76.0303C162.756 76.0303 163.353 76.1603 163.859 76.4203C164.366 76.6736 164.756 77.0169 165.029 77.4503C165.309 77.8903 165.449 78.3736 165.449 78.9003C165.449 79.3069 165.346 79.7236 165.139 80.1503C164.939 80.5769 164.636 81.0369 164.229 81.5303C163.929 81.9036 163.606 82.2769 163.259 82.6503C162.913 83.0169 162.396 83.5469 161.709 84.2403L161.489 84.4603ZM170.349 86.4603C169.283 86.4603 168.443 86.1636 167.829 85.5703C167.209 84.9769 166.899 84.1669 166.899 83.1403V79.3103C166.899 78.3036 167.209 77.5069 167.829 76.9203C168.443 76.3269 169.283 76.0303 170.349 76.0303C171.409 76.0303 172.253 76.3269 172.879 76.9203C173.499 77.5069 173.809 78.3036 173.809 79.3103V83.1403C173.809 84.1669 173.499 84.9769 172.879 85.5703C172.253 86.1636 171.409 86.4603 170.349 86.4603ZM170.349 84.7103C170.783 84.7103 171.126 84.5769 171.379 84.3103C171.639 84.0436 171.769 83.6869 171.769 83.2403V79.2503C171.769 78.8103 171.639 78.4569 171.379 78.1903C171.126 77.9236 170.783 77.7903 170.349 77.7903C169.923 77.7903 169.583 77.9236 169.329 78.1903C169.069 78.4569 168.939 78.8103 168.939 79.2503V83.2403C168.939 83.6869 169.069 84.0436 169.329 84.3103C169.583 84.5769 169.923 84.7103 170.349 84.7103ZM177.869 84.4603C177.849 84.4803 177.846 84.5003 177.859 84.5203C177.866 84.5403 177.886 84.5503 177.919 84.5503H181.849C181.896 84.5503 181.936 84.5669 181.969 84.6003C182.003 84.6336 182.019 84.6736 182.019 84.7203V86.1303C182.019 86.1769 182.003 86.2169 181.969 86.2503C181.936 86.2836 181.896 86.3003 181.849 86.3003H175.319C175.273 86.3003 175.233 86.2836 175.199 86.2503C175.166 86.2169 175.149 86.1769 175.149 86.1303V84.7903C175.149 84.7036 175.176 84.6303 175.229 84.5703C175.709 84.1103 176.193 83.6069 176.679 83.0603C177.173 82.5136 177.483 82.1736 177.609 82.0403C177.883 81.7203 178.159 81.4136 178.439 81.1203C179.319 80.1469 179.759 79.4236 179.759 78.9503C179.759 78.6103 179.639 78.3303 179.399 78.1103C179.153 77.8969 178.836 77.7903 178.449 77.7903C178.063 77.7903 177.749 77.8969 177.509 78.1103C177.269 78.3303 177.149 78.6203 177.149 78.9803V79.3403C177.149 79.3869 177.133 79.4269 177.099 79.4603C177.066 79.4936 177.023 79.5103 176.969 79.5103H175.259C175.213 79.5103 175.173 79.4936 175.139 79.4603C175.106 79.4269 175.089 79.3869 175.089 79.3403V78.6603C175.116 78.1403 175.279 77.6769 175.579 77.2703C175.879 76.8703 176.279 76.5636 176.779 76.3503C177.279 76.1369 177.836 76.0303 178.449 76.0303C179.136 76.0303 179.733 76.1603 180.239 76.4203C180.753 76.6736 181.146 77.0169 181.419 77.4503C181.693 77.8903 181.829 78.3736 181.829 78.9003C181.829 79.3069 181.729 79.7236 181.529 80.1503C181.323 80.5769 181.016 81.0369 180.609 81.5303C180.309 81.9036 179.986 82.2769 179.639 82.6503C179.293 83.0169 178.776 83.5469 178.089 84.2403L177.869 84.4603ZM190.529 81.8803C190.576 81.8803 190.619 81.8969 190.659 81.9303C190.693 81.9636 190.709 82.0036 190.709 82.0503V83.5203C190.709 83.5669 190.693 83.6069 190.659 83.6403C190.619 83.6736 190.576 83.6903 190.529 83.6903H189.909C189.863 83.6903 189.839 83.7136 189.839 83.7603V86.1303C189.839 86.1769 189.823 86.2169 189.789 86.2503C189.749 86.2836 189.706 86.3003 189.659 86.3003H187.969C187.916 86.3003 187.873 86.2836 187.839 86.2503C187.806 86.2169 187.789 86.1769 187.789 86.1303V83.7603C187.789 83.7136 187.766 83.6903 187.719 83.6903H183.269C183.223 83.6903 183.179 83.6736 183.139 83.6403C183.106 83.6069 183.089 83.5669 183.089 83.5203V82.3603C183.089 82.3003 183.106 82.2269 183.139 82.1403L185.749 76.2803C185.789 76.1936 185.856 76.1503 185.949 76.1503H187.759C187.826 76.1503 187.873 76.1669 187.899 76.2003C187.926 76.2336 187.923 76.2836 187.889 76.3503L185.469 81.7903C185.463 81.8103 185.463 81.8303 185.469 81.8503C185.483 81.8703 185.499 81.8803 185.519 81.8803H187.719C187.766 81.8803 187.789 81.8536 187.789 81.8003V80.0103C187.789 79.9569 187.806 79.9136 187.839 79.8803C187.873 79.8469 187.916 79.8303 187.969 79.8303H189.659C189.706 79.8303 189.749 79.8469 189.789 79.8803C189.823 79.9136 189.839 79.9569 189.839 80.0103V81.8003C189.839 81.8536 189.863 81.8803 189.909 81.8803H190.529Z" fill="#252530"/>
</g>
<g clip-path="url(#clip1_22168_9120)">
<path d="M264.1 80.8998L303.6 101L341.6 80.8998V2.2998H264.1V80.8998Z" fill="white"/>
<path d="M342.401 2.59961L263.301 82.2996L304.301 102.6L342.401 83.0996V2.59961Z" fill="#F2F3F2"/>
<path d="M261.5 28.5002V82.6002L262.9 83.3002L302.4 103.4L303.6 104L304.8 103.4L342.9 83.3002L344.3 82.6002V-0.299805H261.5V28.5002ZM264.1 81.1002V2.3002H341.7V81.1002L303.6 101.2L264.1 81.1002Z" fill="#DCDEDC"/>
<path d="M302.9 3.6002C303.3 3.6002 303.7 3.6002 304.1 3.7002L302.9 6.0002C301.1 5.9002 299.5 7.3002 299.4 9.1002C299.3 10.9002 300.7 12.5002 302.5 12.6002H302.9C303.7 12.6002 304.5 12.3002 305.1 11.8002L306.4 14.0002C305.4 14.7002 304.2 15.1002 302.9 15.1002C299.7 15.2002 297 12.8002 296.9 9.6002C296.8 6.4002 299.2 3.7002 302.4 3.6002H302.9ZM307 8.5002L308.5 11.0002L307 13.4002L305.6 11.0002H302.7L304.2 8.5002H307ZM304.6 7.6002C304.6 7.2002 304.7 6.8002 304.9 6.5002C305.1 6.2002 305.5 5.9002 305.8 5.7002L306 5.6002C306.4 5.4002 306.5 5.3002 306.5 5.1002C306.5 4.9002 306.2 4.7002 306 4.7002C305.6 4.7002 305.3 4.9002 305.1 5.3002L304.6 4.8002C304.7 4.6002 304.9 4.4002 305.1 4.2002C305.4 4.0002 305.7 4.0002 306 4.0002C306.3 4.0002 306.7 4.1002 306.9 4.3002C307.1 4.5002 307.3 4.8002 307.3 5.1002C307.3 5.6002 307 6.0002 306.4 6.2002L306.1 6.4002C305.8 6.6002 305.6 6.7002 305.5 7.0002H307.3V7.7002L304.6 7.6002ZM302.9 20.1002L312.4 14.7002V-0.299805H293.3V14.6002L302.9 20.1002ZM346.2 55.5002H259.6L256.4 62.5002L259.6 69.5002H346.2L349.3 62.5002L346.2 55.5002Z" fill="#FF492C"/>
<path d="M275.091 51.0004C275.031 51.0004 274.981 50.9804 274.941 50.9404C274.901 50.8937 274.881 50.8404 274.881 50.7804V38.6204C274.881 38.5604 274.901 38.5071 274.941 38.4604C274.981 38.4204 275.031 38.4004 275.091 38.4004H277.201C277.261 38.4004 277.311 38.4204 277.351 38.4604C277.398 38.5071 277.421 38.5604 277.421 38.6204V48.7304C277.421 48.7904 277.451 48.8204 277.511 48.8204H283.391C283.451 48.8204 283.504 48.8404 283.551 48.8804C283.591 48.9271 283.611 48.9804 283.611 49.0404V50.7804C283.611 50.8404 283.591 50.8937 283.551 50.9404C283.504 50.9804 283.451 51.0004 283.391 51.0004H275.091ZM293.201 45.4204C293.274 45.8737 293.298 46.3837 293.271 46.9504C293.264 47.0971 293.188 47.1704 293.041 47.1704H287.481C287.408 47.1704 287.384 47.2004 287.411 47.2604C287.444 47.5004 287.508 47.7404 287.601 47.9804C287.914 48.6471 288.551 48.9804 289.511 48.9804C290.278 48.9737 290.884 48.6637 291.331 48.0504C291.378 47.9771 291.431 47.9404 291.491 47.9404C291.531 47.9404 291.574 47.9637 291.621 48.0104L292.911 49.2904C292.971 49.3504 293.001 49.4037 293.001 49.4504C293.001 49.4771 292.978 49.5271 292.931 49.6004C292.538 50.0871 292.028 50.4671 291.401 50.7404C290.781 51.0071 290.098 51.1404 289.351 51.1404C288.318 51.1404 287.444 50.9071 286.731 50.4404C286.018 49.9737 285.504 49.3204 285.191 48.4804C284.938 47.8804 284.811 47.0937 284.811 46.1204C284.811 45.4604 284.901 44.8804 285.081 44.3804C285.361 43.5271 285.844 42.8471 286.531 42.3404C287.224 41.8404 288.044 41.5904 288.991 41.5904C290.191 41.5904 291.154 41.9371 291.881 42.6304C292.608 43.3237 293.048 44.2537 293.201 45.4204ZM289.011 43.7804C288.251 43.7804 287.751 44.1337 287.511 44.8404C287.464 45.0004 287.424 45.1937 287.391 45.4204C287.391 45.4804 287.421 45.5104 287.481 45.5104H290.591C290.664 45.5104 290.688 45.4804 290.661 45.4204C290.601 45.0737 290.571 44.9071 290.571 44.9204C290.464 44.5604 290.278 44.2804 290.011 44.0804C289.738 43.8804 289.404 43.7804 289.011 43.7804ZM298.441 41.6004C299.221 41.6004 299.918 41.7371 300.531 42.0104C301.144 42.2771 301.621 42.6471 301.961 43.1204C302.301 43.5871 302.471 44.1071 302.471 44.6804V50.7804C302.471 50.8404 302.451 50.8937 302.411 50.9404C302.371 50.9804 302.321 51.0004 302.261 51.0004H300.151C300.091 51.0004 300.041 50.9804 300.001 50.9404C299.954 50.8937 299.931 50.8404 299.931 50.7804V50.1904C299.931 50.1571 299.921 50.1337 299.901 50.1204C299.874 50.1071 299.851 50.1171 299.831 50.1504C299.324 50.8104 298.514 51.1404 297.401 51.1404C296.461 51.1404 295.704 50.9137 295.131 50.4604C294.551 50.0071 294.261 49.3337 294.261 48.4404C294.261 47.5204 294.588 46.8037 295.241 46.2904C295.888 45.7837 296.811 45.5304 298.011 45.5304H299.841C299.901 45.5304 299.931 45.5004 299.931 45.4404V45.0404C299.931 44.6471 299.811 44.3371 299.571 44.1104C299.331 43.8904 298.971 43.7804 298.491 43.7804C298.124 43.7804 297.818 43.8471 297.571 43.9804C297.324 44.1137 297.164 44.3004 297.091 44.5404C297.058 44.6737 296.981 44.7337 296.861 44.7204L294.681 44.4304C294.534 44.4037 294.468 44.3504 294.481 44.2704C294.528 43.7637 294.728 43.3071 295.081 42.9004C295.434 42.4937 295.904 42.1771 296.491 41.9504C297.071 41.7171 297.721 41.6004 298.441 41.6004ZM298.081 49.2504C298.594 49.2504 299.031 49.1137 299.391 48.8404C299.751 48.5671 299.931 48.2137 299.931 47.7804V47.1304C299.931 47.0704 299.901 47.0404 299.841 47.0404H298.551C298.011 47.0404 297.588 47.1437 297.281 47.3504C296.974 47.5504 296.821 47.8371 296.821 48.2104C296.821 48.5371 296.934 48.7904 297.161 48.9704C297.388 49.1571 297.694 49.2504 298.081 49.2504ZM310.001 38.6204C310.001 38.5604 310.021 38.5071 310.061 38.4604C310.101 38.4204 310.151 38.4004 310.211 38.4004H312.321C312.381 38.4004 312.431 38.4204 312.471 38.4604C312.511 38.5071 312.531 38.5604 312.531 38.6204V50.7804C312.531 50.8404 312.511 50.8937 312.471 50.9404C312.431 50.9804 312.381 51.0004 312.321 51.0004H310.211C310.151 51.0004 310.101 50.9804 310.061 50.9404C310.021 50.8937 310.001 50.8404 310.001 50.7804V50.1904C310.001 50.1571 309.988 50.1371 309.961 50.1304C309.934 50.1237 309.911 50.1304 309.891 50.1504C309.384 50.8104 308.694 51.1404 307.821 51.1404C306.981 51.1404 306.258 50.9071 305.651 50.4404C305.044 49.9737 304.608 49.3337 304.341 48.5204C304.141 47.8937 304.041 47.1671 304.041 46.3404C304.041 45.4871 304.148 44.7437 304.361 44.1104C304.641 43.3371 305.078 42.7271 305.671 42.2804C306.264 41.8271 306.998 41.6004 307.871 41.6004C308.738 41.6004 309.411 41.9004 309.891 42.5004C309.911 42.5404 309.934 42.5537 309.961 42.5404C309.988 42.5271 310.001 42.5037 310.001 42.4704V38.6204ZM309.621 48.1904C309.861 47.7504 309.981 47.1437 309.981 46.3704C309.981 45.5704 309.848 44.9404 309.581 44.4804C309.308 44.0137 308.908 43.7804 308.381 43.7804C307.814 43.7804 307.388 44.0137 307.101 44.4804C306.801 44.9537 306.651 45.5904 306.651 46.3904C306.651 47.1104 306.778 47.7104 307.031 48.1904C307.331 48.7104 307.774 48.9704 308.361 48.9704C308.901 48.9704 309.321 48.7104 309.621 48.1904ZM322.631 45.4204C322.704 45.8737 322.728 46.3837 322.701 46.9504C322.694 47.0971 322.618 47.1704 322.471 47.1704H316.911C316.838 47.1704 316.814 47.2004 316.841 47.2604C316.874 47.5004 316.938 47.7404 317.031 47.9804C317.344 48.6471 317.981 48.9804 318.941 48.9804C319.708 48.9737 320.314 48.6637 320.761 48.0504C320.808 47.9771 320.861 47.9404 320.921 47.9404C320.961 47.9404 321.004 47.9637 321.051 48.0104L322.341 49.2904C322.401 49.3504 322.431 49.4037 322.431 49.4504C322.431 49.4771 322.408 49.5271 322.361 49.6004C321.968 50.0871 321.458 50.4671 320.831 50.7404C320.211 51.0071 319.528 51.1404 318.781 51.1404C317.748 51.1404 316.874 50.9071 316.161 50.4404C315.448 49.9737 314.934 49.3204 314.621 48.4804C314.368 47.8804 314.241 47.0937 314.241 46.1204C314.241 45.4604 314.331 44.8804 314.511 44.3804C314.791 43.5271 315.274 42.8471 315.961 42.3404C316.654 41.8404 317.474 41.5904 318.421 41.5904C319.621 41.5904 320.584 41.9371 321.311 42.6304C322.038 43.3237 322.478 44.2537 322.631 45.4204ZM318.441 43.7804C317.681 43.7804 317.181 44.1337 316.941 44.8404C316.894 45.0004 316.854 45.1937 316.821 45.4204C316.821 45.4804 316.851 45.5104 316.911 45.5104H320.021C320.094 45.5104 320.118 45.4804 320.091 45.4204C320.031 45.0737 320.001 44.9071 320.001 44.9204C319.894 44.5604 319.708 44.2804 319.441 44.0804C319.168 43.8804 318.834 43.7804 318.441 43.7804ZM328.881 41.6204C329.314 41.6204 329.654 41.7037 329.901 41.8704C330.001 41.9237 330.038 42.0137 330.011 42.1404L329.631 44.2004C329.624 44.3404 329.541 44.3804 329.381 44.3204C329.201 44.2604 328.991 44.2304 328.751 44.2304C328.658 44.2304 328.528 44.2437 328.361 44.2704C327.928 44.3037 327.561 44.4604 327.261 44.7404C326.961 45.0271 326.811 45.4037 326.811 45.8704V50.7804C326.811 50.8404 326.791 50.8937 326.751 50.9404C326.704 50.9804 326.651 51.0004 326.591 51.0004H324.491C324.431 51.0004 324.378 50.9804 324.331 50.9404C324.291 50.8937 324.271 50.8404 324.271 50.7804V41.9604C324.271 41.9004 324.291 41.8504 324.331 41.8104C324.378 41.7704 324.431 41.7504 324.491 41.7504H326.591C326.651 41.7504 326.704 41.7704 326.751 41.8104C326.791 41.8504 326.811 41.9004 326.811 41.9604V42.6504C326.811 42.6837 326.821 42.7071 326.841 42.7204C326.868 42.7337 326.888 42.7271 326.901 42.7004C327.394 41.9804 328.054 41.6204 328.881 41.6204Z" fill="#252530"/>
<path d="M287.2 66.4004C287.127 66.4004 287.08 66.3671 287.06 66.3004L285.24 59.5304L285.23 59.4904C285.23 59.4304 285.267 59.4004 285.34 59.4004H286.32C286.394 59.4004 286.44 59.4337 286.46 59.5004L287.6 64.0604C287.607 64.0804 287.617 64.0904 287.63 64.0904C287.644 64.0904 287.654 64.0804 287.66 64.0604L288.75 59.5004C288.77 59.4337 288.814 59.4004 288.88 59.4004H289.84C289.914 59.4004 289.96 59.4337 289.98 59.5004L291.14 64.0704C291.147 64.0904 291.157 64.1004 291.17 64.1004C291.184 64.1004 291.194 64.0904 291.2 64.0704L292.32 59.5004C292.34 59.4337 292.387 59.4004 292.46 59.4004H293.39C293.484 59.4004 293.52 59.4437 293.5 59.5304L291.77 66.3004C291.75 66.3671 291.704 66.4004 291.63 66.4004H290.7C290.627 66.4004 290.58 66.3671 290.56 66.3004L289.39 61.5304C289.384 61.5104 289.374 61.4971 289.36 61.4904C289.347 61.4904 289.337 61.5037 289.33 61.5304L288.21 66.3004C288.19 66.3671 288.147 66.4004 288.08 66.4004H287.2ZM294.61 66.4004C294.577 66.4004 294.547 66.3871 294.52 66.3604C294.5 66.3404 294.49 66.3137 294.49 66.2804V59.5204C294.49 59.4871 294.5 59.4604 294.52 59.4404C294.547 59.4137 294.577 59.4004 294.61 59.4004H295.53C295.564 59.4004 295.59 59.4137 295.61 59.4404C295.637 59.4604 295.65 59.4871 295.65 59.5204V66.2804C295.65 66.3137 295.637 66.3404 295.61 66.3604C295.59 66.3871 295.564 66.4004 295.53 66.4004H294.61ZM301.18 59.5204C301.18 59.4871 301.19 59.4604 301.21 59.4404C301.237 59.4137 301.267 59.4004 301.3 59.4004H302.22C302.254 59.4004 302.28 59.4137 302.3 59.4404C302.327 59.4604 302.34 59.4871 302.34 59.5204V66.2804C302.34 66.3137 302.327 66.3404 302.3 66.3604C302.28 66.3871 302.254 66.4004 302.22 66.4004H301.33C301.264 66.4004 301.217 66.3737 301.19 66.3204L298.31 61.6004C298.297 61.5804 298.284 61.5704 298.27 61.5704C298.257 61.5771 298.25 61.5937 298.25 61.6204L298.27 66.2804C298.27 66.3137 298.257 66.3404 298.23 66.3604C298.21 66.3871 298.184 66.4004 298.15 66.4004H297.23C297.197 66.4004 297.167 66.3871 297.14 66.3604C297.12 66.3404 297.11 66.3137 297.11 66.2804V59.5204C297.11 59.4871 297.12 59.4604 297.14 59.4404C297.167 59.4137 297.197 59.4004 297.23 59.4004H298.12C298.187 59.4004 298.234 59.4271 298.26 59.4804L301.13 64.2004C301.144 64.2204 301.157 64.2271 301.17 64.2204C301.184 64.2204 301.19 64.2071 301.19 64.1804L301.18 59.5204ZM308.4 59.4004C308.434 59.4004 308.46 59.4137 308.48 59.4404C308.507 59.4604 308.52 59.4871 308.52 59.5204V60.2904C308.52 60.3237 308.507 60.3504 308.48 60.3704C308.46 60.3971 308.434 60.4104 308.4 60.4104H306.56C306.527 60.4104 306.51 60.4271 306.51 60.4604V66.2804C306.51 66.3137 306.5 66.3404 306.48 66.3604C306.454 66.3871 306.424 66.4004 306.39 66.4004H305.47C305.437 66.4004 305.41 66.3871 305.39 66.3604C305.364 66.3404 305.35 66.3137 305.35 66.2804V60.4604C305.35 60.4271 305.334 60.4104 305.3 60.4104H303.53C303.497 60.4104 303.467 60.3971 303.44 60.3704C303.42 60.3504 303.41 60.3237 303.41 60.2904V59.5204C303.41 59.4871 303.42 59.4604 303.44 59.4404C303.467 59.4137 303.497 59.4004 303.53 59.4004H308.4ZM314.33 60.2804C314.33 60.3137 314.317 60.3404 314.29 60.3604C314.27 60.3871 314.244 60.4004 314.21 60.4004H310.8C310.767 60.4004 310.75 60.4171 310.75 60.4504V62.3204C310.75 62.3537 310.767 62.3704 310.8 62.3704H313.09C313.124 62.3704 313.154 62.3804 313.18 62.4004C313.2 62.4271 313.21 62.4571 313.21 62.4904V63.2504C313.21 63.2837 313.2 63.3137 313.18 63.3404C313.154 63.3604 313.124 63.3704 313.09 63.3704H310.8C310.767 63.3704 310.75 63.3871 310.75 63.4204V65.3504C310.75 65.3837 310.767 65.4004 310.8 65.4004H314.21C314.244 65.4004 314.27 65.4137 314.29 65.4404C314.317 65.4604 314.33 65.4871 314.33 65.5204V66.2804C314.33 66.3137 314.317 66.3404 314.29 66.3604C314.27 66.3871 314.244 66.4004 314.21 66.4004H309.71C309.677 66.4004 309.647 66.3871 309.62 66.3604C309.6 66.3404 309.59 66.3137 309.59 66.2804V59.5204C309.59 59.4871 309.6 59.4604 309.62 59.4404C309.647 59.4137 309.677 59.4004 309.71 59.4004H314.21C314.244 59.4004 314.27 59.4137 314.29 59.4404C314.317 59.4604 314.33 59.4871 314.33 59.5204V60.2804ZM319.44 66.4004C319.374 66.4004 319.327 66.3704 319.3 66.3104L317.98 63.4304C317.967 63.4037 317.947 63.3904 317.92 63.3904H316.72C316.687 63.3904 316.67 63.4071 316.67 63.4404V66.2804C316.67 66.3137 316.657 66.3404 316.63 66.3604C316.61 66.3871 316.584 66.4004 316.55 66.4004H315.63C315.597 66.4004 315.567 66.3871 315.54 66.3604C315.52 66.3404 315.51 66.3137 315.51 66.2804V59.5204C315.51 59.4871 315.52 59.4604 315.54 59.4404C315.567 59.4137 315.597 59.4004 315.63 59.4004H318.38C318.787 59.4004 319.147 59.4837 319.46 59.6504C319.774 59.8237 320.017 60.0637 320.19 60.3704C320.364 60.6837 320.45 61.0404 320.45 61.4404C320.45 61.9004 320.33 62.2904 320.09 62.6104C319.857 62.9371 319.53 63.1637 319.11 63.2904C319.097 63.2904 319.087 63.2971 319.08 63.3104C319.074 63.3237 319.074 63.3371 319.08 63.3504L320.49 66.2604C320.504 66.2871 320.51 66.3071 320.51 66.3204C320.51 66.3737 320.474 66.4004 320.4 66.4004H319.44ZM316.72 60.4004C316.687 60.4004 316.67 60.4171 316.67 60.4504V62.4404C316.67 62.4737 316.687 62.4904 316.72 62.4904H318.22C318.54 62.4904 318.8 62.3937 319 62.2004C319.194 62.0137 319.29 61.7637 319.29 61.4504C319.29 61.1371 319.194 60.8837 319 60.6904C318.8 60.4971 318.54 60.4004 318.22 60.4004H316.72Z" fill="white"/>
<path d="M289.489 84.4603C289.469 84.4803 289.463 84.5003 289.469 84.5203C289.483 84.5403 289.503 84.5503 289.529 84.5503H293.459C293.506 84.5503 293.546 84.5669 293.579 84.6003C293.619 84.6336 293.639 84.6736 293.639 84.7203V86.1303C293.639 86.1769 293.619 86.2169 293.579 86.2503C293.546 86.2836 293.506 86.3003 293.459 86.3003H286.939C286.886 86.3003 286.843 86.2836 286.809 86.2503C286.776 86.2169 286.759 86.1769 286.759 86.1303V84.7903C286.759 84.7036 286.789 84.6303 286.849 84.5703C287.323 84.1103 287.806 83.6069 288.299 83.0603C288.793 82.5136 289.103 82.1736 289.229 82.0403C289.496 81.7203 289.769 81.4136 290.049 81.1203C290.929 80.1469 291.369 79.4236 291.369 78.9503C291.369 78.6103 291.249 78.3303 291.009 78.1103C290.769 77.8969 290.456 77.7903 290.069 77.7903C289.683 77.7903 289.369 77.8969 289.129 78.1103C288.883 78.3303 288.759 78.6203 288.759 78.9803V79.3403C288.759 79.3869 288.743 79.4269 288.709 79.4603C288.676 79.4936 288.636 79.5103 288.589 79.5103H286.879C286.833 79.5103 286.793 79.4936 286.759 79.4603C286.719 79.4269 286.699 79.3869 286.699 79.3403V78.6603C286.733 78.1403 286.899 77.6769 287.199 77.2703C287.499 76.8703 287.896 76.5636 288.389 76.3503C288.889 76.1369 289.449 76.0303 290.069 76.0303C290.756 76.0303 291.353 76.1603 291.859 76.4203C292.366 76.6736 292.756 77.0169 293.029 77.4503C293.309 77.8903 293.449 78.3736 293.449 78.9003C293.449 79.3069 293.346 79.7236 293.139 80.1503C292.939 80.5769 292.636 81.0369 292.229 81.5303C291.929 81.9036 291.606 82.2769 291.259 82.6503C290.913 83.0169 290.396 83.5469 289.709 84.2403L289.489 84.4603ZM298.349 86.4603C297.283 86.4603 296.443 86.1636 295.829 85.5703C295.209 84.9769 294.899 84.1669 294.899 83.1403V79.3103C294.899 78.3036 295.209 77.5069 295.829 76.9203C296.443 76.3269 297.283 76.0303 298.349 76.0303C299.409 76.0303 300.253 76.3269 300.879 76.9203C301.499 77.5069 301.809 78.3036 301.809 79.3103V83.1403C301.809 84.1669 301.499 84.9769 300.879 85.5703C300.253 86.1636 299.409 86.4603 298.349 86.4603ZM298.349 84.7103C298.783 84.7103 299.126 84.5769 299.379 84.3103C299.639 84.0436 299.769 83.6869 299.769 83.2403V79.2503C299.769 78.8103 299.639 78.4569 299.379 78.1903C299.126 77.9236 298.783 77.7903 298.349 77.7903C297.923 77.7903 297.583 77.9236 297.329 78.1903C297.069 78.4569 296.939 78.8103 296.939 79.2503V83.2403C296.939 83.6869 297.069 84.0436 297.329 84.3103C297.583 84.5769 297.923 84.7103 298.349 84.7103ZM305.869 84.4603C305.849 84.4803 305.846 84.5003 305.859 84.5203C305.866 84.5403 305.886 84.5503 305.919 84.5503H309.849C309.896 84.5503 309.936 84.5669 309.969 84.6003C310.003 84.6336 310.019 84.6736 310.019 84.7203V86.1303C310.019 86.1769 310.003 86.2169 309.969 86.2503C309.936 86.2836 309.896 86.3003 309.849 86.3003H303.319C303.273 86.3003 303.233 86.2836 303.199 86.2503C303.166 86.2169 303.149 86.1769 303.149 86.1303V84.7903C303.149 84.7036 303.176 84.6303 303.229 84.5703C303.709 84.1103 304.193 83.6069 304.679 83.0603C305.173 82.5136 305.483 82.1736 305.609 82.0403C305.883 81.7203 306.159 81.4136 306.439 81.1203C307.319 80.1469 307.759 79.4236 307.759 78.9503C307.759 78.6103 307.639 78.3303 307.399 78.1103C307.153 77.8969 306.836 77.7903 306.449 77.7903C306.063 77.7903 305.749 77.8969 305.509 78.1103C305.269 78.3303 305.149 78.6203 305.149 78.9803V79.3403C305.149 79.3869 305.133 79.4269 305.099 79.4603C305.066 79.4936 305.023 79.5103 304.969 79.5103H303.259C303.213 79.5103 303.173 79.4936 303.139 79.4603C303.106 79.4269 303.089 79.3869 303.089 79.3403V78.6603C303.116 78.1403 303.279 77.6769 303.579 77.2703C303.879 76.8703 304.279 76.5636 304.779 76.3503C305.279 76.1369 305.836 76.0303 306.449 76.0303C307.136 76.0303 307.733 76.1603 308.239 76.4203C308.753 76.6736 309.146 77.0169 309.419 77.4503C309.693 77.8903 309.829 78.3736 309.829 78.9003C309.829 79.3069 309.729 79.7236 309.529 80.1503C309.323 80.5769 309.016 81.0369 308.609 81.5303C308.309 81.9036 307.986 82.2769 307.639 82.6503C307.293 83.0169 306.776 83.5469 306.089 84.2403L305.869 84.4603ZM318.529 81.8803C318.576 81.8803 318.619 81.8969 318.659 81.9303C318.693 81.9636 318.709 82.0036 318.709 82.0503V83.5203C318.709 83.5669 318.693 83.6069 318.659 83.6403C318.619 83.6736 318.576 83.6903 318.529 83.6903H317.909C317.863 83.6903 317.839 83.7136 317.839 83.7603V86.1303C317.839 86.1769 317.823 86.2169 317.789 86.2503C317.749 86.2836 317.706 86.3003 317.659 86.3003H315.969C315.916 86.3003 315.873 86.2836 315.839 86.2503C315.806 86.2169 315.789 86.1769 315.789 86.1303V83.7603C315.789 83.7136 315.766 83.6903 315.719 83.6903H311.269C311.223 83.6903 311.179 83.6736 311.139 83.6403C311.106 83.6069 311.089 83.5669 311.089 83.5203V82.3603C311.089 82.3003 311.106 82.2269 311.139 82.1403L313.749 76.2803C313.789 76.1936 313.856 76.1503 313.949 76.1503H315.759C315.826 76.1503 315.873 76.1669 315.899 76.2003C315.926 76.2336 315.923 76.2836 315.889 76.3503L313.469 81.7903C313.463 81.8103 313.463 81.8303 313.469 81.8503C313.483 81.8703 313.499 81.8803 313.519 81.8803H315.719C315.766 81.8803 315.789 81.8536 315.789 81.8003V80.0103C315.789 79.9569 315.806 79.9136 315.839 79.8803C315.873 79.8469 315.916 79.8303 315.969 79.8303H317.659C317.706 79.8303 317.749 79.8469 317.789 79.8803C317.823 79.9136 317.839 79.9569 317.839 80.0103V81.8003C317.839 81.8536 317.863 81.8803 317.909 81.8803H318.529Z" fill="#252530"/>
</g>
<g clip-path="url(#clip2_22168_9120)">
<path d="M8.09961 80.8998L47.5996 101L85.5996 80.8998V2.2998H8.09961V80.8998Z" fill="white"/>
<path d="M86.4008 2.59961L7.30078 82.2996L48.3008 102.6L86.4008 83.0996V2.59961Z" fill="#F2F3F2"/>
<path d="M5.5 28.5002V82.6002L6.9 83.3002L46.4 103.4L47.6 104L48.8 103.4L86.9 83.3002L88.3 82.6002V-0.299805H5.5V28.5002ZM8.1 81.1002V2.3002H85.7V81.1002L47.6 101.2L8.1 81.1002Z" fill="#DCDEDC"/>
<path d="M46.9008 3.6002C47.3008 3.6002 47.7008 3.6002 48.1008 3.7002L46.9008 6.0002C45.1008 5.9002 43.5008 7.3002 43.4008 9.1002C43.3008 10.9002 44.7008 12.5002 46.5008 12.6002H46.9008C47.7008 12.6002 48.5008 12.3002 49.1008 11.8002L50.4008 14.0002C49.4008 14.7002 48.2008 15.1002 46.9008 15.1002C43.7008 15.2002 41.0008 12.8002 40.9008 9.6002C40.8008 6.4002 43.2008 3.7002 46.4008 3.6002H46.9008ZM51.0008 8.5002L52.5008 11.0002L51.0008 13.4002L49.6008 11.0002H46.7008L48.2008 8.5002H51.0008ZM48.6008 7.6002C48.6008 7.2002 48.7008 6.8002 48.9008 6.5002C49.1008 6.2002 49.5008 5.9002 49.8008 5.7002L50.0008 5.6002C50.4008 5.4002 50.5008 5.3002 50.5008 5.1002C50.5008 4.9002 50.2008 4.7002 50.0008 4.7002C49.6008 4.7002 49.3008 4.9002 49.1008 5.3002L48.6008 4.8002C48.7008 4.6002 48.9008 4.4002 49.1008 4.2002C49.4008 4.0002 49.7008 4.0002 50.0008 4.0002C50.3008 4.0002 50.7008 4.1002 50.9008 4.3002C51.1008 4.5002 51.3008 4.8002 51.3008 5.1002C51.3008 5.6002 51.0008 6.0002 50.4008 6.2002L50.1008 6.4002C49.8008 6.6002 49.6008 6.7002 49.5008 7.0002H51.3008V7.7002L48.6008 7.6002ZM46.9008 20.1002L56.4008 14.7002V-0.299805H37.3008V14.6002L46.9008 20.1002Z" fill="#FF492C"/>
<path d="M90.2004 55.5H3.60039L0.400391 62.5L3.60039 69.5H90.2004L93.3004 62.5L90.2004 55.5Z" fill="#5A39A2"/>
<path d="M28.0803 51C27.9803 51 27.9103 50.9533 27.8703 50.86L26.0003 46.71C25.9803 46.67 25.9503 46.65 25.9103 46.65H24.5103C24.4636 46.65 24.4403 46.6767 24.4403 46.73V50.82C24.4403 50.8733 24.4236 50.9167 24.3903 50.95C24.3503 50.9833 24.307 51 24.2603 51H22.5003C22.4536 51 22.4136 50.9833 22.3803 50.95C22.3403 50.9167 22.3203 50.8733 22.3203 50.82V40.68C22.3203 40.6333 22.3403 40.59 22.3803 40.55C22.4136 40.5167 22.4536 40.5 22.5003 40.5H26.7903C27.4303 40.5 27.9936 40.63 28.4803 40.89C28.967 41.15 29.3436 41.52 29.6103 42C29.8703 42.48 30.0003 43.0367 30.0003 43.67C30.0003 44.35 29.8303 44.93 29.4903 45.41C29.1503 45.8967 28.677 46.24 28.0703 46.44C28.017 46.46 28.0003 46.4933 28.0203 46.54L30.0603 50.79C30.087 50.83 30.1003 50.86 30.1003 50.88C30.1003 50.96 30.0436 51 29.9303 51H28.0803ZM24.5103 42.31C24.4636 42.31 24.4403 42.3367 24.4403 42.39V44.96C24.4403 45.0067 24.4636 45.03 24.5103 45.03H26.4803C26.9003 45.03 27.2436 44.9067 27.5103 44.66C27.777 44.4067 27.9103 44.08 27.9103 43.68C27.9103 43.28 27.777 42.9533 27.5103 42.7C27.2436 42.44 26.9003 42.31 26.4803 42.31H24.5103ZM38.1203 46.35C38.1803 46.73 38.2003 47.1533 38.1803 47.62C38.167 47.7467 38.1003 47.81 37.9803 47.81H33.3503C33.2903 47.81 33.2703 47.8333 33.2903 47.88C33.317 48.08 33.3703 48.28 33.4503 48.48C33.7103 49.04 34.2403 49.32 35.0403 49.32C35.6803 49.3133 36.187 49.0533 36.5603 48.54C36.6003 48.48 36.6436 48.45 36.6903 48.45C36.7236 48.45 36.7603 48.47 36.8003 48.51L37.8803 49.57C37.927 49.6233 37.9503 49.67 37.9503 49.71C37.9503 49.73 37.9303 49.77 37.8903 49.83C37.5636 50.2433 37.1403 50.56 36.6203 50.78C36.1003 51.0067 35.5303 51.12 34.9103 51.12C34.0503 51.12 33.3236 50.9267 32.7303 50.54C32.1303 50.1467 31.7003 49.6 31.4403 48.9C31.2336 48.4 31.1303 47.7467 31.1303 46.94C31.1303 46.3867 31.2036 45.9 31.3503 45.48C31.5836 44.7733 31.987 44.21 32.5603 43.79C33.1336 43.37 33.817 43.16 34.6103 43.16C35.6103 43.16 36.4136 43.45 37.0203 44.03C37.627 44.61 37.9936 45.3833 38.1203 46.35ZM34.6203 44.99C33.9936 44.99 33.5803 45.2833 33.3803 45.87C33.3403 46.0033 33.3036 46.1633 33.2703 46.35C33.2703 46.3967 33.297 46.42 33.3503 46.42H35.9403C36.0003 46.42 36.0203 46.3967 36.0003 46.35C35.9536 46.0633 35.9303 45.9233 35.9303 45.93C35.837 45.63 35.6803 45.3967 35.4603 45.23C35.2336 45.07 34.9536 44.99 34.6203 44.99ZM42.4503 51.1C41.7836 51.1 41.2003 51.0067 40.7003 50.82C40.2003 50.6333 39.8136 50.37 39.5403 50.03C39.2603 49.69 39.1203 49.3033 39.1203 48.87V48.72C39.1203 48.6733 39.1403 48.63 39.1803 48.59C39.2136 48.5567 39.2536 48.54 39.3003 48.54H40.9703C41.017 48.54 41.0603 48.5567 41.1003 48.59C41.1336 48.63 41.1503 48.6733 41.1503 48.72V48.73C41.1503 48.9567 41.2736 49.1467 41.5203 49.3C41.7603 49.4533 42.067 49.53 42.4403 49.53C42.7803 49.53 43.0536 49.4633 43.2603 49.33C43.4736 49.19 43.5803 49.0233 43.5803 48.83C43.5803 48.65 43.4903 48.5133 43.3103 48.42C43.1303 48.3333 42.8336 48.24 42.4203 48.14C41.9536 48.02 41.5836 47.9033 41.3103 47.79C40.6703 47.57 40.1603 47.3 39.7803 46.98C39.4003 46.66 39.2103 46.2 39.2103 45.6C39.2103 44.86 39.5003 44.2733 40.0803 43.84C40.6536 43.4067 41.4136 43.19 42.3603 43.19C43.0003 43.19 43.5603 43.29 44.0403 43.49C44.5203 43.6967 44.8936 43.9867 45.1603 44.36C45.427 44.7267 45.5603 45.1467 45.5603 45.62C45.5603 45.6667 45.5436 45.7067 45.5103 45.74C45.4703 45.7733 45.427 45.79 45.3803 45.79H43.7703C43.7236 45.79 43.6836 45.7733 43.6503 45.74C43.6103 45.7067 43.5903 45.6667 43.5903 45.62C43.5903 45.4 43.4803 45.2133 43.2603 45.06C43.0336 44.9067 42.7336 44.83 42.3603 44.83C42.0336 44.83 41.7636 44.8933 41.5503 45.02C41.3436 45.14 41.2403 45.3033 41.2403 45.51C41.2403 45.71 41.3436 45.86 41.5503 45.96C41.7503 46.06 42.0903 46.1667 42.5703 46.28L42.9503 46.37C43.0903 46.4033 43.2403 46.4467 43.4003 46.5C44.107 46.7133 44.667 46.9833 45.0803 47.31C45.487 47.6433 45.6903 48.1233 45.6903 48.75C45.6903 49.49 45.4003 50.0667 44.8203 50.48C44.2336 50.8933 43.4436 51.1 42.4503 51.1ZM51.4103 43.47C51.4103 43.4233 51.427 43.38 51.4603 43.34C51.4936 43.3067 51.537 43.29 51.5903 43.29H53.3403C53.3936 43.29 53.437 43.3067 53.4703 43.34C53.5036 43.38 53.5203 43.4233 53.5203 43.47V50.82C53.5203 50.8733 53.5036 50.9167 53.4703 50.95C53.437 50.9833 53.3936 51 53.3403 51H51.5903C51.537 51 51.4936 50.9833 51.4603 50.95C51.427 50.9167 51.4103 50.8733 51.4103 50.82V50.31C51.4103 50.2833 51.4003 50.2667 51.3803 50.26C51.3603 50.2533 51.3403 50.2667 51.3203 50.3C50.9203 50.8333 50.3003 51.1 49.4603 51.1C48.7003 51.1 48.0736 50.8733 47.5803 50.42C47.0936 49.96 46.8503 49.3133 46.8503 48.48V43.47C46.8503 43.4233 46.867 43.38 46.9003 43.34C46.9336 43.3067 46.977 43.29 47.0303 43.29H48.7703C48.817 43.29 48.8603 43.3067 48.9003 43.34C48.9336 43.38 48.9503 43.4233 48.9503 43.47V47.96C48.9503 48.36 49.057 48.6833 49.2703 48.93C49.4836 49.1833 49.7803 49.31 50.1603 49.31C50.507 49.31 50.787 49.2067 51.0003 49C51.2203 48.7933 51.357 48.5267 51.4103 48.2V43.47ZM55.2603 51C55.2136 51 55.1736 50.9833 55.1403 50.95C55.1003 50.9167 55.0803 50.8733 55.0803 50.82V40.68C55.0803 40.6333 55.1003 40.59 55.1403 40.55C55.1736 40.5167 55.2136 40.5 55.2603 40.5H57.0203C57.067 40.5 57.1103 40.5167 57.1503 40.55C57.1836 40.59 57.2003 40.6333 57.2003 40.68V50.82C57.2003 50.8733 57.1836 50.9167 57.1503 50.95C57.1103 50.9833 57.067 51 57.0203 51H55.2603ZM63.1703 44.81C63.1703 44.8567 63.1536 44.8967 63.1203 44.93C63.0803 44.97 63.037 44.99 62.9903 44.99H61.5503C61.497 44.99 61.4703 45.0133 61.4703 45.06V48.24C61.4703 48.5667 61.5403 48.8133 61.6803 48.98C61.8136 49.14 62.0303 49.22 62.3303 49.22H62.8203C62.8736 49.22 62.917 49.2367 62.9503 49.27C62.9836 49.3033 63.0003 49.3467 63.0003 49.4V50.82C63.0003 50.9333 62.9403 50.9967 62.8203 51.01C62.4003 51.03 62.1003 51.04 61.9203 51.04C61.0936 51.04 60.4736 50.9033 60.0603 50.63C59.6536 50.3567 59.4436 49.84 59.4303 49.08V45.06C59.4303 45.0133 59.407 44.99 59.3603 44.99H58.5003C58.4536 44.99 58.4136 44.97 58.3803 44.93C58.3403 44.8967 58.3203 44.8567 58.3203 44.81V43.47C58.3203 43.4233 58.3403 43.38 58.3803 43.34C58.4136 43.3067 58.4536 43.29 58.5003 43.29H59.3603C59.407 43.29 59.4303 43.2633 59.4303 43.21V41.43C59.4303 41.3833 59.4503 41.34 59.4903 41.3C59.5236 41.2667 59.5636 41.25 59.6103 41.25H61.2903C61.3436 41.25 61.387 41.2667 61.4203 41.3C61.4536 41.34 61.4703 41.3833 61.4703 41.43V43.21C61.4703 43.2633 61.497 43.29 61.5503 43.29H62.9903C63.037 43.29 63.0803 43.3067 63.1203 43.34C63.1536 43.38 63.1703 43.4233 63.1703 43.47V44.81ZM67.5203 51.1C66.847 51.1 66.2603 51.0067 65.7603 50.82C65.2603 50.6333 64.8736 50.37 64.6003 50.03C64.327 49.69 64.1903 49.3033 64.1903 48.87V48.72C64.1903 48.6733 64.207 48.63 64.2403 48.59C64.2736 48.5567 64.317 48.54 64.3703 48.54H66.0303C66.0836 48.54 66.127 48.5567 66.1603 48.59C66.1936 48.63 66.2103 48.6733 66.2103 48.72V48.73C66.2103 48.9567 66.3336 49.1467 66.5803 49.3C66.827 49.4533 67.1336 49.53 67.5003 49.53C67.8403 49.53 68.117 49.4633 68.3303 49.33C68.537 49.19 68.6403 49.0233 68.6403 48.83C68.6403 48.65 68.5503 48.5133 68.3703 48.42C68.1903 48.3333 67.897 48.24 67.4903 48.14C67.017 48.02 66.647 47.9033 66.3803 47.79C65.7403 47.57 65.2303 47.3 64.8503 46.98C64.4703 46.66 64.2803 46.2 64.2803 45.6C64.2803 44.86 64.567 44.2733 65.1403 43.84C65.7136 43.4067 66.477 43.19 67.4303 43.19C68.0703 43.19 68.6303 43.29 69.1103 43.49C69.5903 43.6967 69.9636 43.9867 70.2303 44.36C70.4903 44.7267 70.6203 45.1467 70.6203 45.62C70.6203 45.6667 70.6036 45.7067 70.5703 45.74C70.537 45.7733 70.4936 45.79 70.4403 45.79H68.8403C68.787 45.79 68.7436 45.7733 68.7103 45.74C68.677 45.7067 68.6603 45.6667 68.6603 45.62C68.6603 45.4 68.547 45.2133 68.3203 45.06C68.0936 44.9067 67.797 44.83 67.4303 44.83C67.097 44.83 66.827 44.8933 66.6203 45.02C66.407 45.14 66.3003 45.3033 66.3003 45.51C66.3003 45.71 66.4036 45.86 66.6103 45.96C66.817 46.06 67.1603 46.1667 67.6403 46.28C67.747 46.3067 67.8703 46.3367 68.0103 46.37C68.1503 46.4033 68.3003 46.4467 68.4603 46.5C69.1736 46.7133 69.7336 46.9833 70.1403 47.31C70.5536 47.6433 70.7603 48.1233 70.7603 48.75C70.7603 49.49 70.467 50.0667 69.8803 50.48C69.2936 50.8933 68.507 51.1 67.5203 51.1ZM38.1703 30.53C38.1103 30.5567 38.1103 30.5867 38.1703 30.62C39.117 31.1067 39.5903 31.92 39.5903 33.06C39.5903 34.0333 39.2603 34.7667 38.6003 35.26C37.9403 35.7533 37.077 36 36.0103 36H32.1203C32.0736 36 32.0336 35.9833 32.0003 35.95C31.9603 35.9167 31.9403 35.8733 31.9403 35.82V25.68C31.9403 25.6333 31.9603 25.59 32.0003 25.55C32.0336 25.5167 32.0736 25.5 32.1203 25.5H35.8903C38.257 25.5 39.4403 26.46 39.4403 28.38C39.4403 29.38 39.017 30.0967 38.1703 30.53ZM34.1303 27.31C34.0836 27.31 34.0603 27.3367 34.0603 27.39V29.73C34.0603 29.7833 34.0836 29.81 34.1303 29.81H35.8903C36.357 29.81 36.7236 29.7 36.9903 29.48C37.2436 29.26 37.3703 28.96 37.3703 28.58C37.3703 28.1867 37.2436 27.8767 36.9903 27.65C36.7236 27.4233 36.357 27.31 35.8903 27.31H34.1303ZM36.0103 34.17C36.4703 34.17 36.8303 34.0533 37.0903 33.82C37.3503 33.5867 37.4803 33.2633 37.4803 32.85C37.4803 32.4433 37.3503 32.12 37.0903 31.88C36.8303 31.6467 36.4636 31.53 35.9903 31.53H34.1303C34.0836 31.53 34.0603 31.5567 34.0603 31.61V34.09C34.0603 34.1433 34.0836 34.17 34.1303 34.17H36.0103ZM47.9303 31.35C47.9903 31.73 48.0103 32.1533 47.9903 32.62C47.9836 32.7467 47.9203 32.81 47.8003 32.81H43.1603C43.1003 32.81 43.0803 32.8333 43.1003 32.88C43.1336 33.08 43.1903 33.28 43.2703 33.48C43.5303 34.04 44.0603 34.32 44.8603 34.32C45.5003 34.3133 46.0036 34.0533 46.3703 33.54C46.4103 33.48 46.457 33.45 46.5103 33.45C46.537 33.45 46.5703 33.47 46.6103 33.51L47.6903 34.57C47.7436 34.6233 47.7703 34.67 47.7703 34.71C47.7703 34.73 47.7503 34.77 47.7103 34.83C47.377 35.2433 46.9503 35.56 46.4303 35.78C45.917 36.0067 45.347 36.12 44.7203 36.12C43.8603 36.12 43.1336 35.9267 42.5403 35.54C41.947 35.1467 41.5203 34.6 41.2603 33.9C41.047 33.4 40.9403 32.7467 40.9403 31.94C40.9403 31.3867 41.017 30.9 41.1703 30.48C41.397 29.7733 41.8003 29.21 42.3803 28.79C42.9536 28.37 43.6336 28.16 44.4203 28.16C45.4203 28.16 46.2236 28.45 46.8303 29.03C47.437 29.61 47.8036 30.3833 47.9303 31.35ZM44.4403 29.99C43.807 29.99 43.3903 30.2833 43.1903 30.87C43.1503 31.0033 43.117 31.1633 43.0903 31.35C43.0903 31.3967 43.1136 31.42 43.1603 31.42H45.7603C45.8203 31.42 45.8403 31.3967 45.8203 31.35C45.767 31.0633 45.7403 30.9233 45.7403 30.93C45.6536 30.63 45.497 30.3967 45.2703 30.23C45.0436 30.07 44.767 29.99 44.4403 29.99ZM52.2703 36.1C51.597 36.1 51.0103 36.0067 50.5103 35.82C50.0103 35.6333 49.6236 35.37 49.3503 35.03C49.077 34.69 48.9403 34.3033 48.9403 33.87V33.72C48.9403 33.6733 48.957 33.63 48.9903 33.59C49.0236 33.5567 49.067 33.54 49.1203 33.54H50.7803C50.8336 33.54 50.877 33.5567 50.9103 33.59C50.9436 33.63 50.9603 33.6733 50.9603 33.72V33.73C50.9603 33.9567 51.0836 34.1467 51.3303 34.3C51.577 34.4533 51.8836 34.53 52.2503 34.53C52.5903 34.53 52.867 34.4633 53.0803 34.33C53.287 34.19 53.3903 34.0233 53.3903 33.83C53.3903 33.65 53.3003 33.5133 53.1203 33.42C52.9403 33.3333 52.647 33.24 52.2403 33.14C51.767 33.02 51.397 32.9033 51.1303 32.79C50.4903 32.57 49.9803 32.3 49.6003 31.98C49.2203 31.66 49.0303 31.2 49.0303 30.6C49.0303 29.86 49.317 29.2733 49.8903 28.84C50.4636 28.4067 51.227 28.19 52.1803 28.19C52.8203 28.19 53.3803 28.29 53.8603 28.49C54.3403 28.6967 54.7136 28.9867 54.9803 29.36C55.2403 29.7267 55.3703 30.1467 55.3703 30.62C55.3703 30.6667 55.3536 30.7067 55.3203 30.74C55.287 30.7733 55.2436 30.79 55.1903 30.79H53.5903C53.537 30.79 53.4936 30.7733 53.4603 30.74C53.427 30.7067 53.4103 30.6667 53.4103 30.62C53.4103 30.4 53.297 30.2133 53.0703 30.06C52.8436 29.9067 52.547 29.83 52.1803 29.83C51.847 29.83 51.577 29.8933 51.3703 30.02C51.157 30.14 51.0503 30.3033 51.0503 30.51C51.0503 30.71 51.1536 30.86 51.3603 30.96C51.567 31.06 51.9103 31.1667 52.3903 31.28C52.497 31.3067 52.6203 31.3367 52.7603 31.37C52.9003 31.4033 53.0503 31.4467 53.2103 31.5C53.9236 31.7133 54.4836 31.9833 54.8903 32.31C55.3036 32.6433 55.5103 33.1233 55.5103 33.75C55.5103 34.49 55.217 35.0667 54.6303 35.48C54.0436 35.8933 53.257 36.1 52.2703 36.1ZM61.1303 29.81C61.1303 29.8567 61.1136 29.8967 61.0803 29.93C61.047 29.97 61.0036 29.99 60.9503 29.99H59.5103C59.4636 29.99 59.4403 30.0133 59.4403 30.06V33.24C59.4403 33.5667 59.507 33.8133 59.6403 33.98C59.7736 34.14 59.9936 34.22 60.3003 34.22H60.7903C60.837 34.22 60.8803 34.2367 60.9203 34.27C60.9536 34.3033 60.9703 34.3467 60.9703 34.4V35.82C60.9703 35.9333 60.9103 35.9967 60.7903 36.01C60.3703 36.03 60.0703 36.04 59.8903 36.04C59.057 36.04 58.437 35.9033 58.0303 35.63C57.617 35.3567 57.407 34.84 57.4003 34.08V30.06C57.4003 30.0133 57.3736 29.99 57.3203 29.99H56.4703C56.417 29.99 56.3736 29.97 56.3403 29.93C56.307 29.8967 56.2903 29.8567 56.2903 29.81V28.47C56.2903 28.4233 56.307 28.38 56.3403 28.34C56.3736 28.3067 56.417 28.29 56.4703 28.29H57.3203C57.3736 28.29 57.4003 28.2633 57.4003 28.21V26.43C57.4003 26.3833 57.417 26.34 57.4503 26.3C57.4836 26.2667 57.527 26.25 57.5803 26.25H59.2603C59.307 26.25 59.3503 26.2667 59.3903 26.3C59.4236 26.34 59.4403 26.3833 59.4403 26.43V28.21C59.4403 28.2633 59.4636 28.29 59.5103 28.29H60.9503C61.0036 28.29 61.047 28.3067 61.0803 28.34C61.1136 28.38 61.1303 28.4233 61.1303 28.47V29.81Z" fill="#252530"/>
<path d="M16.9001 66.4799C16.3801 66.4799 15.9267 66.3966 15.5401 66.2299C15.1534 66.0633 14.8534 65.8299 14.6401 65.5299C14.4334 65.2299 14.3301 64.8766 14.3301 64.4699V64.2199C14.3301 64.1866 14.3434 64.1566 14.3701 64.1299C14.3901 64.1099 14.4167 64.0999 14.4501 64.0999H15.3401C15.3734 64.0999 15.4034 64.1099 15.4301 64.1299C15.4501 64.1566 15.4601 64.1866 15.4601 64.2199V64.4099C15.4601 64.7166 15.5967 64.9699 15.8701 65.1699C16.1434 65.3766 16.5167 65.4799 16.9901 65.4799C17.3967 65.4799 17.7034 65.3933 17.9101 65.2199C18.1167 65.0466 18.2201 64.8233 18.2201 64.5499C18.2201 64.3633 18.1634 64.2033 18.0501 64.0699C17.9367 63.9433 17.7767 63.8266 17.5701 63.7199C17.3567 63.6133 17.0401 63.4799 16.6201 63.3199C16.1467 63.1466 15.7634 62.9833 15.4701 62.8299C15.1767 62.6766 14.9334 62.4666 14.7401 62.1999C14.5401 61.9399 14.4401 61.6133 14.4401 61.2199C14.4401 60.6333 14.6534 60.1699 15.0801 59.8299C15.5067 59.4899 16.0767 59.3199 16.7901 59.3199C17.2901 59.3199 17.7334 59.4066 18.1201 59.5799C18.5001 59.7533 18.7967 59.9966 19.0101 60.3099C19.2234 60.6166 19.3301 60.9733 19.3301 61.3799V61.5499C19.3301 61.5833 19.3167 61.6133 19.2901 61.6399C19.2701 61.6599 19.2434 61.6699 19.2101 61.6699H18.3101C18.2767 61.6699 18.2501 61.6599 18.2301 61.6399C18.2034 61.6133 18.1901 61.5833 18.1901 61.5499V61.4399C18.1901 61.1266 18.0634 60.8633 17.8101 60.6499C17.5501 60.4299 17.1934 60.3199 16.7401 60.3199C16.3734 60.3199 16.0901 60.3966 15.8901 60.5499C15.6834 60.7033 15.5801 60.9199 15.5801 61.1999C15.5801 61.3999 15.6334 61.5633 15.7401 61.6899C15.8467 61.8166 16.0067 61.9299 16.2201 62.0299C16.4334 62.1366 16.7634 62.2699 17.2101 62.4299C17.6834 62.6099 18.0634 62.7733 18.3501 62.9199C18.6301 63.0666 18.8734 63.2699 19.0801 63.5299C19.2801 63.7966 19.3801 64.1266 19.3801 64.5199C19.3801 65.1199 19.1567 65.5966 18.7101 65.9499C18.2701 66.3033 17.6667 66.4799 16.9001 66.4799ZM25.9101 61.2099C26.4234 61.2099 26.8267 61.3633 27.1201 61.6699C27.4067 61.9833 27.5501 62.4166 27.5501 62.9699V66.2799C27.5501 66.3133 27.5401 66.3399 27.5201 66.3599C27.4934 66.3866 27.4634 66.3999 27.4301 66.3999H26.5201C26.4867 66.3999 26.4601 66.3866 26.4401 66.3599C26.4134 66.3399 26.4001 66.3133 26.4001 66.2799V63.2099C26.4001 62.9033 26.3201 62.6599 26.1601 62.4799C25.9934 62.2999 25.7734 62.2099 25.5001 62.2099C25.2267 62.2099 25.0034 62.2999 24.8301 62.4799C24.6567 62.6599 24.5701 62.8999 24.5701 63.1999V66.2799C24.5701 66.3133 24.5601 66.3399 24.5401 66.3599C24.5134 66.3866 24.4834 66.3999 24.4501 66.3999H23.5401C23.5067 66.3999 23.4767 66.3866 23.4501 66.3599C23.4301 66.3399 23.4201 66.3133 23.4201 66.2799V63.2099C23.4201 62.9033 23.3367 62.6599 23.1701 62.4799C23.0034 62.2999 22.7834 62.2099 22.5101 62.2099C22.2567 62.2099 22.0467 62.2833 21.8801 62.4299C21.7201 62.5766 21.6267 62.7766 21.6001 63.0299V66.2799C21.6001 66.3133 21.5901 66.3399 21.5701 66.3599C21.5434 66.3866 21.5134 66.3999 21.4801 66.3999H20.5601C20.5267 66.3999 20.5001 66.3866 20.4801 66.3599C20.4534 66.3399 20.4401 66.3133 20.4401 66.2799V61.4099C20.4401 61.3766 20.4534 61.3466 20.4801 61.3199C20.5001 61.2999 20.5267 61.2899 20.5601 61.2899H21.4801C21.5134 61.2899 21.5434 61.2999 21.5701 61.3199C21.5901 61.3466 21.6001 61.3766 21.6001 61.4099V61.7399C21.6001 61.7599 21.6067 61.7733 21.6201 61.7799C21.6334 61.7866 21.6467 61.7799 21.6601 61.7599C21.8067 61.5733 21.9867 61.4366 22.2001 61.3499C22.4201 61.2566 22.6634 61.2099 22.9301 61.2099C23.2567 61.2099 23.5434 61.2766 23.7901 61.4099C24.0367 61.5433 24.2267 61.7366 24.3601 61.9899C24.3801 62.0166 24.4034 62.0166 24.4301 61.9899C24.5767 61.7233 24.7801 61.5266 25.0401 61.3999C25.3001 61.2733 25.5901 61.2099 25.9101 61.2099ZM30.6801 61.2099C31.1001 61.2099 31.4701 61.2833 31.7901 61.4299C32.1101 61.5766 32.3567 61.7766 32.5301 62.0299C32.7034 62.2899 32.7901 62.5833 32.7901 62.9099V66.2799C32.7901 66.3133 32.7801 66.3399 32.7601 66.3599C32.7334 66.3866 32.7034 66.3999 32.6701 66.3999H31.7501C31.7167 66.3999 31.6901 66.3866 31.6701 66.3599C31.6434 66.3399 31.6301 66.3133 31.6301 66.2799V65.9599C31.6301 65.9399 31.6234 65.9266 31.6101 65.9199C31.5967 65.9199 31.5834 65.9266 31.5701 65.9399C31.2434 66.2999 30.7701 66.4799 30.1501 66.4799C29.6501 66.4799 29.2401 66.3533 28.9201 66.0999C28.5934 65.8466 28.4301 65.4699 28.4301 64.9699C28.4301 64.4499 28.6134 64.0433 28.9801 63.7499C29.3401 63.4633 29.8501 63.3199 30.5101 63.3199H31.5801C31.6134 63.3199 31.6301 63.3033 31.6301 63.2699V63.0299C31.6301 62.7699 31.5534 62.5666 31.4001 62.4199C31.2467 62.2799 31.0167 62.2099 30.7101 62.2099C30.4567 62.2099 30.2534 62.2566 30.1001 62.3499C29.9401 62.4366 29.8401 62.5599 29.8001 62.7199C29.7801 62.7999 29.7334 62.8333 29.6601 62.8199L28.6901 62.6999C28.6567 62.6933 28.6301 62.6833 28.6101 62.6699C28.5834 62.6499 28.5734 62.6266 28.5801 62.5999C28.6334 62.1933 28.8534 61.8599 29.2401 61.5999C29.6201 61.3399 30.1001 61.2099 30.6801 61.2099ZM30.4401 65.5599C30.7667 65.5599 31.0467 65.4733 31.2801 65.2999C31.5134 65.1266 31.6301 64.9066 31.6301 64.6399V64.1699C31.6301 64.1366 31.6134 64.1199 31.5801 64.1199H30.7401C30.3867 64.1199 30.1101 64.1866 29.9101 64.3199C29.7034 64.4533 29.6001 64.6433 29.6001 64.8899C29.6001 65.1033 29.6801 65.2666 29.8401 65.3799C29.9934 65.4999 30.1934 65.5599 30.4401 65.5599ZM34.0701 66.3999C34.0367 66.3999 34.0101 66.3866 33.9901 66.3599C33.9634 66.3399 33.9501 66.3133 33.9501 66.2799V59.5199C33.9501 59.4866 33.9634 59.4599 33.9901 59.4399C34.0101 59.4133 34.0367 59.3999 34.0701 59.3999H34.9901C35.0234 59.3999 35.0534 59.4133 35.0801 59.4399C35.1001 59.4599 35.1101 59.4866 35.1101 59.5199V66.2799C35.1101 66.3133 35.1001 66.3399 35.0801 66.3599C35.0534 66.3866 35.0234 66.3999 34.9901 66.3999H34.0701ZM36.4601 66.3999C36.4267 66.3999 36.4001 66.3866 36.3801 66.3599C36.3534 66.3399 36.3401 66.3133 36.3401 66.2799V59.5199C36.3401 59.4866 36.3534 59.4599 36.3801 59.4399C36.4001 59.4133 36.4267 59.3999 36.4601 59.3999H37.3801C37.4134 59.3999 37.4434 59.4133 37.4701 59.4399C37.4901 59.4599 37.5001 59.4866 37.5001 59.5199V66.2799C37.5001 66.3133 37.4901 66.3399 37.4701 66.3599C37.4434 66.3866 37.4134 66.3999 37.3801 66.3999H36.4601ZM44.7501 62.7499C44.7101 62.7699 44.7101 62.7899 44.7501 62.8099C45.4301 63.1299 45.7701 63.6799 45.7701 64.4599C45.7701 65.0933 45.5601 65.5766 45.1401 65.9099C44.7134 66.2366 44.1601 66.3999 43.4801 66.3999H40.9601C40.9267 66.3999 40.9001 66.3866 40.8801 66.3599C40.8534 66.3399 40.8401 66.3133 40.8401 66.2799V59.5199C40.8401 59.4866 40.8534 59.4599 40.8801 59.4399C40.9001 59.4133 40.9267 59.3999 40.9601 59.3999H43.4001C44.1267 59.3999 44.6867 59.5566 45.0801 59.8699C45.4734 60.1833 45.6701 60.6566 45.6701 61.2899C45.6701 61.9899 45.3634 62.4766 44.7501 62.7499ZM42.0501 60.3999C42.0167 60.3999 42.0001 60.4166 42.0001 60.4499V62.2999C42.0001 62.3333 42.0167 62.3499 42.0501 62.3499H43.4001C43.7534 62.3499 44.0334 62.2666 44.2401 62.0999C44.4401 61.9266 44.5401 61.6899 44.5401 61.3899C44.5401 61.0833 44.4401 60.8399 44.2401 60.6599C44.0334 60.4866 43.7534 60.3999 43.4001 60.3999H42.0501ZM43.4801 65.3899C43.8267 65.3899 44.1034 65.2966 44.3101 65.1099C44.5101 64.9233 44.6101 64.6699 44.6101 64.3499C44.6101 64.0233 44.5067 63.7699 44.3001 63.5899C44.0934 63.4033 43.8134 63.3099 43.4601 63.3099H42.0501C42.0167 63.3099 42.0001 63.3266 42.0001 63.3599V65.3399C42.0001 65.3733 42.0167 65.3899 42.0501 65.3899H43.4801ZM49.8801 61.4099C49.8801 61.3766 49.8901 61.3466 49.9101 61.3199C49.9367 61.2999 49.9667 61.2899 50.0001 61.2899H50.9101C50.9434 61.2899 50.9734 61.2999 51.0001 61.3199C51.0201 61.3466 51.0301 61.3766 51.0301 61.4099V66.2799C51.0301 66.3133 51.0201 66.3399 51.0001 66.3599C50.9734 66.3866 50.9434 66.3999 50.9101 66.3999H50.0001C49.9667 66.3999 49.9367 66.3866 49.9101 66.3599C49.8901 66.3399 49.8801 66.3133 49.8801 66.2799V65.9599C49.8801 65.9399 49.8734 65.9266 49.8601 65.9199C49.8467 65.9133 49.8334 65.9199 49.8201 65.9399C49.5467 66.2933 49.1367 66.4699 48.5901 66.4699C48.0834 66.4699 47.6601 66.3233 47.3201 66.0299C46.9734 65.7366 46.8001 65.3199 46.8001 64.7799V61.4099C46.8001 61.3766 46.8101 61.3466 46.8301 61.3199C46.8567 61.2999 46.8867 61.2899 46.9201 61.2899H47.8401C47.8734 61.2899 47.9034 61.2999 47.9301 61.3199C47.9501 61.3466 47.9601 61.3766 47.9601 61.4099V64.4499C47.9601 64.7633 48.0434 65.0133 48.2101 65.1999C48.3701 65.3866 48.5967 65.4799 48.8901 65.4799C49.1901 65.4799 49.4301 65.3866 49.6101 65.1999C49.7901 65.0133 49.8801 64.7633 49.8801 64.4499V61.4099ZM54.1701 66.4599C53.7501 66.4599 53.3801 66.3966 53.0601 66.2699C52.7467 66.1499 52.5034 65.9799 52.3301 65.7599C52.1567 65.5466 52.0701 65.3066 52.0701 65.0399V64.9499C52.0701 64.9166 52.0801 64.8866 52.1001 64.8599C52.1267 64.8399 52.1567 64.8299 52.1901 64.8299H53.0701C53.1034 64.8299 53.1301 64.8399 53.1501 64.8599C53.1767 64.8866 53.1901 64.9166 53.1901 64.9499V64.9699C53.1901 65.1366 53.2801 65.2833 53.4601 65.4099C53.6467 65.5299 53.8801 65.5899 54.1601 65.5899C54.4267 65.5899 54.6434 65.5366 54.8101 65.4299C54.9767 65.3166 55.0601 65.1766 55.0601 65.0099C55.0601 64.8566 54.9901 64.7399 54.8501 64.6599C54.7167 64.5866 54.4967 64.5066 54.1901 64.4199L53.8101 64.2999C53.4701 64.1999 53.1834 64.0933 52.9501 63.9799C52.7167 63.8666 52.5201 63.7099 52.3601 63.5099C52.2001 63.3166 52.1201 63.0666 52.1201 62.7599C52.1201 62.2933 52.3034 61.9233 52.6701 61.6499C53.0367 61.3699 53.5201 61.2299 54.1201 61.2299C54.5267 61.2299 54.8834 61.2933 55.1901 61.4199C55.4967 61.5533 55.7334 61.7333 55.9001 61.9599C56.0667 62.1933 56.1501 62.4566 56.1501 62.7499C56.1501 62.7833 56.1367 62.8133 56.1101 62.8399C56.0901 62.8599 56.0634 62.8699 56.0301 62.8699H55.1801C55.1467 62.8699 55.1167 62.8599 55.0901 62.8399C55.0701 62.8133 55.0601 62.7833 55.0601 62.7499C55.0601 62.5766 54.9734 62.4333 54.8001 62.3199C54.6334 62.1999 54.4034 62.1399 54.1101 62.1399C53.8501 62.1399 53.6367 62.1866 53.4701 62.2799C53.3101 62.3799 53.2301 62.5166 53.2301 62.6899C53.2301 62.8499 53.3067 62.9699 53.4601 63.0499C53.6201 63.1366 53.8834 63.2299 54.2501 63.3299L54.4701 63.3899C54.8234 63.4966 55.1201 63.6033 55.3601 63.7099C55.6001 63.8233 55.8034 63.9766 55.9701 64.1699C56.1367 64.3699 56.2201 64.6266 56.2201 64.9399C56.2201 65.4133 56.0334 65.7833 55.6601 66.0499C55.2867 66.3233 54.7901 66.4599 54.1701 66.4599ZM57.8601 60.5899C57.6534 60.5899 57.4834 60.5233 57.3501 60.3899C57.2167 60.2566 57.1501 60.0866 57.1501 59.8799C57.1501 59.6733 57.2167 59.5033 57.3501 59.3699C57.4834 59.2366 57.6534 59.1699 57.8601 59.1699C58.0667 59.1699 58.2367 59.2366 58.3701 59.3699C58.5034 59.5033 58.5701 59.6733 58.5701 59.8799C58.5701 60.0866 58.5034 60.2566 58.3701 60.3899C58.2367 60.5233 58.0667 60.5899 57.8601 60.5899ZM57.3801 66.3999C57.3467 66.3999 57.3167 66.3866 57.2901 66.3599C57.2701 66.3399 57.2601 66.3133 57.2601 66.2799V61.3999C57.2601 61.3666 57.2701 61.3399 57.2901 61.3199C57.3167 61.2933 57.3467 61.2799 57.3801 61.2799H58.3001C58.3334 61.2799 58.3601 61.2933 58.3801 61.3199C58.4067 61.3399 58.4201 61.3666 58.4201 61.3999V66.2799C58.4201 66.3133 58.4067 66.3399 58.3801 66.3599C58.3601 66.3866 58.3334 66.3999 58.3001 66.3999H57.3801ZM62.2001 61.2099C62.7401 61.2099 63.1701 61.3699 63.4901 61.6899C63.8167 62.0099 63.9801 62.4466 63.9801 62.9999V66.2799C63.9801 66.3133 63.9667 66.3399 63.9401 66.3599C63.9201 66.3866 63.8934 66.3999 63.8601 66.3999H62.9401C62.9067 66.3999 62.8767 66.3866 62.8501 66.3599C62.8301 66.3399 62.8201 66.3133 62.8201 66.2799V63.2399C62.8201 62.9333 62.7334 62.6833 62.5601 62.4899C62.3867 62.3033 62.1567 62.2099 61.8701 62.2099C61.5834 62.2099 61.3501 62.3033 61.1701 62.4899C60.9967 62.6766 60.9101 62.9233 60.9101 63.2299V66.2799C60.9101 66.3133 60.8967 66.3399 60.8701 66.3599C60.8501 66.3866 60.8234 66.3999 60.7901 66.3999H59.8701C59.8367 66.3999 59.8067 66.3866 59.7801 66.3599C59.7601 66.3399 59.7501 66.3133 59.7501 66.2799V61.4099C59.7501 61.3766 59.7601 61.3466 59.7801 61.3199C59.8067 61.2999 59.8367 61.2899 59.8701 61.2899H60.7901C60.8234 61.2899 60.8501 61.2999 60.8701 61.3199C60.8967 61.3466 60.9101 61.3766 60.9101 61.4099V61.7299C60.9101 61.7499 60.9167 61.7633 60.9301 61.7699C60.9434 61.7766 60.9534 61.7699 60.9601 61.7499C61.2334 61.3899 61.6467 61.2099 62.2001 61.2099ZM69.4601 63.2699C69.4867 63.4366 69.5001 63.6233 69.5001 63.8299L69.4901 64.1399C69.4901 64.2199 69.4501 64.2599 69.3701 64.2599H66.2401C66.2067 64.2599 66.1901 64.2766 66.1901 64.3099C66.2101 64.5299 66.2401 64.6799 66.2801 64.7599C66.4401 65.2399 66.8301 65.4833 67.4501 65.4899C67.9034 65.4899 68.2634 65.3033 68.5301 64.9299C68.5567 64.8899 68.5901 64.8699 68.6301 64.8699C68.6567 64.8699 68.6801 64.8799 68.7001 64.8999L69.3201 65.4099C69.3801 65.4566 69.3901 65.5099 69.3501 65.5699C69.1434 65.8633 68.8667 66.0899 68.5201 66.2499C68.1801 66.4099 67.8001 66.4899 67.3801 66.4899C66.8601 66.4899 66.4167 66.3733 66.0501 66.1399C65.6901 65.9066 65.4267 65.5799 65.2601 65.1599C65.1067 64.7999 65.0301 64.2999 65.0301 63.6599C65.0301 63.2733 65.0701 62.9599 65.1501 62.7199C65.2834 62.2533 65.5334 61.8833 65.9001 61.6099C66.2734 61.3433 66.7201 61.2099 67.2401 61.2099C68.5534 61.2099 69.2934 61.8966 69.4601 63.2699ZM67.2401 62.2099C66.9934 62.2099 66.7867 62.2733 66.6201 62.3999C66.4601 62.5199 66.3467 62.6899 66.2801 62.9099C66.2401 63.0233 66.2134 63.1699 66.2001 63.3499C66.1867 63.3833 66.2001 63.3999 66.2401 63.3999H68.2701C68.3034 63.3999 68.3201 63.3833 68.3201 63.3499C68.3067 63.1833 68.2867 63.0566 68.2601 62.9699C68.2001 62.7299 68.0801 62.5433 67.9001 62.4099C67.7267 62.2766 67.5067 62.2099 67.2401 62.2099ZM72.3801 66.4599C71.9601 66.4599 71.5901 66.3966 71.2701 66.2699C70.9567 66.1499 70.7134 65.9799 70.5401 65.7599C70.3667 65.5466 70.2801 65.3066 70.2801 65.0399V64.9499C70.2801 64.9166 70.2901 64.8866 70.3101 64.8599C70.3367 64.8399 70.3667 64.8299 70.4001 64.8299H71.2801C71.3134 64.8299 71.3401 64.8399 71.3601 64.8599C71.3867 64.8866 71.4001 64.9166 71.4001 64.9499V64.9699C71.4001 65.1366 71.4901 65.2833 71.6701 65.4099C71.8567 65.5299 72.0901 65.5899 72.3701 65.5899C72.6367 65.5899 72.8534 65.5366 73.0201 65.4299C73.1867 65.3166 73.2701 65.1766 73.2701 65.0099C73.2701 64.8566 73.2001 64.7399 73.0601 64.6599C72.9267 64.5866 72.7067 64.5066 72.4001 64.4199L72.0201 64.2999C71.6801 64.1999 71.3934 64.0933 71.1601 63.9799C70.9267 63.8666 70.7301 63.7099 70.5701 63.5099C70.4101 63.3166 70.3301 63.0666 70.3301 62.7599C70.3301 62.2933 70.5134 61.9233 70.8801 61.6499C71.2467 61.3699 71.7301 61.2299 72.3301 61.2299C72.7367 61.2299 73.0934 61.2933 73.4001 61.4199C73.7067 61.5533 73.9434 61.7333 74.1101 61.9599C74.2767 62.1933 74.3601 62.4566 74.3601 62.7499C74.3601 62.7833 74.3467 62.8133 74.3201 62.8399C74.3001 62.8599 74.2734 62.8699 74.2401 62.8699H73.3901C73.3567 62.8699 73.3267 62.8599 73.3001 62.8399C73.2801 62.8133 73.2701 62.7833 73.2701 62.7499C73.2701 62.5766 73.1834 62.4333 73.0101 62.3199C72.8434 62.1999 72.6134 62.1399 72.3201 62.1399C72.0601 62.1399 71.8467 62.1866 71.6801 62.2799C71.5201 62.3799 71.4401 62.5166 71.4401 62.6899C71.4401 62.8499 71.5167 62.9699 71.6701 63.0499C71.8301 63.1366 72.0934 63.2299 72.4601 63.3299L72.6801 63.3899C73.0334 63.4966 73.3301 63.6033 73.5701 63.7099C73.8101 63.8233 74.0134 63.9766 74.1801 64.1699C74.3467 64.3699 74.4301 64.6266 74.4301 64.9399C74.4301 65.4133 74.2434 65.7833 73.8701 66.0499C73.4967 66.3233 73.0001 66.4599 72.3801 66.4599ZM77.2101 66.4599C76.7901 66.4599 76.4201 66.3966 76.1001 66.2699C75.7867 66.1499 75.5434 65.9799 75.3701 65.7599C75.1967 65.5466 75.1101 65.3066 75.1101 65.0399V64.9499C75.1101 64.9166 75.1201 64.8866 75.1401 64.8599C75.1667 64.8399 75.1967 64.8299 75.2301 64.8299H76.1101C76.1434 64.8299 76.1701 64.8399 76.1901 64.8599C76.2167 64.8866 76.2301 64.9166 76.2301 64.9499V64.9699C76.2301 65.1366 76.3201 65.2833 76.5001 65.4099C76.6867 65.5299 76.9201 65.5899 77.2001 65.5899C77.4667 65.5899 77.6834 65.5366 77.8501 65.4299C78.0167 65.3166 78.1001 65.1766 78.1001 65.0099C78.1001 64.8566 78.0301 64.7399 77.8901 64.6599C77.7567 64.5866 77.5367 64.5066 77.2301 64.4199L76.8501 64.2999C76.5101 64.1999 76.2234 64.0933 75.9901 63.9799C75.7567 63.8666 75.5601 63.7099 75.4001 63.5099C75.2401 63.3166 75.1601 63.0666 75.1601 62.7599C75.1601 62.2933 75.3434 61.9233 75.7101 61.6499C76.0767 61.3699 76.5601 61.2299 77.1601 61.2299C77.5667 61.2299 77.9234 61.2933 78.2301 61.4199C78.5367 61.5533 78.7734 61.7333 78.9401 61.9599C79.1067 62.1933 79.1901 62.4566 79.1901 62.7499C79.1901 62.7833 79.1767 62.8133 79.1501 62.8399C79.1301 62.8599 79.1034 62.8699 79.0701 62.8699H78.2201C78.1867 62.8699 78.1567 62.8599 78.1301 62.8399C78.1101 62.8133 78.1001 62.7833 78.1001 62.7499C78.1001 62.5766 78.0134 62.4333 77.8401 62.3199C77.6734 62.1999 77.4434 62.1399 77.1501 62.1399C76.8901 62.1399 76.6767 62.1866 76.5101 62.2799C76.3501 62.3799 76.2701 62.5166 76.2701 62.6899C76.2701 62.8499 76.3467 62.9699 76.5001 63.0499C76.6601 63.1366 76.9234 63.2299 77.2901 63.3299L77.5101 63.3899C77.8634 63.4966 78.1601 63.6033 78.4001 63.7099C78.6401 63.8233 78.8434 63.9766 79.0101 64.1699C79.1767 64.3699 79.2601 64.6266 79.2601 64.9399C79.2601 65.4133 79.0734 65.7833 78.7001 66.0499C78.3267 66.3233 77.8301 66.4599 77.2101 66.4599Z" fill="white"/>
<path d="M31.1602 80.5C31.0869 80.5 31.0402 80.4667 31.0202 80.4L29.2502 73.63L29.2402 73.59C29.2402 73.53 29.2769 73.5 29.3502 73.5H30.5902C30.6569 73.5 30.7002 73.5333 30.7202 73.6L31.6702 77.67C31.6769 77.6967 31.6869 77.71 31.7002 77.71C31.7136 77.71 31.7236 77.6967 31.7302 77.67L32.6502 73.61C32.6702 73.5367 32.7136 73.5 32.7802 73.5H33.9902C34.0636 73.5 34.1102 73.5333 34.1302 73.6L35.1302 77.67C35.1369 77.69 35.1469 77.7033 35.1602 77.71C35.1736 77.71 35.1836 77.6967 35.1902 77.67L36.1102 73.61C36.1302 73.5367 36.1736 73.5 36.2402 73.5H37.4202C37.5136 73.5 37.5502 73.5433 37.5302 73.63L35.8902 80.4C35.8702 80.4667 35.8236 80.5 35.7502 80.5H34.5602C34.4936 80.5 34.4502 80.4667 34.4302 80.4L33.4102 76.07C33.4036 76.0433 33.3936 76.03 33.3802 76.03C33.3669 76.03 33.3569 76.0433 33.3502 76.07L32.4002 80.39C32.3869 80.4633 32.3436 80.5 32.2702 80.5H31.1602ZM38.5002 80.5C38.4669 80.5 38.4369 80.4867 38.4102 80.46C38.3902 80.44 38.3802 80.4133 38.3802 80.38V73.62C38.3802 73.5867 38.3902 73.56 38.4102 73.54C38.4369 73.5133 38.4669 73.5 38.5002 73.5H39.6702C39.7036 73.5 39.7302 73.5133 39.7502 73.54C39.7769 73.56 39.7902 73.5867 39.7902 73.62V80.38C39.7902 80.4133 39.7769 80.44 39.7502 80.46C39.7302 80.4867 39.7036 80.5 39.6702 80.5H38.5002ZM45.0302 73.62C45.0302 73.5867 45.0402 73.56 45.0602 73.54C45.0869 73.5133 45.1169 73.5 45.1502 73.5H46.3202C46.3536 73.5 46.3802 73.5133 46.4002 73.54C46.4269 73.56 46.4402 73.5867 46.4402 73.62V80.38C46.4402 80.4133 46.4269 80.44 46.4002 80.46C46.3802 80.4867 46.3536 80.5 46.3202 80.5H45.1902C45.1236 80.5 45.0769 80.4733 45.0502 80.42L42.4602 76.14C42.4469 76.12 42.4336 76.1133 42.4202 76.12C42.4069 76.12 42.4002 76.1333 42.4002 76.16L42.4202 80.38C42.4202 80.4133 42.4069 80.44 42.3802 80.46C42.3602 80.4867 42.3336 80.5 42.3002 80.5H41.1302C41.0969 80.5 41.0669 80.4867 41.0402 80.46C41.0202 80.44 41.0102 80.4133 41.0102 80.38V73.62C41.0102 73.5867 41.0202 73.56 41.0402 73.54C41.0669 73.5133 41.0969 73.5 41.1302 73.5H42.2602C42.3269 73.5 42.3736 73.5267 42.4002 73.58L44.9802 77.84C44.9936 77.86 45.0069 77.8667 45.0202 77.86C45.0336 77.86 45.0402 77.8467 45.0402 77.82L45.0302 73.62ZM52.4902 73.5C52.5236 73.5 52.5502 73.5133 52.5702 73.54C52.5969 73.56 52.6102 73.5867 52.6102 73.62V74.6C52.6102 74.6333 52.5969 74.66 52.5702 74.68C52.5502 74.7067 52.5236 74.72 52.4902 74.72H50.7002C50.6669 74.72 50.6502 74.7367 50.6502 74.77V80.38C50.6502 80.4133 50.6369 80.44 50.6102 80.46C50.5902 80.4867 50.5636 80.5 50.5302 80.5H49.3602C49.3269 80.5 49.2969 80.4867 49.2702 80.46C49.2502 80.44 49.2402 80.4133 49.2402 80.38V74.77C49.2402 74.7367 49.2236 74.72 49.1902 74.72H47.4502C47.4169 74.72 47.3869 74.7067 47.3602 74.68C47.3402 74.66 47.3302 74.6333 47.3302 74.6V73.62C47.3302 73.5867 47.3402 73.56 47.3602 73.54C47.3869 73.5133 47.4169 73.5 47.4502 73.5H52.4902ZM58.3702 74.59C58.3702 74.6233 58.3602 74.65 58.3402 74.67C58.3136 74.6967 58.2836 74.71 58.2502 74.71H54.9702C54.9369 74.71 54.9202 74.7267 54.9202 74.76V76.31C54.9202 76.3433 54.9369 76.36 54.9702 76.36H57.1202C57.1536 76.36 57.1802 76.37 57.2002 76.39C57.2269 76.4167 57.2402 76.4467 57.2402 76.48V77.45C57.2402 77.4833 57.2269 77.5133 57.2002 77.54C57.1802 77.56 57.1536 77.57 57.1202 77.57H54.9702C54.9369 77.57 54.9202 77.5867 54.9202 77.62V79.24C54.9202 79.2733 54.9369 79.29 54.9702 79.29H58.2502C58.2836 79.29 58.3136 79.3 58.3402 79.32C58.3602 79.3467 58.3702 79.3767 58.3702 79.41V80.38C58.3702 80.4133 58.3602 80.44 58.3402 80.46C58.3136 80.4867 58.2836 80.5 58.2502 80.5H53.6302C53.5969 80.5 53.5669 80.4867 53.5402 80.46C53.5202 80.44 53.5102 80.4133 53.5102 80.38V73.62C53.5102 73.5867 53.5202 73.56 53.5402 73.54C53.5669 73.5133 53.5969 73.5 53.6302 73.5H58.2502C58.2836 73.5 58.3136 73.5133 58.3402 73.54C58.3602 73.56 58.3702 73.5867 58.3702 73.62V74.59ZM63.1902 80.5C63.1236 80.5 63.0769 80.47 63.0502 80.41L61.8002 77.64C61.7869 77.6133 61.7669 77.6 61.7402 77.6H60.8102C60.7769 77.6 60.7602 77.6167 60.7602 77.65V80.38C60.7602 80.4133 60.7469 80.44 60.7202 80.46C60.7002 80.4867 60.6736 80.5 60.6402 80.5H59.4702C59.4369 80.5 59.4069 80.4867 59.3802 80.46C59.3602 80.44 59.3502 80.4133 59.3502 80.38V73.62C59.3502 73.5867 59.3602 73.56 59.3802 73.54C59.4069 73.5133 59.4369 73.5 59.4702 73.5H62.3302C62.7569 73.5 63.1302 73.5867 63.4502 73.76C63.7769 73.9333 64.0269 74.18 64.2002 74.5C64.3802 74.82 64.4702 75.19 64.4702 75.61C64.4702 76.0633 64.3569 76.45 64.1302 76.77C63.9036 77.0967 63.5869 77.3267 63.1802 77.46C63.1469 77.4733 63.1369 77.4967 63.1502 77.53L64.5102 80.36C64.5236 80.3867 64.5302 80.4067 64.5302 80.42C64.5302 80.4733 64.4936 80.5 64.4202 80.5H63.1902ZM60.8102 74.71C60.7769 74.71 60.7602 74.7267 60.7602 74.76V76.47C60.7602 76.5033 60.7769 76.52 60.8102 76.52H62.1202C62.4002 76.52 62.6269 76.4367 62.8002 76.27C62.9802 76.1033 63.0702 75.8867 63.0702 75.62C63.0702 75.3533 62.9802 75.1333 62.8002 74.96C62.6269 74.7933 62.4002 74.71 62.1202 74.71H60.8102ZM37.6802 88.63C37.6669 88.6433 37.6636 88.6567 37.6702 88.67C37.6769 88.6833 37.6902 88.69 37.7102 88.69H40.4202C40.4536 88.69 40.4836 88.7 40.5102 88.72C40.5302 88.7467 40.5402 88.7767 40.5402 88.81V89.78C40.5402 89.8133 40.5302 89.84 40.5102 89.86C40.4836 89.8867 40.4536 89.9 40.4202 89.9H35.9202C35.8869 89.9 35.8569 89.8867 35.8302 89.86C35.8102 89.84 35.8002 89.8133 35.8002 89.78V88.86C35.8002 88.8 35.8202 88.75 35.8602 88.71C36.1869 88.39 36.5202 88.0433 36.8602 87.67C37.2002 87.29 37.4136 87.0533 37.5002 86.96C37.6869 86.74 37.8769 86.53 38.0702 86.33C38.6769 85.6567 38.9802 85.1567 38.9802 84.83C38.9802 84.5967 38.8969 84.4033 38.7302 84.25C38.5636 84.1033 38.3469 84.03 38.0802 84.03C37.8136 84.03 37.5969 84.1033 37.4302 84.25C37.2636 84.4033 37.1802 84.6033 37.1802 84.85V85.1C37.1802 85.1333 37.1669 85.1633 37.1402 85.19C37.1202 85.21 37.0936 85.22 37.0602 85.22H35.8802C35.8469 85.22 35.8202 85.21 35.8002 85.19C35.7736 85.1633 35.7602 85.1333 35.7602 85.1V84.63C35.7802 84.27 35.8936 83.95 36.1002 83.67C36.3069 83.3967 36.5802 83.1867 36.9202 83.04C37.2669 82.8933 37.6536 82.82 38.0802 82.82C38.5536 82.82 38.9669 82.9067 39.3202 83.08C39.6669 83.26 39.9369 83.5 40.1302 83.8C40.3169 84.1 40.4102 84.4333 40.4102 84.8C40.4102 85.08 40.3402 85.3667 40.2002 85.66C40.0602 85.9533 39.8502 86.27 39.5702 86.61C39.3636 86.87 39.1402 87.1267 38.9002 87.38C38.6602 87.6333 38.3036 88 37.8302 88.48L37.6802 88.63ZM43.7902 90.01C43.0569 90.01 42.4769 89.8033 42.0502 89.39C41.6236 88.9833 41.4102 88.4267 41.4102 87.72V85.08C41.4102 84.3867 41.6236 83.8367 42.0502 83.43C42.4769 83.0233 43.0569 82.82 43.7902 82.82C44.5236 82.82 45.1069 83.0233 45.5402 83.43C45.9669 83.8367 46.1802 84.3867 46.1802 85.08V87.72C46.1802 88.4267 45.9669 88.9833 45.5402 89.39C45.1069 89.8033 44.5236 90.01 43.7902 90.01ZM43.7902 88.8C44.0902 88.8 44.3302 88.7067 44.5102 88.52C44.6836 88.34 44.7702 88.0967 44.7702 87.79V85.04C44.7702 84.7333 44.6836 84.49 44.5102 84.31C44.3302 84.1233 44.0902 84.03 43.7902 84.03C43.4969 84.03 43.2636 84.1233 43.0902 84.31C42.9102 84.49 42.8202 84.7333 42.8202 85.04V87.79C42.8202 88.0967 42.9102 88.34 43.0902 88.52C43.2636 88.7067 43.4969 88.8 43.7902 88.8ZM48.9802 88.63C48.9669 88.6433 48.9636 88.6567 48.9702 88.67C48.9769 88.6833 48.9902 88.69 49.0102 88.69H51.7202C51.7536 88.69 51.7836 88.7 51.8102 88.72C51.8302 88.7467 51.8402 88.7767 51.8402 88.81V89.78C51.8402 89.8133 51.8302 89.84 51.8102 89.86C51.7836 89.8867 51.7536 89.9 51.7202 89.9H47.2202C47.1869 89.9 47.1602 89.8867 47.1402 89.86C47.1136 89.84 47.1002 89.8133 47.1002 89.78V88.86C47.1002 88.8 47.1202 88.75 47.1602 88.71C47.4869 88.39 47.8202 88.0433 48.1602 87.67C48.5002 87.29 48.7136 87.0533 48.8002 86.96C48.9869 86.74 49.1769 86.53 49.3702 86.33C49.9769 85.6567 50.2802 85.1567 50.2802 84.83C50.2802 84.5967 50.1969 84.4033 50.0302 84.25C49.8636 84.1033 49.6469 84.03 49.3802 84.03C49.1136 84.03 48.8969 84.1033 48.7302 84.25C48.5636 84.4033 48.4802 84.6033 48.4802 84.85V85.1C48.4802 85.1333 48.4702 85.1633 48.4502 85.19C48.4236 85.21 48.3936 85.22 48.3602 85.22H47.1802C47.1469 85.22 47.1202 85.21 47.1002 85.19C47.0736 85.1633 47.0602 85.1333 47.0602 85.1V84.63C47.0802 84.27 47.1936 83.95 47.4002 83.67C47.6069 83.3967 47.8836 83.1867 48.2302 83.04C48.5702 82.8933 48.9536 82.82 49.3802 82.82C49.8536 82.82 50.2669 82.9067 50.6202 83.08C50.9669 83.26 51.2369 83.5 51.4302 83.8C51.6169 84.1 51.7102 84.4333 51.7102 84.8C51.7102 85.08 51.6402 85.3667 51.5002 85.66C51.3602 85.9533 51.1502 86.27 50.8702 86.61C50.6636 86.87 50.4402 87.1267 50.2002 87.38C49.9602 87.6333 49.6036 88 49.1302 88.48L48.9802 88.63ZM57.7102 86.85C57.7436 86.85 57.7736 86.86 57.8002 86.88C57.8202 86.9067 57.8302 86.9367 57.8302 86.97V87.98C57.8302 88.0133 57.8202 88.0433 57.8002 88.07C57.7736 88.09 57.7436 88.1 57.7102 88.1H57.2802C57.2469 88.1 57.2302 88.1167 57.2302 88.15V89.78C57.2302 89.8133 57.2202 89.84 57.2002 89.86C57.1736 89.8867 57.1436 89.9 57.1102 89.9H55.9402C55.9069 89.9 55.8802 89.8867 55.8602 89.86C55.8336 89.84 55.8202 89.8133 55.8202 89.78V88.15C55.8202 88.1167 55.8036 88.1 55.7702 88.1H52.7002C52.6669 88.1 52.6402 88.09 52.6202 88.07C52.5936 88.0433 52.5802 88.0133 52.5802 87.98V87.18C52.5802 87.14 52.5902 87.09 52.6102 87.03L54.4102 82.99C54.4369 82.93 54.4836 82.9 54.5502 82.9H55.8002C55.8469 82.9 55.8802 82.9133 55.9002 82.94C55.9136 82.96 55.9102 82.9933 55.8902 83.04L54.2202 86.79C54.2136 86.8033 54.2136 86.8167 54.2202 86.83C54.2269 86.8433 54.2369 86.85 54.2502 86.85H55.7702C55.8036 86.85 55.8202 86.8333 55.8202 86.8V85.56C55.8202 85.5267 55.8336 85.5 55.8602 85.48C55.8802 85.4533 55.9069 85.44 55.9402 85.44H57.1102C57.1436 85.44 57.1736 85.4533 57.2002 85.48C57.2202 85.5 57.2302 85.5267 57.2302 85.56V86.8C57.2302 86.8333 57.2469 86.85 57.2802 86.85H57.7102Z" fill="#252530"/>
</g>
<defs>
<clipPath id="clip0_22168_9120">
<rect width="94" height="104" fill="white" transform="translate(128)"/>
</clipPath>
<clipPath id="clip1_22168_9120">
<rect width="94" height="104" fill="white" transform="translate(256)"/>
</clipPath>
<clipPath id="clip2_22168_9120">
<rect width="94" height="104" fill="white"/>
</clipPath>
</defs>
</svg>
