<?xml version="1.0" encoding="UTF-8"?>
<svg xmlns="http://www.w3.org/2000/svg" width="120" height="24" viewBox="0 0 120 24" fill="none">
  <path d="M11.0489 2.92705C11.3483 2.00574 12.6517 2.00574 12.9511 2.92705L14.4697 7.60081C14.6035 8.01284 14.9875 8.2918 15.4207 8.2918H20.335C21.3037 8.2918 21.7065 9.53141 20.9228 10.1008L16.947 12.9894C16.5966 13.244 16.4499 13.6954 16.5838 14.1074L18.1024 18.7812C18.4017 19.7025 17.3472 20.4686 16.5635 19.8992L12.5878 17.0106C12.2373 16.756 11.7627 16.756 11.4122 17.0106L7.43648 19.8992C6.65276 20.4686 5.59828 19.7025 5.89763 18.7812L7.41623 14.1074C7.55011 13.6954 7.40345 13.244 7.05296 12.9894L3.07722 10.1008C2.29351 9.53141 2.69628 8.2918 3.66501 8.2918H8.57929C9.01252 8.2918 9.39647 8.01284 9.53035 7.60081L11.0489 2.92705Z" fill="#FF492C"></path>
  <path d="M35.7622 3.15881C35.8371 2.92848 36.1629 2.92849 36.2378 3.15881L37.7564 7.83258C37.9906 8.55362 38.6626 9.0418 39.4207 9.0418H44.335C44.5772 9.0418 44.6779 9.3517 44.4819 9.49405L40.5062 12.3826C39.8929 12.8282 39.6362 13.6181 39.8705 14.3392L41.3891 19.0129C41.4639 19.2432 41.2003 19.4348 41.0044 19.2924L37.0286 16.4039C36.4153 15.9583 35.5847 15.9583 34.9714 16.4039L30.9956 19.2924C30.7997 19.4348 30.5361 19.2432 30.6109 19.0129L32.1295 14.3392C32.3638 13.6181 32.1072 12.8282 31.4938 12.3826L27.5181 9.49405C27.3221 9.3517 27.4228 9.0418 27.665 9.0418H32.5793C33.3374 9.0418 34.0094 8.55362 34.2436 7.83258L35.7622 3.15881Z" fill="#FF492C" stroke="#FF492C" stroke-width="1.5"></path>
  <path d="M59.7622 3.15881C59.8371 2.92848 60.1629 2.92849 60.2378 3.15881L61.7564 7.83258C61.9906 8.55362 62.6626 9.0418 63.4207 9.0418H68.335C68.5772 9.0418 68.6779 9.3517 68.4819 9.49405L64.5062 12.3826C63.8929 12.8282 63.6362 13.6181 63.8705 14.3392L65.3891 19.0129C65.4639 19.2432 65.2003 19.4348 65.0044 19.2924L61.0286 16.4039C60.4153 15.9583 59.5847 15.9583 58.9714 16.4039L54.9956 19.2924C54.7997 19.4348 54.5361 19.2432 54.6109 19.0129L56.1295 14.3392C56.3638 13.6181 56.1072 12.8282 55.4938 12.3826L51.5181 9.49405C51.3221 9.3517 51.4228 9.0418 51.665 9.0418H56.5793C57.3374 9.0418 58.0094 8.55362 58.2436 7.83258L59.7622 3.15881Z" fill="#FF492C" stroke="#FF492C" stroke-width="1.5"></path>
  <path d="M83.7622 3.15881C83.8371 2.92848 84.1629 2.92849 84.2378 3.15881L85.7564 7.83258C85.9906 8.55362 86.6626 9.0418 87.4207 9.0418H92.335C92.5772 9.0418 92.6779 9.3517 92.4819 9.49405L88.5062 12.3826C87.8929 12.8282 87.6362 13.6181 87.8705 14.3392L89.3891 19.0129C89.4639 19.2432 89.2003 19.4348 89.0044 19.2924L85.0286 16.4039C84.4153 15.9583 83.5847 15.9583 82.9714 16.4039L78.9956 19.2924C78.7997 19.4348 78.5361 19.2432 78.6109 19.0129L80.1295 14.3392C80.3638 13.6181 80.1072 12.8282 79.4938 12.3826L75.5181 9.49405C75.3221 9.3517 75.4228 9.0418 75.665 9.0418H80.5793C81.3374 9.0418 82.0094 8.55362 82.2436 7.83258L83.7622 3.15881Z" fill="#FF492C" stroke="#FF492C" stroke-width="1.5"></path>
  <path d="M107.762 3.15881C107.837 2.92848 108.163 2.92849 108.238 3.15881L109.756 7.83258C109.991 8.55362 110.663 9.0418 111.421 9.0418H116.335C116.577 9.0418 116.678 9.3517 116.482 9.49405L112.506 12.3826C111.893 12.8282 111.636 13.6181 111.87 14.3392L113.389 19.0129C113.464 19.2432 113.2 19.4348 113.004 19.2924L109.029 16.4039C108.415 15.9583 107.585 15.9583 106.971 16.4039L102.996 19.2924C102.8 19.4348 102.536 19.2432 102.611 19.0129L104.13 14.3392C104.364 13.6181 104.107 12.8282 103.494 12.3826L99.5181 9.49405C99.3221 9.3517 99.4228 9.0418 99.665 9.0418H104.579C105.337 9.0418 106.009 8.55362 106.244 7.83258L107.762 3.15881Z" stroke="#FF492C" stroke-width="1.5"></path>
  <mask id="path-6-inside-1_11586_5851" fill="white">
    <path fill-rule="evenodd" clip-rule="evenodd" d="M108.001 2.23438C107.6 2.23438 107.2 2.4647 107.05 2.92536L105.531 7.59912C105.397 8.01114 105.013 8.2901 104.58 8.2901H99.666C98.6973 8.2901 98.2945 9.52972 99.0782 10.0991L103.054 12.9877C103.404 13.2423 103.551 13.6937 103.417 14.1057L101.899 18.7795C101.599 19.7008 102.654 20.4669 103.437 19.8975L107.413 17.009C107.588 16.8816 107.795 16.818 108.001 16.818V2.23438Z"></path>
  </mask>
  <path fill-rule="evenodd" clip-rule="evenodd" d="M108.001 2.23438C107.6 2.23438 107.2 2.4647 107.05 2.92536L105.531 7.59912C105.397 8.01114 105.013 8.2901 104.58 8.2901H99.666C98.6973 8.2901 98.2945 9.52972 99.0782 10.0991L103.054 12.9877C103.404 13.2423 103.551 13.6937 103.417 14.1057L101.899 18.7795C101.599 19.7008 102.654 20.4669 103.437 19.8975L107.413 17.009C107.588 16.8816 107.795 16.818 108.001 16.818V2.23438Z" fill="#FF492C"></path>
  <path d="M107.05 2.92536L105.623 2.46183V2.46183L107.05 2.92536ZM108.001 2.23438H109.501V0.734374L108.001 0.734375L108.001 2.23438ZM105.531 7.59912L104.105 7.13559L104.105 7.1356L105.531 7.59912ZM99.0782 10.0991L99.9599 8.88559L99.9599 8.88559L99.0782 10.0991ZM103.054 12.9877L102.172 14.2012L102.172 14.2012L103.054 12.9877ZM103.417 14.1057L101.991 13.6422L101.991 13.6422L103.417 14.1057ZM101.899 18.7795L103.325 19.243L101.899 18.7795ZM103.437 19.8975L102.556 18.684L102.556 18.684L103.437 19.8975ZM107.413 17.009L108.295 18.2225L108.295 18.2225L107.413 17.009ZM108.001 16.818V18.318H109.501V16.818H108.001ZM108.477 3.38889C108.448 3.47619 108.38 3.57568 108.276 3.6466C108.182 3.71102 108.084 3.73437 108.001 3.73438L108.001 0.734375C107.026 0.734376 105.996 1.31392 105.623 2.46183L108.477 3.38889ZM106.958 8.06265L108.477 3.38888L105.623 2.46183L104.105 7.13559L106.958 8.06265ZM104.58 9.7901C105.663 9.7901 106.623 9.0927 106.958 8.06264L104.105 7.1356C104.172 6.92958 104.364 6.7901 104.58 6.7901V9.7901ZM99.666 9.7901H104.58V6.7901H99.666V9.7901ZM99.9599 8.88559C100.352 9.17029 100.15 9.7901 99.666 9.7901V6.7901C97.2442 6.7901 96.2372 9.88914 98.1965 11.3126L99.9599 8.88559ZM103.936 11.7741L99.9599 8.88559L98.1965 11.3126L102.172 14.2012L103.936 11.7741ZM104.844 14.5692C105.178 13.5392 104.812 12.4107 103.936 11.7741L102.172 14.2012C101.997 14.0739 101.924 13.8482 101.991 13.6422L104.844 14.5692ZM103.325 19.243L104.844 14.5692L101.991 13.6422L100.472 18.3159L103.325 19.243ZM102.556 18.684C102.948 18.3993 103.475 18.7823 103.325 19.243L100.472 18.3159C99.7236 20.6192 102.36 22.5345 104.319 21.111L102.556 18.684ZM106.532 15.7954L102.556 18.684L104.319 21.111L108.295 18.2225L106.532 15.7954ZM108.001 15.318C107.486 15.318 106.97 15.4772 106.532 15.7954L108.295 18.2225C108.207 18.2861 108.103 18.318 108.001 18.318V15.318ZM109.501 16.818V2.23438H106.501V16.818H109.501Z" fill="#FF492C" mask="url(#path-6-inside-1_11586_5851)"></path>
</svg>
