<svg width="28" height="28" viewBox="0 0 28 28" fill="none" xmlns="http://www.w3.org/2000/svg">
<circle cx="14" cy="14" r="13.5" fill="#1DA1F2" fill-opacity="0.1" stroke="white"/>
<path d="M10.9189 19.5984H8.53846V12.1084H10.9189V19.5984ZM9.72869 11.0584C8.95855 11.0584 8.39844 10.4984 8.39844 9.72844C8.39844 8.95844 9.02856 8.39844 9.72869 8.39844C10.4988 8.39844 11.0589 8.95844 11.0589 9.72844C11.0589 10.4984 10.4988 11.0584 9.72869 11.0584ZM19.6006 19.5984H17.2201V15.5384C17.2201 14.3484 16.73 13.9984 16.0299 13.9984C15.3298 13.9984 14.6296 14.5584 14.6296 15.6084V19.5984H12.2492V12.1084H14.4896V13.1584C14.6996 12.6684 15.5398 11.8984 16.73 11.8984C18.0603 11.8984 19.4605 12.6684 19.4605 14.9784V19.5984H19.6006Z" fill="white"/>
</svg>
