<svg width="20" height="6236" viewBox="0 0 20 6236" fill="none" xmlns="http://www.w3.org/2000/svg">
<g clip-path="url(#clip0_19933_16315)">
<mask id="mask0_19933_16315" style="mask-type:luminance" maskUnits="userSpaceOnUse" x="0" y="0" width="20" height="5287">
<path d="M20 0H0V5287H20V0Z" fill="white"/>
</mask>
<g mask="url(#mask0_19933_16315)">
<path d="M3 5167H14V5157L11 5154H3V5167Z" stroke="#0F67EA" stroke-width="2" stroke-linejoin="round"/>
<path d="M8 5154V5151H16L19 5154V5164H14" stroke="#0F67EA" stroke-width="2" stroke-linejoin="round"/>
<path d="M7.46413 5161.92C7.95805 5160.94 8.88004 5158.81 8.61662 5158.2C8.28733 5157.43 6.80394 5158.94 9.86514 5161.55C11.3195 5162.79 12.0741 5161.39 10.0984 5161.39C9.67851 5161.37 8.36092 5161.51 7.79352 5161.66C4.65169 5162.44 6.36914 5164.1 7.46413 5161.92Z" stroke="#0F67EA"/>
<path fill-rule="evenodd" clip-rule="evenodd" d="M13 242H7.50001C6.94773 242 6.50001 241.552 6.50001 241C6.50001 240.448 6.94773 240 7.50001 240H13C15.2092 240 17 241.791 17 244V247.805L17.3438 247.506C17.7605 247.144 18.3921 247.188 18.7546 247.604C19.117 248.021 19.073 248.653 18.6563 249.015L16.6563 250.755C16.28 251.082 15.7201 251.082 15.3438 250.755L13.3438 249.015C12.9271 248.653 12.883 248.021 13.2455 247.604C13.6079 247.188 14.2395 247.144 14.6563 247.506L15 247.805V244C15 242.895 14.1046 242 13 242ZM3.34378 245.245C3.72007 244.918 4.27996 244.918 4.65625 245.245L6.65625 246.985C7.07298 247.347 7.11699 247.979 6.75456 248.396C6.39213 248.812 5.7605 248.856 5.34377 248.494L5.00001 248.195V252C5.00001 253.105 5.89544 254 7.00001 254H12.5C13.0523 254 13.5 254.448 13.5 255C13.5 255.552 13.0523 256 12.5 256H7.00001C4.79087 256 3.00001 254.209 3.00001 252V248.195L2.65625 248.494C2.23952 248.856 1.60789 248.812 1.24546 248.396C0.883031 247.979 0.927049 247.347 1.34378 246.985L3.34378 245.245Z" fill="#0F67EA"/>
<path fill-rule="evenodd" clip-rule="evenodd" d="M10 360C9.35122 360 8.83646 360.521 8.83646 361.149C8.83646 361.529 9.02162 361.867 9.31516 362.079C9.50676 362.217 9.742 362.299 10 362.299C10.3604 362.299 10.6803 362.138 10.8945 361.885C10.9885 361.773 11.0608 361.645 11.1066 361.507C11.1433 361.395 11.1635 361.276 11.1635 361.149C11.1635 360.521 10.6488 360 10 360ZM6.83646 361.149C6.83646 359.404 8.25899 358 10 358C11.741 358 13.1635 359.404 13.1635 361.149C13.1635 361.16 13.1635 361.17 13.1634 361.18C15.7748 362.372 17.591 365.006 17.591 368.066C17.591 368.318 17.5808 368.536 17.5641 368.725C18.4274 369.286 19 370.256 19 371.363C19 372.134 18.7206 372.842 18.2594 373.388C17.6798 374.075 16.8082 374.513 15.8365 374.513C15.343 374.513 14.8743 374.4 14.4567 374.198C13.2123 375.093 11.6736 375.632 10.025 375.632C8.36698 375.632 6.83085 375.098 5.58342 374.192C5.57977 374.189 5.57611 374.186 5.57243 374.184C5.14797 374.394 4.66933 374.513 4.16354 374.513C3.4726 374.513 2.83024 374.291 2.30856 373.915C1.51906 373.345 1 372.415 1 371.363C1 370.23 1.59955 369.241 2.49657 368.686C2.47528 368.491 2.45898 368.275 2.45898 368.066C2.45898 365.03 4.26019 362.407 6.83685 361.2C6.83659 361.183 6.83646 361.166 6.83646 361.149ZM7.51249 363.095C5.70435 364.019 4.45898 365.905 4.45898 368.066C4.45898 368.117 4.46081 368.171 4.4641 368.228C6.06533 368.378 7.32709 369.719 7.32709 371.363C7.32709 371.858 7.21192 372.327 7.0074 372.744C7.87646 373.306 8.91143 373.632 10.025 373.632C11.1126 373.632 12.1393 373.312 13.0038 372.767C12.7923 372.344 12.6729 371.868 12.6729 371.363C12.6729 369.701 13.9628 368.349 15.5892 368.223C15.5904 368.174 15.591 368.122 15.591 368.066C15.591 365.882 14.333 363.991 12.5004 363.079C12.4752 363.111 12.4494 363.143 12.4229 363.175C11.8433 363.861 10.9718 364.299 10 364.299C9.30906 364.299 8.6667 364.077 8.14501 363.701C7.90742 363.529 7.69432 363.325 7.51249 363.095ZM4.16354 370.214C3.51477 370.214 3 370.735 3 371.363C3 371.742 3.18516 372.081 3.4787 372.293C3.6703 372.431 3.90554 372.513 4.16354 372.513C4.52391 372.513 4.84387 372.352 5.05801 372.098C5.22702 371.898 5.32709 371.643 5.32709 371.363C5.32709 370.735 4.81232 370.214 4.16354 370.214ZM15.8365 370.214C15.1877 370.214 14.6729 370.735 14.6729 371.363C14.6729 371.742 14.8581 372.081 15.1516 372.293C15.3432 372.431 15.5785 372.513 15.8365 372.513C16.1968 372.513 16.5168 372.352 16.7309 372.098C16.8999 371.898 17 371.643 17 371.363C17 370.735 16.4852 370.214 15.8365 370.214Z" fill="#0F67EA"/>
<path fill-rule="evenodd" clip-rule="evenodd" d="M16.425 4.17344C12.3694 6.07653 8.27145 8.00107 4.17308 9.93013L9.46918 11.3216L12.2142 7.82634C12.5553 7.39199 13.184 7.31642 13.6183 7.65754C14.0527 7.99865 14.1282 8.62729 13.7871 9.06164L11.0463 12.5516C11.1994 12.828 11.3552 13.1092 11.5127 13.3934C12.2152 14.6614 12.9515 15.9904 13.6359 17.2348C14.0915 15.0726 14.5577 12.9052 15.0227 10.7434L15.0965 10.4004C15.2303 9.77685 15.3655 9.15644 15.5004 8.53775C15.8144 7.09651 16.1265 5.66468 16.415 4.22494C16.4182 4.20775 16.4216 4.1905 16.425 4.17344ZM9.18235 13.3141L2.84504 11.6491C2.45219 11.5479 2.07783 11.3156 1.82135 10.9749C1.55307 10.6185 1.38631 10.0894 1.59196 9.52733C1.74791 9.10108 2.04011 8.72615 2.47752 8.51781L2.48154 8.5159C6.9719 6.40167 11.4649 4.2916 15.9053 2.20807C16.2804 2.03206 16.9599 1.84132 17.6187 2.21531C17.8928 2.37095 18.1232 2.58614 18.281 2.86466C18.4359 3.13783 18.4882 3.41396 18.4986 3.64534C18.5134 3.976 18.4325 4.35195 18.3945 4.52839C18.3878 4.55933 18.3825 4.58413 18.3792 4.60148L18.3771 4.61262C18.0849 6.07133 17.7666 7.53152 17.4505 8.98196C17.3165 9.59676 17.183 10.2098 17.0519 10.8202L16.9782 11.1628C16.4709 13.5215 15.9634 15.881 15.4699 18.2326L15.4693 18.2352C15.4649 18.2558 15.4603 18.2797 15.455 18.3065C15.3915 18.6317 15.2436 19.3881 14.5271 19.8351C14.4271 19.8975 14.3169 19.9417 14.2016 19.9657C13.8148 20.0463 13.4149 19.9851 13.0723 19.8025C12.75 19.6308 12.4886 19.3572 12.3348 19.0208C11.533 17.5569 10.6251 15.9183 9.76502 14.366C9.56766 14.0098 9.37282 13.6581 9.18235 13.3141Z" fill="#0F67EA"/>
<path fill-rule="evenodd" clip-rule="evenodd" d="M10.4011 479.054C12.1559 477.233 15.045 477.151 16.9006 478.869C18.834 480.659 18.8924 483.698 17.0293 485.561L8.70711 493.883C8.51957 494.071 8.26522 494.176 8 494.176H3C2.44772 494.176 2 493.728 2 493.176V488.176C2 487.917 2.10034 487.668 2.27992 487.482L10.4011 479.054ZM15.5418 480.337C14.4853 479.359 12.8404 479.405 11.8413 480.442L11.4012 480.899L12.9713 482.469C13.3618 482.859 13.3618 483.493 12.9713 483.883C12.5807 484.274 11.9476 484.274 11.557 483.883L10.0132 482.339L4 488.579V492.176H7.58579L15.615 484.147C16.6758 483.086 16.6426 481.356 15.5418 480.337Z" fill="#0F67EA"/>
<path fill-rule="evenodd" clip-rule="evenodd" d="M17 124C16.4477 124 16 124.448 16 125C16 125.332 16.161 125.627 16.4137 125.81C16.5783 125.93 16.7795 126 17 126C17.3075 126 17.582 125.862 17.767 125.642C17.8482 125.545 17.9109 125.433 17.9506 125.312C17.9824 125.215 18 125.111 18 125C18 124.448 17.5523 124 17 124ZM14 125C14 123.343 15.3431 122 17 122C18.6569 122 20 123.343 20 125C20 125.325 19.9479 125.64 19.8509 125.936C19.7303 126.303 19.5413 126.638 19.2996 126.927C18.7509 127.581 17.9239 128 17 128C16.7771 128 16.5595 127.976 16.35 127.929L14.8465 130.635C15.5487 131.185 16 132.04 16 133C16 133.325 15.9479 133.64 15.8509 133.936C15.7303 134.303 15.5413 134.638 15.2996 134.927C14.7509 135.581 13.9239 136 13 136C12.3433 136 11.7333 135.788 11.2385 135.429C10.49 134.885 10 134 10 133C10 132.537 10.105 132.098 10.2924 131.707L8.29324 129.707C7.92254 129.885 7.50955 129.989 7.07366 129.999L5.28367 133.055C5.72977 133.578 6 134.257 6 135C6 135.325 5.94791 135.64 5.85085 135.936C5.73032 136.303 5.54128 136.638 5.29963 136.927C4.75088 137.581 3.92388 138 3 138C2.34332 138 1.73326 137.788 1.23849 137.429C0.48997 136.885 0 136 0 135C0 133.343 1.34315 132 3 132C3.18884 132 3.37394 132.018 3.55363 132.051L5.13571 129.351C4.44544 128.802 4 127.953 4 127C4 125.343 5.34315 124 7 124C8.65685 124 10 125.343 10 127C10 127.325 9.94791 127.64 9.85085 127.936C9.81052 128.059 9.76253 128.178 9.70746 128.293L11.7066 130.292C12.073 130.117 12.4806 130.014 12.9109 130.001L14.652 126.867C14.2445 126.355 14 125.706 14 125ZM7 126C6.44772 126 6 126.448 6 127C6 127.332 6.16102 127.627 6.41366 127.81C6.57827 127.93 6.77946 128 7 128C7.30755 128 7.58201 127.862 7.76701 127.642C7.84823 127.545 7.91086 127.433 7.95055 127.312C7.98238 127.215 8 127.111 8 127C8 126.448 7.55228 126 7 126ZM13 132C12.4477 132 12 132.448 12 133C12 133.332 12.161 133.627 12.4137 133.81C12.5783 133.93 12.7795 134 13 134C13.3075 134 13.582 133.862 13.767 133.642C13.8482 133.545 13.9109 133.433 13.9506 133.312C13.9824 133.215 14 133.111 14 133C14 132.448 13.5523 132 13 132ZM3 134C2.44772 134 2 134.448 2 135C2 135.332 2.16102 135.627 2.41366 135.81C2.57827 135.93 2.77946 136 3 136C3.30755 136 3.58201 135.862 3.76701 135.642C3.84823 135.545 3.91086 135.433 3.95055 135.312C3.98238 135.215 4 135.111 4 135C4 134.631 3.80078 134.308 3.49927 134.133C3.35321 134.049 3.1838 134 3 134Z" fill="#0F67EA"/>
<path fill-rule="evenodd" clip-rule="evenodd" d="M5.5 596.18C6.05228 596.18 6.5 596.627 6.5 597.18V598.18H9V597.18C9 596.627 9.44772 596.18 10 596.18C10.5523 596.18 11 596.627 11 597.18V598.18H13.5V597.18C13.5 596.627 13.9477 596.18 14.5 596.18C15.0523 596.18 15.5 596.627 15.5 597.18V598.18H16C17.6569 598.18 19 599.523 19 601.18V609.68C19 610.232 18.5523 610.68 18 610.68C17.4477 610.68 17 610.232 17 609.68V601.18C17 600.627 16.5523 600.18 16 600.18H4C3.44772 600.18 3 600.627 3 601.18V602.68H14C14.5523 602.68 15 603.127 15 603.68C15 604.232 14.5523 604.68 14 604.68H3V611.18C3 611.732 3.44772 612.18 4 612.18H14.5C15.0523 612.18 15.5 612.627 15.5 613.18C15.5 613.732 15.0523 614.18 14.5 614.18H4C2.34315 614.18 1 612.837 1 611.18V601.18C1 599.523 2.34315 598.18 4 598.18H4.5V597.18C4.5 596.627 4.94772 596.18 5.5 596.18Z" fill="#0F67EA"/>
<path fill-rule="evenodd" clip-rule="evenodd" d="M9.55301 1074.59C9.83453 1074.45 10.1659 1074.45 10.4474 1074.59L18.4474 1078.59C18.7862 1078.76 19.0002 1079.11 19.0002 1079.48C19.0002 1079.86 18.7862 1080.21 18.4474 1080.38L10.4474 1084.38C10.1659 1084.52 9.83453 1084.52 9.55301 1084.38L1.55301 1080.38C1.21422 1080.21 1.00022 1079.86 1.00022 1079.48C1.00022 1079.11 1.21422 1078.76 1.55301 1078.59L9.55301 1074.59ZM4.23629 1079.48L10.0002 1082.37L15.7642 1079.48L10.0002 1076.6L4.23629 1079.48ZM1.10579 1083.04C1.35278 1082.54 1.95345 1082.34 2.44743 1082.59L10.0002 1086.37L17.553 1082.59C18.047 1082.34 18.6477 1082.54 18.8946 1083.04C19.1416 1083.53 18.9414 1084.13 18.4474 1084.38L10.4474 1088.38C10.1659 1088.52 9.83453 1088.52 9.55301 1088.38L1.55301 1084.38C1.05903 1084.13 0.858803 1083.53 1.10579 1083.04ZM1.10579 1087.04C1.35278 1086.54 1.95345 1086.34 2.44743 1086.59L10.0002 1090.37L17.553 1086.59C18.047 1086.34 18.6477 1086.54 18.8946 1087.04C19.1416 1087.53 18.9414 1088.13 18.4474 1088.38L10.4474 1092.38C10.1659 1092.52 9.83453 1092.52 9.55301 1092.38L1.55301 1088.38C1.05903 1088.13 0.858803 1087.53 1.10579 1087.04Z" fill="#0F67EA"/>
<path fill-rule="evenodd" clip-rule="evenodd" d="M7.44971 1435.09L5.57729 1436.21C5.56906 1436.22 5.55903 1436.23 5.54994 1436.24C5.5408 1436.25 5.53275 1436.27 5.52781 1436.29C5.52286 1436.31 5.5215 1436.33 5.5241 1436.35C5.52668 1436.37 5.53296 1436.39 5.54131 1436.4L5.58383 1436.48C6.64783 1438.39 5.26716 1440.74 3.08108 1440.74C3.07138 1440.74 3.0545 1440.74 3.0363 1440.76C3.01693 1440.78 3 1440.81 3 1440.86V1443.1C3 1443.14 3.01693 1443.18 3.0363 1443.2C3.0545 1443.22 3.07138 1443.22 3.08108 1443.22C5.26716 1443.22 6.64783 1445.57 5.58383 1447.48L5.54173 1447.55C5.54174 1447.55 5.54171 1447.55 5.54173 1447.55C5.52429 1447.59 5.51791 1447.63 5.52828 1447.67C5.53849 1447.71 5.56058 1447.73 5.57719 1447.74C5.57723 1447.74 5.57715 1447.74 5.57719 1447.74L7.45003 1448.86C7.45009 1448.86 7.44997 1448.86 7.45003 1448.86C7.45814 1448.86 7.4654 1448.87 7.47114 1448.87C7.47689 1448.87 7.4828 1448.87 7.48923 1448.87C7.50139 1448.86 7.52267 1448.85 7.53953 1448.82C7.53956 1448.82 7.5395 1448.82 7.53953 1448.82L7.74008 1448.46C8.72654 1446.69 11.2735 1446.69 12.2599 1448.46L12.4598 1448.82C12.462 1448.82 12.4642 1448.83 12.4664 1448.83C12.4821 1448.86 12.5002 1448.87 12.511 1448.87C12.5175 1448.87 12.5234 1448.87 12.5292 1448.87C12.5349 1448.87 12.5421 1448.87 12.5503 1448.86M12.5503 1448.86L14.4227 1447.74C14.4393 1447.73 14.4615 1447.71 14.4717 1447.67C14.4821 1447.63 14.4758 1447.59 14.4583 1447.56L14.4156 1447.48C13.3519 1445.57 14.7328 1443.22 16.9189 1443.22C16.9286 1443.22 16.9455 1443.22 16.9637 1443.2C16.9831 1443.18 17 1443.14 17 1443.1V1440.86C17 1440.81 16.9831 1440.78 16.9637 1440.76C16.9455 1440.74 16.9286 1440.74 16.9189 1440.74C14.7328 1440.74 13.3521 1438.39 14.416 1436.48L14.4589 1436.4C14.4764 1436.37 14.4827 1436.33 14.4723 1436.29C14.4621 1436.25 14.44 1436.22 14.4234 1436.21L12.551 1435.09C12.5429 1435.09 12.5357 1435.09 12.5299 1435.09C12.5242 1435.09 12.5183 1435.09 12.5118 1435.09C12.4997 1435.09 12.4783 1435.1 12.4615 1435.13C11.3871 1437.06 8.61354 1437.06 7.53938 1435.13M7.44971 1435.09C7.4579 1435.09 7.46506 1435.09 7.47084 1435.09H7.44971ZM7.47084 1435.09C7.47661 1435.09 7.48252 1435.09 7.48895 1435.09H7.47084ZM6.42273 1433.38C6.90418 1433.09 7.48136 1433.01 8.02413 1433.16C8.56583 1433.31 9.01672 1433.68 9.28657 1434.16C9.59784 1434.72 10.4027 1434.72 10.7146 1434.16C10.9845 1433.68 11.4351 1433.31 11.9763 1433.16C12.5186 1433.01 13.0952 1433.09 13.5765 1433.38L15.4506 1434.5C15.93 1434.79 16.2704 1435.25 16.4086 1435.79C16.5466 1436.32 16.4756 1436.89 16.207 1437.37L16.1632 1437.45C15.8419 1438.03 16.2588 1438.74 16.9189 1438.74C17.4827 1438.74 18.0157 1438.97 18.403 1439.37C18.7891 1439.77 19 1440.31 19 1440.86V1443.1C19 1443.65 18.7891 1444.18 18.403 1444.59C18.0157 1444.99 17.4827 1445.22 16.9189 1445.22C16.2587 1445.22 15.8417 1445.93 16.1629 1446.51L16.2055 1446.58C16.4747 1447.07 16.5461 1447.64 16.4081 1448.17C16.2699 1448.7 15.9297 1449.17 15.4497 1449.46L13.5773 1450.58C13.0958 1450.87 12.5186 1450.95 11.9759 1450.8C11.4352 1450.64 10.985 1450.28 10.7149 1449.8C10.7093 1449.79 10.7039 1449.78 10.6986 1449.77L10.5128 1449.43C10.289 1449.03 9.71104 1449.03 9.4872 1449.43L9.28653 1449.8C9.01669 1450.28 8.56595 1450.64 8.02477 1450.79C7.48252 1450.94 6.90584 1450.86 6.42456 1450.58L4.55049 1449.46C4.07053 1449.17 3.73011 1448.7 3.59193 1448.17C3.45391 1447.63 3.52527 1447.06 3.79449 1446.58L3.83671 1446.5C4.15795 1445.93 3.7411 1445.22 3.08108 1445.22C2.51734 1445.22 1.98427 1444.99 1.59698 1444.59C1.21087 1444.18 1 1443.65 1 1443.1V1440.86C1 1440.31 1.21087 1439.77 1.59698 1439.37C1.98427 1438.97 2.51734 1438.74 3.08108 1438.74C3.7411 1438.74 4.15795 1438.03 3.83671 1437.45L3.7949 1437.38C3.79502 1437.38 3.79479 1437.38 3.7949 1437.38C3.66116 1437.14 3.57479 1436.87 3.54016 1436.6C3.50552 1436.33 3.52282 1436.05 3.59137 1435.79C3.65993 1435.52 3.77877 1435.27 3.94265 1435.05C4.1065 1434.83 4.31251 1434.64 4.55027 1434.5L6.42273 1433.38ZM7.48895 1435.09C7.50113 1435.09 7.5225 1435.1 7.53938 1435.13L7.48895 1435.09ZM10 1441.09C9.44772 1441.09 9 1441.53 9 1442.09C9 1442.64 9.44772 1443.09 10 1443.09C10.5523 1443.09 11 1442.64 11 1442.09C11 1441.53 10.5523 1441.09 10 1441.09ZM7 1442.09C7 1440.43 8.34315 1439.09 10 1439.09C11.6569 1439.09 13 1440.43 13 1442.09C13 1443.74 11.6569 1445.09 10 1445.09C8.34315 1445.09 7 1443.74 7 1442.09Z" fill="#0F67EA"/>
<path fill-rule="evenodd" clip-rule="evenodd" d="M1.11833 716.708C1.29235 716.383 1.63121 716.18 2 716.18H18C18.3761 716.18 18.7204 716.391 18.8911 716.726C19.0618 717.061 19.03 717.464 18.8087 717.768L14.8087 723.268C14.4839 723.715 13.8585 723.813 13.4118 723.488C12.9652 723.164 12.8664 722.538 13.1913 722.092L16.0362 718.18H3.86852L8.83205 725.625C8.94156 725.789 9 725.982 9 726.18V731.375L11 730.125V726.18C11 725.627 11.4477 725.18 12 725.18C12.5523 725.18 13 725.627 13 726.18V730.68C13 731.024 12.8224 731.345 12.53 731.528L8.53 734.028C8.22173 734.22 7.83319 734.231 7.51523 734.054C7.19728 733.878 7 733.543 7 733.18V726.482L1.16795 717.734C0.96338 717.428 0.944308 717.033 1.11833 716.708Z" fill="#0F67EA"/>
<path fill-rule="evenodd" clip-rule="evenodd" d="M13.0967 954.518C13.3528 954.45 13.6258 954.486 13.8555 954.618L18.5009 957.3C18.9792 957.577 19.1431 958.188 18.8669 958.666L16.1849 963.312C16.0523 963.542 15.8339 963.709 15.5777 963.778C15.3215 963.846 15.0485 963.81 14.8189 963.678L10.1734 960.996C9.69514 960.72 9.53127 960.108 9.80741 959.63L12.4894 954.984C12.6221 954.755 12.8405 954.587 13.0967 954.518ZM13.7215 956.85L12.0395 959.764L14.9528 961.446L16.6349 958.532L13.7215 956.85ZM1 957.484C1 956.932 1.44772 956.484 2 956.484H7C7.55228 956.484 8 956.932 8 957.484V962.484C8 963.037 7.55228 963.484 7 963.484H2C1.44772 963.484 1 963.037 1 962.484V957.484ZM3 958.484V961.484H6V958.484H3ZM1 966.484C1 965.932 1.44772 965.484 2 965.484H7C7.55228 965.484 8 965.932 8 966.484V971.484C8 972.037 7.55228 972.484 7 972.484H2C1.44772 972.484 1 972.037 1 971.484V966.484ZM3 967.484V970.484H6V967.484H3ZM10 966.484C10 965.932 10.4477 965.484 11 965.484H16C16.5523 965.484 17 965.932 17 966.484V971.484C17 972.037 16.5523 972.484 16 972.484H11C10.4477 972.484 10 972.037 10 971.484V966.484ZM12 967.484V970.484H15V967.484H12Z" fill="#0F67EA"/>
<path fill-rule="evenodd" clip-rule="evenodd" d="M10.0016 1316.78C8.39994 1316.78 7.10156 1318.08 7.10156 1319.68C7.10156 1321.28 8.39994 1322.58 10.0016 1322.58C11.6032 1322.58 12.9016 1321.28 12.9016 1319.68C12.9016 1318.08 11.6032 1316.78 10.0016 1316.78ZM5.10156 1319.68C5.10156 1316.98 7.29537 1314.78 10.0016 1314.78C12.7078 1314.78 14.9016 1316.98 14.9016 1319.68C14.9016 1321.13 14.2707 1322.44 13.2682 1323.33C15.773 1324.55 17.5 1327.12 17.5 1330.09C17.5 1330.64 17.0523 1331.09 16.5 1331.09C15.9477 1331.09 15.5 1330.64 15.5 1330.09C15.5 1327.05 13.0376 1324.59 10 1324.59C6.96243 1324.59 4.5 1327.05 4.5 1330.09C4.5 1330.64 4.05228 1331.09 3.5 1331.09C2.94772 1331.09 2.5 1330.64 2.5 1330.09C2.5 1327.11 4.22795 1324.55 6.73381 1323.33C5.73198 1322.44 5.10156 1321.13 5.10156 1319.68Z" fill="#0F67EA"/>
<path fill-rule="evenodd" clip-rule="evenodd" d="M0.847656 1195.63C0.847656 1195 1.36253 1194.48 1.99766 1194.48C11.4693 1194.48 19.1476 1202.16 19.1476 1211.63H16.8476C16.8476 1203.43 10.199 1196.78 1.99766 1196.78C1.36253 1196.78 0.847656 1196.27 0.847656 1195.63ZM0.847656 1200.63C0.847656 1200 1.36253 1199.48 1.99766 1199.48C8.70792 1199.48 14.1476 1204.92 14.1476 1211.63H11.8476C11.8476 1206.19 7.43766 1201.78 1.99766 1201.78C1.36253 1201.78 0.847656 1201.27 0.847656 1200.63ZM4.49766 1207.78C3.75207 1207.78 3.14766 1208.39 3.14766 1209.13C3.14766 1209.88 3.75207 1210.48 4.49766 1210.48C5.24324 1210.48 5.84766 1209.88 5.84766 1209.13C5.84766 1208.39 5.24324 1207.78 4.49766 1207.78ZM0.847656 1209.13C0.847656 1207.12 2.48182 1205.48 4.49766 1205.48C6.5135 1205.48 8.14766 1207.12 8.14766 1209.13C8.14766 1211.15 6.5135 1212.78 4.49766 1212.78C2.48182 1212.78 0.847656 1211.15 0.847656 1209.13Z" fill="#0F67EA"/>
<path fill-rule="evenodd" clip-rule="evenodd" d="M14.2272 836.361C14.6796 836.044 15.3032 836.154 15.6199 836.606C16.4148 837.741 17.001 839.354 17.001 840.68V840.71C17.001 841.234 17.0011 841.811 16.885 842.452C16.8051 842.893 16.6737 843.35 16.4658 843.848C18.5465 845.529 19.5011 848.345 19.5011 851.483C19.5011 852.035 19.0533 852.483 18.5011 852.483C17.9488 852.483 17.5011 852.035 17.5011 851.483C17.5011 848.369 16.4534 846.106 14.6833 845.035C14.2288 844.76 14.0686 844.178 14.3186 843.709C14.6761 843.039 14.8378 842.533 14.917 842.096C14.9987 841.645 15.001 841.231 15.001 840.68C15.001 839.838 14.5872 838.618 13.9816 837.753C13.6649 837.301 13.7748 836.677 14.2272 836.361ZM8.00156 838.18C6.39994 838.18 5.10156 839.478 5.10156 841.08C5.10156 842.681 6.39994 843.98 8.00156 843.98C9.60319 843.98 10.9016 842.681 10.9016 841.08C10.9016 839.478 9.60319 838.18 8.00156 838.18ZM3.10156 841.08C3.10156 838.374 5.29537 836.18 8.00156 836.18C10.7078 836.18 12.9016 838.374 12.9016 841.08C12.9016 842.531 12.2707 843.835 11.2682 844.732C13.773 845.947 15.5 848.514 15.5 851.484C15.5 852.037 15.0523 852.484 14.5 852.484C13.9477 852.484 13.5 852.037 13.5 851.484C13.5 848.447 11.0376 845.984 8 845.984C4.96243 845.984 2.5 848.447 2.5 851.484C2.5 852.037 2.05228 852.484 1.5 852.484C0.947715 852.484 0.5 852.037 0.5 851.484C0.5 848.513 2.22795 845.945 4.73381 844.731C3.73198 843.834 3.10156 842.53 3.10156 841.08Z" fill="#0F67EA"/>
<path fill-rule="evenodd" clip-rule="evenodd" d="M1.39487 1910.91C1.64366 1910.72 1.96655 1910.66 2.26764 1910.74L11.2676 1913.24C11.7005 1913.36 12 1913.75 12 1914.2V1917.88L17.7253 1916.24C18.027 1916.16 18.3517 1916.22 18.6022 1916.4C18.8527 1916.59 19 1916.89 19 1917.2V1927.7C19 1928.26 18.5523 1928.7 18 1928.7H2C1.44772 1928.7 1 1928.26 1 1927.7V1911.7C1 1911.39 1.14608 1911.1 1.39487 1910.91ZM12 1919.96V1926.7H17V1918.53L12 1919.96ZM10 1926.7V1914.96L3 1913.02V1926.7H10ZM4.5 1917.7C4.5 1917.15 4.94772 1916.7 5.5 1916.7H7.5C8.05228 1916.7 8.5 1917.15 8.5 1917.7C8.5 1918.26 8.05228 1918.7 7.5 1918.7H5.5C4.94772 1918.7 4.5 1918.26 4.5 1917.7ZM4.5 1921.7C4.5 1921.15 4.94772 1920.7 5.5 1920.7H7.5C8.05228 1920.7 8.5 1921.15 8.5 1921.7C8.5 1922.26 8.05228 1922.7 7.5 1922.7H5.5C4.94772 1922.7 4.5 1922.26 4.5 1921.7Z" fill="#0F67EA"/>
<path fill-rule="evenodd" clip-rule="evenodd" d="M3.0644 1553.51C3.2113 1553.12 3.58391 1552.87 4 1552.87H16C16.4197 1552.87 16.7947 1553.13 16.939 1553.52L18.939 1558.98C18.9793 1559.09 19 1559.21 19 1559.33C19 1561.44 17.2882 1562.87 15.3333 1562.87C14.3064 1562.87 13.3465 1562.47 12.6667 1561.79C11.9868 1562.47 11.0269 1562.87 10 1562.87C8.97305 1562.87 8.01319 1562.47 7.33333 1561.79C6.65348 1562.47 5.69361 1562.87 4.66667 1562.87C4.43878 1562.87 4.21599 1562.85 4 1562.81V1568.27H16V1564.77C16 1564.22 16.4477 1563.77 17 1563.77C17.5523 1563.77 18 1564.22 18 1564.77V1568.27C18 1569.38 17.1046 1570.27 16 1570.27H4C2.89543 1570.27 2 1569.38 2 1568.27V1561.71C1.37906 1561.04 1 1560.15 1 1559.17C1 1559.05 1.02182 1558.93 1.0644 1558.81L3.0644 1553.51ZM8.3342 1559.38C8.36141 1560.23 9.02983 1560.87 10 1560.87C10.9702 1560.87 11.6386 1560.23 11.6658 1559.38L11.1147 1554.87H8.88533L8.3342 1559.38ZM6.87048 1554.87L6.3407 1559.21C6.33579 1559.25 6.33333 1559.29 6.33333 1559.33C6.33333 1560.2 5.65731 1560.87 4.66667 1560.87C3.81037 1560.87 3.08805 1560.2 3.00747 1559.33L4.69147 1554.87H6.87048ZM13.1295 1554.87L13.6593 1559.21C13.6642 1559.25 13.6667 1559.29 13.6667 1559.33C13.6667 1560.2 14.3427 1560.87 15.3333 1560.87C16.2636 1560.87 16.9164 1560.28 16.9925 1559.48L15.3013 1554.87H13.1295Z" fill="#0F67EA"/>
<path fill-rule="evenodd" clip-rule="evenodd" d="M15.5257 1672.42C15.8205 1672.6 16 1672.93 16 1673.27V1677.27C17.6569 1677.27 19 1678.62 19 1680.27V1681.27C19 1682.93 17.6569 1684.27 16 1684.27V1687.27C16 1687.62 15.8205 1687.94 15.5257 1688.12C15.2309 1688.31 14.8628 1688.32 14.5528 1688.17L5.76393 1683.77H4.943L5.93633 1686.42C6.13025 1686.94 5.86824 1687.52 5.35112 1687.71C4.834 1687.9 4.25759 1687.64 4.06367 1687.12L2.80342 1683.76C1.79112 1683.67 1 1682.81 1 1681.77V1678.77C1 1677.67 1.89543 1676.77 3 1676.77H5.76393L14.5528 1672.38C14.8628 1672.22 15.2309 1672.24 15.5257 1672.42ZM5 1678.77H3V1681.77H5V1678.77ZM7 1682.16L14 1685.66V1674.89L7 1678.39V1682.16ZM16 1682.27C16.5523 1682.27 17 1681.83 17 1681.27V1680.27C17 1679.72 16.5523 1679.27 16 1679.27V1682.27Z" fill="#0F67EA"/>
<path fill-rule="evenodd" clip-rule="evenodd" d="M4.68987 1792.51C7.62031 1789.53 12.3797 1789.53 15.3101 1792.51C18.23 1795.49 18.23 1800.31 15.3101 1803.29L10 1808.7L4.68987 1803.29C1.77004 1800.31 1.77004 1795.49 4.68987 1792.51ZM13.8823 1793.91C11.7359 1791.73 8.26412 1791.73 6.11774 1793.91C3.96075 1796.11 3.96075 1799.69 6.11774 1801.89L10 1805.85L13.8823 1801.89C16.0392 1799.69 16.0392 1796.11 13.8823 1793.91ZM10 1796.27C9.17157 1796.27 8.5 1796.95 8.5 1797.77C8.5 1798.6 9.17157 1799.27 10 1799.27C10.8284 1799.27 11.5 1798.6 11.5 1797.77C11.5 1796.95 10.8284 1796.27 10 1796.27ZM6.5 1797.77C6.5 1795.84 8.067 1794.27 10 1794.27C11.933 1794.27 13.5 1795.84 13.5 1797.77C13.5 1799.71 11.933 1801.27 10 1801.27C8.067 1801.27 6.5 1799.71 6.5 1797.77Z" fill="#0F67EA"/>
<path fill-rule="evenodd" clip-rule="evenodd" d="M15 2272.7H5C3.89543 2272.7 3 2273.6 3 2274.7V2284.7C3 2285.81 3.89543 2286.7 5 2286.7H15C16.1046 2286.7 17 2285.81 17 2284.7V2274.7C17 2273.6 16.1046 2272.7 15 2272.7ZM5 2270.7C2.79086 2270.7 1 2272.49 1 2274.7V2284.7C1 2286.91 2.79086 2288.7 5 2288.7H15C17.2091 2288.7 19 2286.91 19 2284.7V2274.7C19 2272.49 17.2091 2270.7 15 2270.7H5Z" fill="#0F67EA"/>
<path d="M14.7802 2276.9C14.495 2277.03 14.1953 2277.12 13.8881 2277.16C14.0318 2277.14 14.2431 2276.87 14.3276 2276.76C14.4554 2276.6 14.5532 2276.41 14.6154 2276.22C14.6154 2276.2 14.63 2276.18 14.6155 2276.17C14.6087 2276.16 14.6006 2276.16 14.592 2276.16C14.5838 2276.16 14.5757 2276.16 14.5684 2276.17C14.2354 2276.36 13.8809 2276.5 13.5128 2276.59C13.4997 2276.6 13.4861 2276.6 13.4734 2276.59C13.4603 2276.59 13.4485 2276.58 13.439 2276.57C13.4106 2276.54 13.3799 2276.5 13.3473 2276.47C13.1978 2276.34 13.0282 2276.22 12.8446 2276.14C12.5966 2276.03 12.3286 2275.99 12.0609 2276C11.8009 2276.02 11.547 2276.09 11.3148 2276.22C11.0866 2276.35 10.8855 2276.52 10.7241 2276.73C10.5541 2276.95 10.4312 2277.2 10.3638 2277.47C10.3079 2277.73 10.3008 2278 10.3432 2278.26C10.3431 2278.3 10.343 2278.31 10.3064 2278.3C8.84672 2278.08 7.65012 2277.54 6.6744 2276.39C6.6315 2276.34 6.6093 2276.34 6.57429 2276.39C6.14673 2277.06 6.35043 2278.12 6.88124 2278.64C6.95307 2278.71 7.02627 2278.78 7.10401 2278.85C6.85992 2278.83 6.6223 2278.76 6.40429 2278.64C6.3636 2278.62 6.34091 2278.63 6.33897 2278.68C6.33289 2278.75 6.3327 2278.82 6.3384 2278.89C6.38007 2279.23 6.50785 2279.55 6.70868 2279.82C6.90907 2280.09 7.17574 2280.3 7.48068 2280.43C7.55488 2280.46 7.63226 2280.49 7.71194 2280.5C7.4858 2280.55 7.25388 2280.56 7.02568 2280.52C6.97679 2280.51 6.95814 2280.54 6.97658 2280.59C7.27506 2281.44 7.92797 2281.69 8.4068 2281.84C8.47199 2281.85 8.53767 2281.85 8.61145 2281.87L8.59919 2281.88C8.45716 2282.15 7.88551 2282.33 7.62255 2282.42C7.14377 2282.6 6.63312 2282.66 6.1273 2282.62C6.04717 2282.61 6.02905 2282.61 6.00863 2282.62C5.98777 2282.63 6.00854 2282.65 6.03068 2282.67C6.13286 2282.74 6.23506 2282.8 6.34134 2282.86C6.65792 2283.04 6.99272 2283.18 7.33986 2283.29C9.13622 2283.8 11.1605 2283.42 12.514 2282.04C13.5777 2280.95 13.9545 2279.44 13.9585 2277.94C13.9587 2277.88 14.0262 2277.85 14.0653 2277.82C14.334 2277.6 14.5711 2277.35 14.7694 2277.06C14.8035 2277.02 14.8213 2276.96 14.8187 2276.91C14.8188 2276.88 14.8188 2276.88 14.7802 2276.9Z" fill="#0F67EA"/>
<path fill-rule="evenodd" clip-rule="evenodd" d="M15 2991.2H5C3.89543 2991.2 3 2992.1 3 2993.2V3003.2C3 3004.31 3.89543 3005.2 5 3005.2H15C16.1046 3005.2 17 3004.31 17 3003.2V2993.2C17 2992.1 16.1046 2991.2 15 2991.2ZM5 2989.2C2.79086 2989.2 1 2990.99 1 2993.2V3003.2C1 3005.41 2.79086 3007.2 5 3007.2H15C17.2091 3007.2 19 3005.41 19 3003.2V2993.2C19 2990.99 17.2091 2989.2 15 2989.2H5Z" fill="#0F67EA"/>
<path d="M15.625 2995.2H11.875L15.625 2998.95V2995.2Z" fill="#0F67EA"/>
<path fill-rule="evenodd" clip-rule="evenodd" d="M14.8601 2996.18C15.2345 2996.59 15.209 2997.22 14.803 2997.59L11.178 3000.94C10.8188 3001.27 10.2728 3001.29 9.88679 3000.99L8.17607 2999.66L5.67305 3001.94C5.26458 3002.31 4.63211 3002.28 4.2604 3001.88C3.88869 3001.47 3.91849 3000.84 4.32697 3000.46L7.45197 2997.62C7.8115 2997.29 8.35424 2997.27 8.73823 2997.57L10.4444 2998.89L13.447 2996.12C13.8529 2995.75 14.4856 2995.78 14.8601 2996.18Z" fill="#0F67EA"/>
<path fill-rule="evenodd" clip-rule="evenodd" d="M15 2512.7H5C3.89543 2512.7 3 2513.6 3 2514.7V2524.7C3 2525.81 3.89543 2526.7 5 2526.7H15C16.1046 2526.7 17 2525.81 17 2524.7V2514.7C17 2513.6 16.1046 2512.7 15 2512.7ZM5 2510.7C2.79086 2510.7 1 2512.49 1 2514.7V2524.7C1 2526.91 2.79086 2528.7 5 2528.7H15C17.2091 2528.7 19 2526.91 19 2524.7V2514.7C19 2512.49 17.2091 2510.7 15 2510.7H5Z" fill="#0F67EA"/>
<path fill-rule="evenodd" clip-rule="evenodd" d="M14.2925 2516.18C14.7538 2516.3 15.1163 2516.66 15.2398 2517.12C15.4629 2517.96 15.4638 2519.7 15.4638 2519.7C15.4638 2519.7 15.4638 2521.45 15.2398 2522.28C15.1163 2522.74 14.7538 2523.11 14.2925 2523.23C13.4574 2523.45 10.1069 2523.45 10.1069 2523.45C10.1069 2523.45 6.75641 2523.45 5.92121 2523.23C5.45996 2523.11 5.09748 2522.74 4.97401 2522.28C4.75 2521.45 4.75 2519.7 4.75 2519.7C4.75 2519.7 4.75 2517.96 4.97401 2517.12C5.09748 2516.66 5.45996 2516.3 5.92121 2516.18C6.75641 2515.95 10.1069 2515.95 10.1069 2515.95C10.1069 2515.95 13.4574 2515.95 14.2925 2516.18ZM11.8147 2519.7L9.03125 2521.31V2518.09L11.8147 2519.7Z" fill="#0F67EA"/>
<path fill-rule="evenodd" clip-rule="evenodd" d="M15 2152.7H5C3.89543 2152.7 3 2153.6 3 2154.7V2164.7C3 2165.81 3.89543 2166.7 5 2166.7H15C16.1046 2166.7 17 2165.81 17 2164.7V2154.7C17 2153.6 16.1046 2152.7 15 2152.7ZM5 2150.7C2.79086 2150.7 1 2152.49 1 2154.7V2164.7C1 2166.91 2.79086 2168.7 5 2168.7H15C17.2091 2168.7 19 2166.91 19 2164.7V2154.7C19 2152.49 17.2091 2150.7 15 2150.7H5Z" fill="#0F67EA"/>
<path d="M15 2155.7C14.4477 2155.7 14 2155.26 14 2154.7C14 2154.15 14.4477 2153.7 15 2153.7C15.5523 2153.7 16 2154.15 16 2154.7C16 2155.26 15.5523 2155.7 15 2155.7Z" fill="#0F67EA"/>
<path fill-rule="evenodd" clip-rule="evenodd" d="M10 2156.7C8.34315 2156.7 7 2158.05 7 2159.7C7 2161.36 8.34315 2162.7 10 2162.7C11.6569 2162.7 13 2161.36 13 2159.7C13 2158.05 11.6569 2156.7 10 2156.7ZM5 2159.7C5 2156.94 7.23858 2154.7 10 2154.7C12.7614 2154.7 15 2156.94 15 2159.7C15 2162.46 12.7614 2164.7 10 2164.7C7.23858 2164.7 5 2162.46 5 2159.7Z" fill="#0F67EA"/>
<path fill-rule="evenodd" clip-rule="evenodd" d="M15 2871.2H5C3.89543 2871.2 3 2872.1 3 2873.2V2883.2C3 2884.31 3.89543 2885.2 5 2885.2H15C16.1046 2885.2 17 2884.31 17 2883.2V2873.2C17 2872.1 16.1046 2871.2 15 2871.2ZM5 2869.2C2.79086 2869.2 1 2870.99 1 2873.2V2883.2C1 2885.41 2.79086 2887.2 5 2887.2H15C17.2091 2887.2 19 2885.41 19 2883.2V2873.2C19 2870.99 17.2091 2869.2 15 2869.2H5Z" fill="#0F67EA"/>
<path fill-rule="evenodd" clip-rule="evenodd" d="M10 2873.7L11.9285 2873.33C12.0546 2873.64 12.3384 2874.15 12.7406 2874.56C13.1432 2874.98 13.5681 2875.2 14 2875.2V2877.2C13.2114 2877.2 12.5412 2876.92 12 2876.55V2880.2C12 2881.86 10.6569 2883.2 9 2883.2C7.34315 2883.2 6 2881.86 6 2880.2C6 2878.54 7.34315 2877.2 9 2877.2V2879.2C8.44772 2879.2 8 2879.65 8 2880.2C8 2880.75 8.44772 2881.2 9 2881.2C9.55228 2881.2 10 2880.75 10 2880.2V2873.7Z" fill="#0F67EA"/>
<path d="M10 2873.2H12V2874.2H10V2873.2Z" fill="#0F67EA"/>
<path fill-rule="evenodd" clip-rule="evenodd" d="M3.13015 2751.21C3.3082 2750.9 3.63954 2750.7 3.9984 2750.7H15.9983C16.3572 2750.7 16.6885 2750.9 16.8666 2751.21L18.6031 2754.25C18.8284 2754.64 19.087 2755.28 18.8938 2755.99C18.6844 2756.76 18.1752 2757.41 17.4983 2757.8V2764.2C17.4983 2765.86 16.1552 2767.2 14.4983 2767.2H4.9984C3.34154 2767.2 1.9984 2765.86 1.9984 2764.2V2757.44C1.57289 2757.06 1.25688 2756.56 1.10294 2755.99C0.909711 2755.28 1.1684 2754.64 1.39367 2754.25L3.13015 2751.21ZM3.9984 2758.2V2764.2C3.9984 2764.76 4.44611 2765.2 4.9984 2765.2H14.4983C15.0506 2765.2 15.4983 2764.76 15.4983 2764.2V2758.16C14.9276 2758.07 14.4114 2757.81 13.9983 2757.44C13.4676 2757.91 12.7667 2758.2 11.9983 2758.2C11.23 2758.2 10.5291 2757.91 9.99835 2757.44C9.46764 2757.91 8.76675 2758.2 7.9984 2758.2C7.23004 2758.2 6.52915 2757.91 5.9984 2757.44C5.46764 2757.91 4.76675 2758.2 3.9984 2758.2ZM6.9984 2755.2C6.9984 2755.76 7.44611 2756.2 7.9984 2756.2C8.55068 2756.2 8.9984 2755.76 8.9984 2755.2C8.9984 2754.65 9.44611 2754.2 9.99835 2754.2C10.5506 2754.2 10.9983 2754.65 10.9983 2755.2C10.9983 2755.76 11.4461 2756.2 11.9983 2756.2C12.5506 2756.2 12.9983 2755.76 12.9983 2755.2C12.9983 2754.65 13.4461 2754.2 13.9983 2754.2C14.5506 2754.2 14.9983 2754.65 14.9983 2755.2C14.9983 2755.76 15.4461 2756.2 15.9983 2756.2C16.455 2756.2 16.8424 2755.9 16.961 2755.48C16.9606 2755.47 16.9595 2755.46 16.956 2755.45C16.9457 2755.4 16.9197 2755.33 16.8666 2755.24L15.418 2752.7H4.57872L3.13015 2755.24C3.07714 2755.33 3.05108 2755.4 3.0407 2755.45C3.03729 2755.46 3.03612 2755.47 3.03574 2755.48C3.15433 2755.9 3.54179 2756.2 3.9984 2756.2C4.55068 2756.2 4.9984 2755.76 4.9984 2755.2C4.9984 2754.65 5.44611 2754.2 5.9984 2754.2C6.55068 2754.2 6.9984 2754.65 6.9984 2755.2Z" fill="#0F67EA"/>
<path d="M13.8997 2761.49C13.8921 2761.39 13.8794 2761.29 13.8614 2761.18H11.5054C11.5054 2761.5 11.5054 2761.85 11.5041 2762.18H12.869C12.84 2762.33 12.7809 2762.47 12.6952 2762.6C12.6094 2762.73 12.4987 2762.84 12.3693 2762.92C12.2023 2763.02 12.0131 2763.1 11.8159 2763.13C11.6182 2763.16 11.4155 2763.16 11.2181 2763.13C11.0177 2763.09 10.828 2763 10.6607 2762.89C10.4137 2762.72 10.2232 2762.48 10.1126 2762.2C10.1042 2762.18 10.0964 2762.16 10.0884 2762.14V2762.13H10.0905C9.98313 2761.82 9.98284 2761.49 10.0897 2761.18C10.165 2760.96 10.2888 2760.77 10.4522 2760.6C10.8354 2760.21 11.4081 2760.07 11.936 2760.22C12.1384 2760.28 12.3234 2760.39 12.4759 2760.53L12.9364 2760.08C13.0176 2760 13.102 2759.92 13.1801 2759.84C12.9466 2759.63 12.6726 2759.46 12.3735 2759.35C11.8294 2759.16 11.2341 2759.15 10.6865 2759.34C10.6674 2759.34 10.6485 2759.35 10.6296 2759.36C10.0389 2759.58 9.55293 2760 9.2677 2760.55C9.16698 2760.75 9.09363 2760.96 9.04965 2761.17C8.78883 2762.44 9.57971 2763.69 10.8566 2764.03C11.274 2764.14 11.7178 2764.14 12.1384 2764.04C12.5206 2763.96 12.874 2763.78 13.1644 2763.52C13.4672 2763.25 13.6843 2762.88 13.798 2762.5C13.8931 2762.17 13.9276 2761.83 13.8997 2761.49Z" fill="#0F67EA"/>
<path fill-rule="evenodd" clip-rule="evenodd" d="M15 2392.7H5C3.89543 2392.7 3 2393.6 3 2394.7V2404.7C3 2405.81 3.89543 2406.7 5 2406.7H15C16.1046 2406.7 17 2405.81 17 2404.7V2394.7C17 2393.6 16.1046 2392.7 15 2392.7ZM5 2390.7C2.79086 2390.7 1 2392.49 1 2394.7V2404.7C1 2406.91 2.79086 2408.7 5 2408.7H15C17.2091 2408.7 19 2406.91 19 2404.7V2394.7C19 2392.49 17.2091 2390.7 15 2390.7H5Z" fill="#0F67EA"/>
<path d="M7.3833 2404.58V2398H5.13249V2404.58H7.3833ZM6.25827 2397.2C7.04261 2397.2 7.53169 2396.6 7.53169 2395.97C7.51654 2395.32 7.02823 2394.7 6.25827 2394.7C5.48832 2394.7 5 2395.32 5 2395.97C5 2396.61 5.5027 2397.2 6.25827 2397.2ZM8.62946 2404.58H10.8803V2400.9C10.8803 2400.71 10.8947 2400.51 10.9545 2400.37C11.1165 2399.98 11.4875 2399.57 12.109 2399.57C12.9236 2399.57 13.2492 2400.17 13.2492 2401.06V2404.58H15.5V2400.81C15.5 2398.79 14.3901 2397.84 12.9085 2397.84C11.6941 2397.84 11.1612 2398.5 10.8644 2398.95H10.8788V2398H8.62795C8.65824 2398.62 8.62795 2404.58 8.62795 2404.58H8.62946Z" fill="#0F67EA"/>
<path fill-rule="evenodd" clip-rule="evenodd" d="M15 2032.7H5C3.89543 2032.7 3 2033.6 3 2034.7V2044.7C3 2045.81 3.89543 2046.7 5 2046.7H15C16.1046 2046.7 17 2045.81 17 2044.7V2034.7C17 2033.6 16.1046 2032.7 15 2032.7ZM5 2030.7C2.79086 2030.7 1 2032.49 1 2034.7V2044.7C1 2046.91 2.79086 2048.7 5 2048.7H15C17.2091 2048.7 19 2046.91 19 2044.7V2034.7C19 2032.49 17.2091 2030.7 15 2030.7H5Z" fill="#0F67EA"/>
<path d="M11.3953 2048.7H8.32558V2042.88H6V2040.31H8.32558V2038.29C8.32558 2035.99 9.81395 2034.7 11.9535 2034.7C12.6047 2034.7 13.3488 2034.8 14 2034.89V2037.23H12.7907C11.6744 2037.23 11.3953 2037.78 11.3953 2038.52V2040.31H13.8605L13.4419 2042.88H11.3953V2048.7Z" fill="#0F67EA"/>
<path fill-rule="evenodd" clip-rule="evenodd" d="M15 2632.7H5C3.89543 2632.7 3 2633.6 3 2634.7V2644.7C3 2645.81 3.89543 2646.7 5 2646.7H15C16.1046 2646.7 17 2645.81 17 2644.7V2634.7C17 2633.6 16.1046 2632.7 15 2632.7ZM5 2630.7C2.79086 2630.7 1 2632.49 1 2634.7V2644.7C1 2646.91 2.79086 2648.7 5 2648.7H15C17.2091 2648.7 19 2646.91 19 2644.7V2634.7C19 2632.49 17.2091 2630.7 15 2630.7H5Z" fill="#0F67EA"/>
<path d="M8.00467 2645.2C7.98828 2645.18 7.57483 2645.9 7.57483 2645.9C7.57483 2645.9 7.50293 2645.05 7.51368 2645.06C7.45621 2644.52 7.40638 2643.68 7.55018 2643.09C7.68014 2642.56 8.38848 2639.69 8.38848 2639.69C8.38848 2639.69 8.18266 2639.28 8.18647 2638.67C8.19245 2637.72 8.7584 2637.01 9.45752 2637.01C10.0519 2637.01 10.3362 2637.45 10.3329 2637.98C10.3306 2638.35 10.1725 2638.84 10.006 2639.36C9.91163 2639.66 9.81456 2639.96 9.74166 2640.25C9.57325 2640.94 10.0816 2641.49 10.7655 2641.49C12.0038 2641.49 12.9636 2640.21 12.9753 2638.36C12.9855 2636.72 11.7942 2635.57 10.0827 2635.57C8.10041 2635.57 6.92771 2637.03 6.91823 2638.54C6.91454 2639.13 7.14124 2639.76 7.42691 2640.1C7.48342 2640.17 7.49139 2640.23 7.47399 2640.3C7.44342 2640.42 7.39181 2640.62 7.34836 2640.79C7.31477 2640.92 7.28595 2641.04 7.27563 2641.08C7.24447 2641.2 7.17371 2641.23 7.04206 2641.17C6.17445 2640.77 5.63829 2639.52 5.64459 2638.52C5.65815 2636.36 7.26734 2634.38 10.2738 2634.38C12.6906 2634.38 14.5581 2636.07 14.5439 2638.33C14.5291 2640.69 13.0032 2642.59 10.902 2642.59C10.196 2642.59 9.53466 2642.23 9.31015 2641.8C9.31015 2641.8 8.95261 2643.11 8.86591 2643.43C8.70785 2644.01 8.29126 2644.74 8.00467 2645.2Z" fill="#0F67EA"/>
<path fill-rule="evenodd" clip-rule="evenodd" d="M6.73367 2635.53C7.54523 2634.73 8.7388 2634.23 10.2764 2634.23C12.7631 2634.23 14.7103 2635.97 14.6955 2638.33C14.6803 2640.74 13.1112 2642.74 10.9027 2642.74C10.525 2642.74 10.16 2642.64 9.85842 2642.49C9.67236 2642.39 9.50576 2642.27 9.37486 2642.14L9.26679 2642.53C9.16654 2642.9 9.05554 2643.31 9.01225 2643.47C8.84773 2644.07 8.41983 2644.82 8.13315 2645.28L8.0342 2645.43H8.0284C7.99398 2645.48 7.95404 2645.55 7.91398 2645.62C7.86158 2645.71 7.80964 2645.79 7.77074 2645.86L7.72388 2645.94L7.70651 2645.97L7.57639 2645.9L7.42692 2645.91L7.41583 2645.78C7.40925 2645.7 7.40058 2645.6 7.39224 2645.49C7.38392 2645.38 7.37588 2645.28 7.37059 2645.2C7.36796 2645.16 7.36593 2645.13 7.36491 2645.1C7.36442 2645.09 7.36406 2645.08 7.36416 2645.07C7.36418 2645.07 7.36422 2645.06 7.36435 2645.06C7.30757 2644.52 7.2569 2643.67 7.406 2643.06C7.47105 2642.79 7.68071 2641.94 7.874 2641.16L8.23198 2639.71C8.22794 2639.7 8.22348 2639.69 8.21869 2639.67C8.19775 2639.62 8.17041 2639.55 8.14336 2639.45C8.08932 2639.26 8.03602 2639 8.03803 2638.68C8.04428 2637.68 8.64364 2636.86 9.46002 2636.86C9.79761 2636.86 10.061 2636.99 10.2368 2637.2C10.4095 2637.41 10.4863 2637.69 10.4845 2637.98C10.482 2638.37 10.3183 2638.89 10.1569 2639.39L10.1504 2639.41C10.0557 2639.7 9.96028 2640 9.88881 2640.29C9.74711 2640.86 10.1669 2641.34 10.7681 2641.34C11.3302 2641.34 11.8371 2641.05 12.2103 2640.53C12.5846 2640.01 12.8212 2639.26 12.8269 2638.36C12.8318 2637.58 12.5509 2636.92 12.0719 2636.46C11.5923 2636 10.9052 2635.72 10.0834 2635.72C8.18778 2635.72 7.07877 2637.11 7.06979 2638.54C7.06629 2639.1 7.28341 2639.7 7.54393 2640.01C7.54394 2640.01 7.54392 2640.01 7.54393 2640.01L7.42847 2640.11M7.49506 2640.83C7.46136 2640.96 7.43288 2641.07 7.42275 2641.11C7.4029 2641.19 7.35851 2641.29 7.2516 2641.33C7.15383 2641.37 7.05423 2641.34 6.98038 2641.31C6.50494 2641.09 6.13332 2640.64 5.88268 2640.14C5.63127 2639.63 5.49284 2639.05 5.49615 2638.52C5.50316 2637.4 5.92307 2636.33 6.73367 2635.53M8.39004 2639.69L8.53565 2639.73L8.16525 2641.23C7.97189 2642.01 7.76239 2642.86 7.69748 2643.13C7.5605 2643.69 7.60691 2644.5 7.66441 2645.04L7.69046 2645.29L7.67737 2645.28C7.68042 2645.32 7.68381 2645.37 7.68735 2645.41C7.72987 2645.34 7.77152 2645.27 7.80549 2645.22C7.82633 2645.19 7.84564 2645.16 7.86103 2645.14C7.86815 2645.13 7.87747 2645.11 7.88733 2645.1C7.88842 2645.1 7.8901 2645.1 7.89231 2645.1C8.17793 2644.64 8.57337 2643.94 8.7227 2643.39M8.52419 2639.62H8.52314L8.51789 2639.61C8.51312 2639.6 8.50596 2639.58 8.49719 2639.56C8.47966 2639.52 8.45578 2639.45 8.43185 2639.37C8.38394 2639.2 8.33623 2638.96 8.33803 2638.68C8.34373 2637.77 8.87627 2637.16 9.45814 2637.16C9.71492 2637.16 9.8909 2637.26 10.0051 2637.39C10.1224 2637.54 10.186 2637.74 10.1845 2637.98C10.1824 2638.32 10.0342 2638.79 9.86475 2639.32C9.77092 2639.61 9.67175 2639.92 9.59762 2640.22C9.40256 2641.01 9.99956 2641.64 10.7662 2641.64C11.4423 2641.64 12.0344 2641.29 12.4537 2640.71C12.8717 2640.12 13.1209 2639.31 13.1269 2638.36C13.1323 2637.5 12.8226 2636.76 12.2806 2636.24C11.7392 2635.72 10.9749 2635.42 10.0852 2635.42C8.01615 2635.42 6.77976 2636.96 6.76979 2638.54C6.7659 2639.16 7.00216 2639.83 7.31297 2640.2C7.32949 2640.22 7.33236 2640.23 7.33307 2640.24C7.33381 2640.24 7.3349 2640.25 7.33009 2640.27C7.29965 2640.39 7.24817 2640.59 7.20467 2640.76M8.52419 2639.62L8.54893 2639.67L8.53565 2639.73L8.39004 2639.69M7.57639 2645.9L7.42692 2645.91L7.4674 2646.39L7.70651 2645.97L7.57639 2645.9ZM9.31171 2641.8L9.16704 2641.76L9.26755 2641.4L9.44449 2641.73C9.53811 2641.91 9.73196 2642.09 9.99578 2642.22C10.2576 2642.35 10.5763 2642.44 10.9046 2642.44C12.8985 2642.44 14.381 2640.63 14.3955 2638.33C14.4091 2636.16 12.6213 2634.53 10.2745 2634.53C8.80548 2634.53 7.69122 2635.01 6.94317 2635.74C6.19416 2636.48 5.80269 2637.48 5.79615 2638.52C5.79315 2639 5.91966 2639.54 6.15165 2640C6.38442 2640.47 6.7147 2640.85 7.10686 2641.03C7.11624 2641.04 7.12441 2641.04 7.13147 2641.04C7.13153 2641.04 7.13142 2641.04 7.13147 2641.04" fill="#0F67EA"/>
<path d="M1 3953.2C1 3950.99 2.79086 3949.2 5 3949.2H15C17.2091 3949.2 19 3950.99 19 3953.2V3963.2C19 3965.41 17.2091 3967.2 15 3967.2H5C2.79086 3967.2 1 3965.41 1 3963.2V3953.2Z" fill="#1A91E5"/>
<path fill-rule="evenodd" clip-rule="evenodd" d="M13.44 3952.93C13.44 3952.73 13.219 3952.6 13.0482 3952.71L4.53995 3958.01C4.37777 3958.11 4.37898 3958.34 4.54219 3958.44L13.0504 3963.62C13.2213 3963.72 13.44 3963.6 13.44 3963.4V3952.93ZM12.7772 3952.27C13.2895 3951.95 13.9528 3952.32 13.9528 3952.93V3963.4C13.9528 3964 13.2965 3964.37 12.7839 3964.06L4.27569 3958.88C3.78606 3958.58 3.78242 3957.87 4.26897 3957.57L12.7772 3952.27Z" fill="white"/>
<path d="M9.47272 3957.39V3954.65L12.918 3952.49C13.2596 3952.28 13.7033 3952.52 13.7033 3952.93V3963.4C13.7033 3963.8 13.2664 3964.04 12.9247 3963.84L9.47272 3961.74V3958.67H11.3957V3959.31L12.6777 3958.28L11.3957 3957.39V3958.03H8.06253V3958.67L6.65234 3957.77L8.06253 3956.74V3957.39H9.47272Z" fill="white"/>
<path fill-rule="evenodd" clip-rule="evenodd" d="M12.3136 3589.58C12.6557 3590.02 12.5816 3590.65 12.148 3590.99L11.3355 3591.63C14.4609 3592.56 16.8 3595.22 16.8 3598.5C16.8 3598.72 16.8 3599.31 16.6882 3599.99C16.5794 3600.65 16.3461 3601.53 15.7967 3602.22C15.4547 3602.66 14.8259 3602.73 14.3922 3602.39C13.9586 3602.05 13.8842 3601.42 14.2262 3600.98C14.4653 3600.68 14.6263 3600.2 14.7146 3599.66C14.7994 3599.15 14.8 3598.69 14.8 3598.5C14.8 3596.39 13.344 3594.48 11.1798 3593.68L11.6755 3594.35C12.0039 3594.79 11.91 3595.42 11.4659 3595.75C11.0218 3596.08 10.3957 3595.98 10.0673 3595.54L8.0959 3592.87C7.77483 3592.44 7.85659 3591.83 8.28059 3591.49L10.9092 3589.42C11.3427 3589.08 11.9715 3589.15 12.3136 3589.58ZM3.68772 3594.49C4.08104 3594.88 4.08559 3595.51 3.69789 3595.91C3.49955 3596.11 3.30565 3596.52 3.17055 3597.09C3.04242 3597.64 3 3598.18 3 3598.5C3 3600.81 4.7414 3602.87 7.24591 3603.51L7.0055 3602.99C6.77505 3602.49 6.99511 3601.9 7.49702 3601.67C7.99893 3601.43 8.59262 3601.65 8.82307 3602.16L9.80878 3604.3C10.0164 3604.76 9.85999 3605.29 9.44178 3605.56L7.14178 3607.04C6.67757 3607.34 6.0587 3607.21 5.75948 3606.74C5.46026 3606.28 5.59401 3605.66 6.05822 3605.36L6.18576 3605.28C3.20105 3604.28 1 3601.68 1 3598.5C1 3598.05 1.05615 3597.35 1.22374 3596.63C1.38435 3595.95 1.68331 3595.1 2.27354 3594.5C2.66124 3594.11 3.29439 3594.1 3.68772 3594.49Z" fill="#0F67EA"/>
<path fill-rule="evenodd" clip-rule="evenodd" d="M0 3710.2C0 3709.65 0.447715 3709.2 1 3709.2H13C13.5523 3709.2 14 3709.65 14 3710.2V3713.2H17C17.5523 3713.2 18 3713.65 18 3714.2V3724.2C18 3725.86 16.6569 3727.2 15 3727.2H3C1.34315 3727.2 0 3725.86 0 3724.2V3710.2ZM15 3725.2C15.5523 3725.2 16 3724.76 16 3724.2V3715.2H14V3724.2C14 3724.76 14.4477 3725.2 15 3725.2ZM12.1707 3725.2H3C2.44772 3725.2 2 3724.76 2 3724.2V3711.2H12V3724.2C12 3724.55 12.0602 3724.89 12.1707 3725.2ZM3.5 3714.2C3.5 3713.65 3.94772 3713.2 4.5 3713.2H9.5C10.0523 3713.2 10.5 3713.65 10.5 3714.2C10.5 3714.76 10.0523 3715.2 9.5 3715.2H4.5C3.94772 3715.2 3.5 3714.76 3.5 3714.2ZM3.5 3717.2C3.5 3716.65 3.94772 3716.2 4.5 3716.2H6.5C7.05228 3716.2 7.5 3716.65 7.5 3717.2C7.5 3717.76 7.05228 3718.2 6.5 3718.2H4.5C3.94772 3718.2 3.5 3717.76 3.5 3717.2Z" fill="#0F67EA"/>
<path d="M0 3469.2H18V3487.2H0V3469.2Z" fill="#D9D9D9" fill-opacity="0.09"/>
<path fill-rule="evenodd" clip-rule="evenodd" d="M8.81635 3475.2C7.9448 3475.2 7.23828 3475.91 7.23828 3476.78C7.23828 3477.65 7.9448 3478.36 8.81635 3478.36C9.68789 3478.36 10.3944 3477.65 10.3944 3476.78C10.3944 3475.91 9.68789 3475.2 8.81635 3475.2ZM5.23828 3476.78C5.23828 3474.81 6.84023 3473.2 8.81635 3473.2C10.7925 3473.2 12.3944 3474.81 12.3944 3476.78C12.3944 3478.76 10.7925 3480.36 8.81635 3480.36C6.84023 3480.36 5.23828 3478.76 5.23828 3476.78Z" fill="#0F67EA"/>
<path fill-rule="evenodd" clip-rule="evenodd" d="M8.9988 3480.36C7.45083 3480.36 6.5 3481.38 6.5 3482.31C6.5 3482.86 6.05228 3483.31 5.5 3483.31C4.94772 3483.31 4.5 3482.86 4.5 3482.31C4.5 3479.97 6.6821 3478.36 8.9988 3478.36C11.3155 3478.36 13.4976 3479.97 13.4976 3482.31C13.4976 3482.86 13.0499 3483.31 12.4976 3483.31C11.9453 3483.31 11.4976 3482.86 11.4976 3482.31C11.4976 3481.38 10.5468 3480.36 8.9988 3480.36Z" fill="#0F67EA"/>
<path fill-rule="evenodd" clip-rule="evenodd" d="M3 3471.2C2.44772 3471.2 2 3471.65 2 3472.2V3484.2C2 3484.76 2.44772 3485.2 3 3485.2H15C15.5523 3485.2 16 3484.76 16 3484.2V3479.7C16 3479.15 16.4477 3478.7 17 3478.7C17.5523 3478.7 18 3479.15 18 3479.7V3484.2C18 3485.86 16.6569 3487.2 15 3487.2H3C1.34315 3487.2 0 3485.86 0 3484.2V3472.2C0 3470.55 1.34315 3469.2 3 3469.2H15C16.6569 3469.2 18 3470.55 18 3472.2V3475.7C18 3476.26 17.5523 3476.7 17 3476.7C16.4477 3476.7 16 3476.26 16 3475.7V3472.2C16 3471.65 15.5523 3471.2 15 3471.2H3Z" fill="#0F67EA"/>
<path d="M0 3109.2H18V3127.2H0V3109.2Z" fill="#D9D9D9" fill-opacity="0.09"/>
<path fill-rule="evenodd" clip-rule="evenodd" d="M0 3113.2C0 3111.55 1.34315 3110.2 3 3110.2H8C8.55228 3110.2 9 3110.65 9 3111.2C9 3111.76 8.55228 3112.2 8 3112.2H3C2.44772 3112.2 2 3112.65 2 3113.2V3124.2C2 3124.76 2.44772 3125.2 3 3125.2H14C14.5523 3125.2 15 3124.76 15 3124.2V3120.7C15 3120.15 15.4477 3119.7 16 3119.7C16.5523 3119.7 17 3120.15 17 3120.7V3124.2C17 3125.86 15.6569 3127.2 14 3127.2H3C1.34315 3127.2 0 3125.86 0 3124.2V3113.2Z" fill="#0F67EA"/>
<path fill-rule="evenodd" clip-rule="evenodd" d="M13.2929 3109.5C13.6834 3109.11 14.3166 3109.11 14.7071 3109.5L17.7071 3112.5C18.0976 3112.89 18.0976 3113.52 17.7071 3113.91L11.7071 3119.91C11.5196 3120.1 11.2652 3120.2 11 3120.2H8C7.44772 3120.2 7 3119.76 7 3119.2V3116.2C7 3115.94 7.10536 3115.68 7.29289 3115.5L13.2929 3109.5ZM9 3116.62V3118.2H10.5858L15.5858 3113.2L14 3111.62L9 3116.62Z" fill="#0F67EA"/>
<path fill-rule="evenodd" clip-rule="evenodd" d="M5.76006 3230.59C6.58794 3229.68 7.73874 3229.2 9 3229.2C10.2613 3229.2 11.4121 3229.68 12.2399 3230.59C13.0626 3231.5 13.5 3232.75 13.5 3234.2V3236.2C13.5 3237.65 13.0626 3238.91 12.2399 3239.81C11.4121 3240.72 10.2613 3241.2 9 3241.2C7.73874 3241.2 6.58794 3240.72 5.76006 3239.81C4.9374 3238.91 4.5 3237.65 4.5 3236.2V3234.2C4.5 3232.75 4.9374 3231.5 5.76006 3230.59ZM7.23994 3231.94C6.8126 3232.41 6.5 3233.15 6.5 3234.2V3236.2C6.5 3237.25 6.8126 3238 7.23994 3238.47C7.66206 3238.93 8.26126 3239.2 9 3239.2C9.73874 3239.2 10.3379 3238.93 10.7601 3238.47C11.1874 3238 11.5 3237.25 11.5 3236.2V3234.2C11.5 3233.15 11.1874 3232.41 10.7601 3231.94C10.3379 3231.47 9.73874 3231.2 9 3231.2C8.26126 3231.2 7.66206 3231.47 7.23994 3231.94Z" fill="#0F67EA"/>
<path fill-rule="evenodd" clip-rule="evenodd" d="M2.5 3235.2C3.05228 3235.2 3.5 3235.65 3.5 3236.2C3.5 3238 4.0594 3239.5 4.99329 3240.53C5.91735 3241.56 7.26613 3242.2 9 3242.2C10.7339 3242.2 12.0827 3241.56 13.0067 3240.53C13.9406 3239.5 14.5 3238 14.5 3236.2C14.5 3235.65 14.9477 3235.2 15.5 3235.2C16.0523 3235.2 16.5 3235.65 16.5 3236.2C16.5 3238.41 15.8094 3240.41 14.4933 3241.87C13.3674 3243.12 11.8267 3243.93 10 3244.15V3245.2H12C12.5523 3245.2 13 3245.65 13 3246.2C13 3246.76 12.5523 3247.2 12 3247.2H6C5.44772 3247.2 5 3246.76 5 3246.2C5 3245.65 5.44772 3245.2 6 3245.2H8V3244.15C6.17331 3243.93 4.63262 3243.12 3.50671 3241.87C2.1906 3240.41 1.5 3238.41 1.5 3236.2C1.5 3235.65 1.94772 3235.2 2.5 3235.2Z" fill="#0F67EA"/>
<path fill-rule="evenodd" clip-rule="evenodd" d="M2 3352.2C2 3350.55 3.34315 3349.2 5 3349.2H15C15.5523 3349.2 16 3349.65 16 3350.2C16 3350.76 15.5523 3351.2 15 3351.2H5C4.44772 3351.2 4 3351.65 4 3352.2C4 3352.76 4.44772 3353.2 5 3353.2H15C15.5523 3353.2 16 3353.65 16 3354.2V3366.2C16 3366.76 15.5523 3367.2 15 3367.2H5C3.34315 3367.2 2 3365.86 2 3364.2V3352.2ZM4 3355.03V3364.2C4 3364.76 4.44772 3365.2 5 3365.2H14V3355.2H5C4.64936 3355.2 4.31278 3355.14 4 3355.03Z" fill="#0F67EA"/>
<path d="M10 3363.2C10 3363.76 9.55228 3364.2 9 3364.2C8.44772 3364.2 8 3363.76 8 3363.2C8 3362.65 8.44772 3362.2 9 3362.2C9.55228 3362.2 10 3362.65 10 3363.2Z" fill="#0F67EA"/>
<path d="M15 3829.2H5C2.79086 3829.2 1 3830.99 1 3833.2V3843.2C1 3845.41 2.79086 3847.2 5 3847.2H15C17.2091 3847.2 19 3845.41 19 3843.2V3833.2C19 3830.99 17.2091 3829.2 15 3829.2Z" fill="#202D3B"/>
<path d="M6.1885 3832.6V3836.51C6.1885 3836.69 6.044 3836.83 5.86574 3836.83C5.68748 3836.83 5.54297 3836.69 5.54297 3836.51V3832.27L6.1885 3832.6ZM6.1885 3832.6H11.403L13.7259 3834.86V3837.46C13.7259 3837.53 13.7537 3837.61 13.804 3837.67L14.7078 3838.72L13.811 3839.69C13.6904 3839.82 13.699 3840.03 13.8303 3840.15C13.9616 3840.27 14.1657 3840.26 14.2863 3840.13L15.3774 3838.94C15.4881 3838.82 15.4911 3838.64 15.3844 3838.51L14.3714 3837.34V3834.73C14.3714 3834.64 14.3364 3834.56 14.2742 3834.5L11.76 3832.04C11.6997 3831.98 11.6188 3831.95 11.5345 3831.95H5.86574C5.78014 3831.95 5.69804 3831.98 5.63751 3832.04L6.1885 3832.6ZM6.09193 3837.85C6.21761 3837.98 6.21703 3838.18 6.09063 3838.31L5.21961 3839.17L6.10071 3840.13C6.15543 3840.19 6.18582 3840.27 6.18582 3840.35V3843.76H13.7232V3841.25C13.7232 3841.07 13.8678 3840.93 14.046 3840.93C14.2243 3840.93 14.3688 3841.07 14.3688 3841.25V3844.08C14.3688 3844.26 14.2243 3844.4 14.046 3844.4H5.86305C5.68479 3844.4 5.54028 3844.26 5.54028 3844.08V3840.48L4.53433 3839.38C4.41705 3839.25 4.42151 3839.06 4.54442 3838.93L6.09193 3837.85ZM6.09193 3837.85C5.96625 3837.72 5.7619 3837.72 5.63548 3837.85H6.09193Z" fill="white"/>
<path d="M6.1885 3832.6V3836.51C6.1885 3836.69 6.044 3836.83 5.86574 3836.83C5.68748 3836.83 5.54297 3836.69 5.54297 3836.51V3832.27L6.1885 3832.6ZM6.1885 3832.6H11.403L13.7259 3834.86V3837.46C13.7259 3837.53 13.7537 3837.61 13.804 3837.67L14.7078 3838.72L13.811 3839.69C13.6904 3839.82 13.699 3840.03 13.8303 3840.15C13.9616 3840.27 14.1657 3840.26 14.2863 3840.13L15.3774 3838.94M6.1885 3832.6L5.63751 3832.04C5.69804 3831.98 5.78014 3831.95 5.86574 3831.95H11.5345C11.6188 3831.95 11.6997 3831.98 11.76 3832.04L14.2742 3834.5C14.3364 3834.56 14.3714 3834.64 14.3714 3834.73V3837.34L15.3844 3838.51M15.3774 3838.94L15.3406 3838.91M15.3774 3838.94C15.4881 3838.82 15.4911 3838.64 15.3844 3838.51M15.3844 3838.51L15.3465 3838.54M6.09193 3837.85C6.21761 3837.98 6.21703 3838.18 6.09063 3838.31L5.21961 3839.17L6.10071 3840.13M6.09193 3837.85L4.54442 3838.93M6.09193 3837.85C5.96625 3837.72 5.7619 3837.72 5.63548 3837.85M6.09193 3837.85H5.63548M6.10071 3840.13L6.0639 3840.17M6.10071 3840.13C6.15543 3840.19 6.18582 3840.27 6.18582 3840.35V3843.76H13.7232V3841.25C13.7232 3841.07 13.8678 3840.93 14.046 3840.93C14.2243 3840.93 14.3688 3841.07 14.3688 3841.25V3844.08C14.3688 3844.26 14.2243 3844.4 14.046 3844.4H5.86305C5.68479 3844.4 5.54028 3844.26 5.54028 3844.08V3840.48L4.53433 3839.38C4.41705 3839.25 4.42151 3839.06 4.54442 3838.93M4.54442 3838.93L5.63548 3837.85" stroke="white" stroke-width="0.1"/>
<path fill-rule="evenodd" clip-rule="evenodd" d="M7.20703 3835.42C7.20703 3835.79 7.43188 3836.12 7.75391 3836.26V3837.58C7.43188 3837.72 7.20703 3838.04 7.20703 3838.42C7.20703 3838.79 7.43188 3839.12 7.75391 3839.26V3840.58C7.43188 3840.72 7.20703 3841.04 7.20703 3841.42C7.20703 3841.93 7.61817 3842.34 8.12533 3842.34C8.4994 3842.34 8.82102 3842.11 8.9642 3841.79H12.4929C12.6989 3841.79 12.8657 3841.63 12.8657 3841.42C12.8657 3841.21 12.6988 3841.05 12.4929 3841.05H8.96538C8.87343 3840.84 8.7068 3840.67 8.49944 3840.58V3839.26C8.7059 3839.16 8.87198 3839 8.96418 3838.79H12.4929C12.6989 3838.79 12.8657 3838.63 12.8657 3838.42C12.8657 3838.21 12.6989 3838.05 12.4929 3838.05H8.96538C8.87343 3837.84 8.70679 3837.67 8.49944 3837.58V3836.26C8.70591 3836.16 8.872 3836 8.9642 3835.79H12.4926C12.6985 3835.79 12.8654 3835.63 12.8654 3835.42C12.8654 3835.21 12.6985 3835.05 12.4926 3835.05H8.96538C8.8228 3834.72 8.50043 3834.5 8.12533 3834.5C7.61817 3834.5 7.20703 3834.91 7.20703 3835.42ZM8.12667 3835.59C8.11461 3835.59 8.10266 3835.59 8.09085 3835.59C8.01199 3835.57 7.95256 3835.5 7.95256 3835.42C7.95256 3835.32 8.02991 3835.25 8.12533 3835.25C8.22075 3835.25 8.2981 3835.32 8.2981 3835.42C8.2981 3835.5 8.2391 3835.57 8.16065 3835.59C8.14944 3835.59 8.1381 3835.59 8.12667 3835.59ZM7.93324 3835.61C7.97431 3835.65 8.02826 3835.68 8.08845 3835.69C8.10094 3835.69 8.1137 3835.69 8.12667 3835.69C8.13918 3835.69 8.15149 3835.69 8.16355 3835.69C8.2961 3835.67 8.3981 3835.56 8.3981 3835.42C8.3981 3835.34 8.36789 3835.28 8.31898 3835.23C8.36881 3835.28 8.39966 3835.34 8.39966 3835.42C8.39966 3835.56 8.29766 3835.67 8.16511 3835.69C8.15305 3835.69 8.14074 3835.69 8.12823 3835.69C8.11526 3835.69 8.1025 3835.69 8.09001 3835.69C8.02906 3835.68 7.9745 3835.65 7.93324 3835.61ZM7.54749 3836C7.39895 3835.85 7.30703 3835.64 7.30703 3835.42C7.30703 3834.97 7.6734 3834.6 8.12533 3834.6C8.3517 3834.6 8.55659 3834.69 8.70474 3834.84C8.55672 3834.69 8.35246 3834.6 8.12689 3834.6C7.67496 3834.6 7.30859 3834.97 7.30859 3835.42C7.30859 3835.65 7.39986 3835.85 7.54749 3836ZM8.89855 3835.15H12.4942C12.5691 3835.15 12.637 3835.18 12.6863 3835.23C12.6368 3835.18 12.5683 3835.15 12.4926 3835.15H8.89855ZM8.89996 3838.15C8.91553 3838.15 8.93218 3838.15 8.94855 3838.15H12.4945C12.5694 3838.15 12.6373 3838.18 12.6866 3838.23C12.6372 3838.18 12.5687 3838.15 12.4929 3838.15H8.94699C8.93095 3838.15 8.91524 3838.15 8.89996 3838.15ZM8.89996 3841.15C8.91553 3841.15 8.93218 3841.15 8.94855 3841.15H12.4945C12.5694 3841.15 12.6373 3841.18 12.6866 3841.23C12.6372 3841.18 12.5687 3841.15 12.4929 3841.15H8.94699C8.93095 3841.15 8.91524 3841.15 8.89996 3841.15ZM7.54746 3842C7.39985 3841.85 7.30859 3841.65 7.30859 3841.42C7.30859 3841.06 7.53901 3840.76 7.85979 3840.65C7.85695 3840.63 7.85547 3840.61 7.85547 3840.6V3839.23C7.85547 3839.22 7.85649 3839.21 7.85847 3839.19H7.85676C7.85488 3839.21 7.85391 3839.22 7.85391 3839.23V3840.6C7.85391 3840.61 7.85539 3840.63 7.85823 3840.64C7.53745 3840.76 7.30703 3841.06 7.30703 3841.42C7.30703 3841.64 7.39893 3841.85 7.54746 3842ZM7.54675 3839C7.39864 3838.85 7.30703 3838.64 7.30703 3838.42C7.30703 3838.06 7.53538 3837.76 7.85391 3837.65V3836.19H7.85547V3837.65C7.53694 3837.76 7.30859 3838.06 7.30859 3838.42C7.30859 3838.65 7.39956 3838.85 7.54675 3839ZM8.2981 3838.42C8.2981 3838.51 8.22075 3838.59 8.12533 3838.59C8.02992 3838.59 7.95256 3838.51 7.95256 3838.42C7.95256 3838.32 8.02993 3838.25 8.12533 3838.25C8.22073 3838.25 8.2981 3838.32 8.2981 3838.42ZM8.2981 3841.42C8.2981 3841.51 8.22075 3841.59 8.12533 3841.59C8.02992 3841.59 7.95256 3841.51 7.95256 3841.42C7.95256 3841.32 8.02993 3841.25 8.12533 3841.25C8.22073 3841.25 8.2981 3841.32 8.2981 3841.42ZM8.3981 3838.42C8.3981 3838.57 8.27598 3838.69 8.12533 3838.69C8.05041 3838.69 7.98254 3838.66 7.93324 3838.61C7.98266 3838.66 8.05118 3838.69 8.12689 3838.69C8.27754 3838.69 8.39966 3838.57 8.39966 3838.42C8.39966 3838.34 8.3688 3838.28 8.31898 3838.23C8.36788 3838.28 8.3981 3838.34 8.3981 3838.42ZM8.12533 3841.69C8.27598 3841.69 8.3981 3841.57 8.3981 3841.42C8.3981 3841.34 8.36788 3841.28 8.31898 3841.23C8.3688 3841.28 8.39966 3841.34 8.39966 3841.42C8.39966 3841.57 8.27754 3841.69 8.12689 3841.69C8.05117 3841.69 7.98265 3841.66 7.93323 3841.61C7.98253 3841.66 8.0504 3841.69 8.12533 3841.69Z" fill="#1CC49E"/>
<path fill-rule="evenodd" clip-rule="evenodd" d="M1 4070C1 4069.45 1.44772 4069 2 4069H5C5.55228 4069 6 4069.45 6 4070V4086C6 4086.55 5.55228 4087 5 4087H2C1.44772 4087 1 4086.55 1 4086V4070ZM3 4071V4085H4V4071H3Z" fill="#0F67EA"/>
<path fill-rule="evenodd" clip-rule="evenodd" d="M7 4070C7 4069.45 7.44772 4069 8 4069H11C11.5523 4069 12 4069.45 12 4070V4086C12 4086.55 11.5523 4087 11 4087H8C7.44772 4087 7 4086.55 7 4086V4070ZM9 4071V4085H10V4071H9Z" fill="#0F67EA"/>
<path fill-rule="evenodd" clip-rule="evenodd" d="M15.7489 4068.88C16.2957 4068.8 16.8002 4069.19 16.8761 4069.73L19.0767 4085.58C19.1132 4085.85 19.0437 4086.11 18.8835 4086.32C18.7234 4086.54 18.4857 4086.67 18.2228 4086.71L15.2513 4087.12C14.7046 4087.2 14.2001 4086.81 14.1242 4086.27L11.9236 4070.42C11.8871 4070.15 11.9566 4069.89 12.1167 4069.68C12.2768 4069.47 12.5145 4069.33 12.7774 4069.29L15.7489 4068.88ZM14.0422 4071.13L15.9678 4085L16.958 4084.87L15.0325 4071L14.0422 4071.13Z" fill="#0F67EA"/>
<path fill-rule="evenodd" clip-rule="evenodd" d="M9.88959 4189.99C11.1512 4188.59 13.5 4189.46 13.5 4191.37V4202.53C13.5 4204.43 11.1239 4205.33 9.87227 4203.87C8.49086 4202.27 7.10848 4201.37 5.24364 4201.37H4V4204.37C4 4204.54 4.14147 4204.68 4.30675 4204.68C4.47202 4204.68 4.61349 4204.54 4.61349 4204.37V4202.82C4.61349 4202.27 5.06121 4201.82 5.61349 4201.82C6.16577 4201.82 6.61349 4202.27 6.61349 4202.82V4204.37C6.61349 4205.64 5.58486 4206.68 4.30675 4206.68C3.02863 4206.68 2 4205.64 2 4204.37V4201.36C1.39303 4201.32 0.900252 4201 0.575439 4200.62C0.227164 4200.21 0 4199.66 0 4199.09V4194.37C0 4193.76 0.259617 4193.23 0.696969 4192.86C1.11546 4192.52 1.64014 4192.37 2.14286 4192.37H5.31464C7.15717 4192.37 8.50983 4191.53 9.88959 4189.99ZM11.3786 4191.33C9.78361 4193.11 7.93213 4194.37 5.31464 4194.37H2.14286C2.07217 4194.37 2.02622 4194.38 2 4194.39V4199.09C2 4199.11 2.00512 4199.15 2.02251 4199.2C2.03988 4199.24 2.06529 4199.28 2.09404 4199.32C2.12464 4199.35 2.14666 4199.37 2.1567 4199.37H5.24364C7.91881 4199.37 9.80613 4200.73 11.3881 4202.57H11.3893C11.4016 4202.58 11.4095 4202.59 11.4115 4202.59C11.4129 4202.59 11.4141 4202.59 11.4152 4202.59C11.4158 4202.59 11.4165 4202.59 11.4171 4202.59C11.4221 4202.59 11.4372 4202.59 11.4581 4202.59C11.4792 4202.58 11.4904 4202.57 11.4939 4202.56C11.4948 4202.56 11.4954 4202.56 11.496 4202.56C11.4963 4202.56 11.4957 4202.56 11.496 4202.56C11.4966 4202.56 11.5 4202.55 11.5 4202.53V4191.37C11.5 4191.35 11.4973 4191.34 11.4964 4191.34C11.4954 4191.34 11.4944 4191.33 11.4929 4191.33C11.4892 4191.33 11.4782 4191.32 11.4572 4191.31C11.4361 4191.3 11.4196 4191.3 11.4121 4191.3C11.4089 4191.3 11.4061 4191.3 11.4028 4191.31C11.3997 4191.31 11.3912 4191.31 11.3786 4191.33ZM16.5229 4192.47C16.9184 4192.86 16.9265 4193.49 16.541 4193.89L15.888 4194.56C15.5025 4194.95 14.8694 4194.96 14.4739 4194.58C14.0784 4194.19 14.0703 4193.56 14.4558 4193.16L15.1088 4192.49C15.4943 4192.1 16.1274 4192.09 16.5229 4192.47ZM14.8249 4197.23C14.8249 4196.68 15.2726 4196.23 15.8249 4196.23H17C17.5523 4196.23 18 4196.68 18 4197.23C18 4197.78 17.5523 4198.23 17 4198.23H15.8249C15.2726 4198.23 14.8249 4197.78 14.8249 4197.23ZM14.4739 4199.88C14.8694 4199.5 15.5025 4199.51 15.888 4199.9L16.541 4200.57C16.9265 4200.97 16.9184 4201.6 16.5229 4201.99C16.1274 4202.37 15.4943 4202.36 15.1088 4201.97L14.4558 4201.3C14.0703 4200.9 14.0784 4200.27 14.4739 4199.88Z" fill="#0F67EA"/>
<path fill-rule="evenodd" clip-rule="evenodd" d="M5.00022 4309C5.37899 4309 5.72525 4309.21 5.89465 4309.55L8.89465 4315.55C9.14164 4316.05 8.94141 4316.65 8.44743 4316.89C7.95345 4317.14 7.35278 4316.94 7.10579 4316.45L5.00022 4312.24L2.89465 4316.45C2.64766 4316.94 2.04698 4317.14 1.55301 4316.89C1.05903 4316.65 0.858803 4316.05 1.10579 4315.55L4.10579 4309.55C4.27518 4309.21 4.62145 4309 5.00022 4309Z" fill="#0F67EA"/>
<path fill-rule="evenodd" clip-rule="evenodd" d="M2.00003 4321C1.44774 4321 1.00003 4320.55 1.00003 4320C1.00003 4319.45 1.44774 4319 2.00003 4319H8.00003C8.40449 4319 8.76913 4319.24 8.92391 4319.62C9.07869 4319.99 8.99313 4320.42 8.70714 4320.71L4.41424 4325H8.00003C8.55231 4325 9.00003 4325.45 9.00003 4326C9.00003 4326.55 8.55231 4327 8.00003 4327H2.00003C1.59557 4327 1.23093 4326.76 1.07615 4326.38C0.92137 4326.01 1.00692 4325.58 1.29292 4325.29L5.58582 4321H2.00003Z" fill="#0F67EA"/>
<path fill-rule="evenodd" clip-rule="evenodd" d="M15 4309C15.5523 4309 16 4309.45 16 4310V4323.59L17.2929 4322.29C17.6834 4321.9 18.3166 4321.9 18.7071 4322.29C19.0976 4322.68 19.0976 4323.32 18.7071 4323.71L15.7071 4326.71C15.3166 4327.1 14.6834 4327.1 14.2929 4326.71L11.2929 4323.71C10.9024 4323.32 10.9024 4322.68 11.2929 4322.29C11.6834 4321.9 12.3166 4321.9 12.7071 4322.29L14 4323.59V4310C14 4309.45 14.4477 4309 15 4309Z" fill="#0F67EA"/>
<path d="M13.9458 4794.11H13.6952C11.6135 4794.11 9.65213 4793.14 8.39598 4791.48L8.33724 4791.4C7.67079 4790.52 6.63018 4790 5.52577 4790C3.57854 4790 2 4791.58 2 4793.53V4794.2C2 4795.82 2.39334 4797.42 3.14634 4798.86L6.60707 4805.46C6.78033 4805.79 7.12285 4806 7.49624 4806C8.0506 4806 8.5 4805.55 8.5 4805V4801.72C8.5 4800.89 9.17157 4800.22 10 4800.22C10.8284 4800.22 11.5 4800.89 11.5 4801.72V4805.03C11.5 4805.57 11.9351 4806 12.4719 4806C12.8318 4806 13.1623 4805.8 13.3308 4805.48L16.8368 4798.86C17.6007 4797.42 18 4795.81 18 4794.18V4793.81C18 4791.7 16.2963 4790 14.1948 4790H12.9458C11.5344 4790 10.3903 4791.14 10.3903 4792.56" stroke="#0F67EA" stroke-width="2" stroke-linecap="round" stroke-linejoin="round"/>
<path d="M2 4431C2 4430.33 2.4557 4430 2.77778 4430H7.22222C7.5443 4430 8 4430.33 8 4431V4436C8 4436.67 7.5443 4437 7.22222 4437H2.77778C2.4557 4437 2 4436.67 2 4436V4431Z" stroke="#0F67EA" stroke-width="2"/>
<path d="M12 4440C12 4439.33 12.4557 4439 12.7778 4439H17.2222C17.5443 4439 18 4439.33 18 4440V4445C18 4445.67 17.5443 4446 17.2222 4446H12.7778C12.4557 4446 12 4445.67 12 4445V4440Z" stroke="#0F67EA" stroke-width="2"/>
<path d="M2 4441.56C2 4441.37 2.21862 4441 2.77778 4441H7.22222C7.78138 4441 8 4441.37 8 4441.56V4445.44C8 4445.63 7.78138 4446 7.22222 4446H2.77778C2.21862 4446 2 4445.63 2 4445.44V4441.56Z" stroke="#0F67EA" stroke-width="2"/>
<path d="M12 4430.56C12 4430.37 12.2186 4430 12.7778 4430H17.2222C17.7814 4430 18 4430.37 18 4430.56V4434.44C18 4434.63 17.7814 4435 17.2222 4435H12.7778C12.2186 4435 12 4434.63 12 4434.44V4430.56Z" stroke="#0F67EA" stroke-width="2"/>
<path d="M10 4566C11.4505 4566 12.9301 4566 14.0005 4566C14.5528 4566 15 4565.55 15 4565V4559H18L10.2931 4550.39C9.87905 4549.92 9.14775 4549.95 8.76297 4550.43L2 4559H5V4565C5 4565.55 5.44665 4566 5.99893 4566C6.94885 4566 8.45801 4566 10 4566ZM10 4566V4562" stroke="#0F67EA" stroke-width="2" stroke-linecap="round" stroke-linejoin="round"/>
<path d="M5 4686V4677M5 4677L2.58579 4674.59C2.21071 4674.21 2 4673.7 2 4673.17V4670M5 4677V4670M5 4677L7.41421 4674.59C7.78929 4674.21 8 4673.7 8 4673.17V4670" stroke="#0F67EA" stroke-width="2" stroke-linecap="round" stroke-linejoin="round"/>
<path d="M14.9998 4686V4677M14.9998 4677L13.9073 4676.27C12.7531 4675.5 12.1774 4674.11 12.4494 4672.75L12.6076 4671.96C12.8356 4670.82 13.8369 4670 14.9998 4670C16.1627 4670 17.164 4670.82 17.392 4671.96L17.5502 4672.75C17.8222 4674.11 17.2465 4675.5 16.0923 4676.27L14.9998 4677Z" stroke="#0F67EA" stroke-width="2" stroke-linecap="round" stroke-linejoin="round"/>
<path d="M13.2183 4921.99L6.77902 4916.01M13.2183 4921.99L12.4968 4925.6L15.2753 4927.16M13.2183 4921.99L16.8258 4921.27L18.1614 4924.28M6.77902 4916.01L7.50053 4912.4L4.72197 4910.84M6.77902 4916.01L3.1715 4916.73L1.83594 4913.72" stroke="#0F67EA" stroke-width="2" stroke-linecap="round" stroke-linejoin="round"/>
<path d="M7.36712 4921.64L7.39593 4921.67C8.17698 4922.45 8.17698 4923.72 7.39593 4924.5L5.47181 4926.42C4.69077 4927.2 3.42444 4927.2 2.6434 4926.42L2.58578 4926.36C1.80474 4925.58 1.80474 4924.32 2.58578 4923.54L4.50991 4921.61C5.29095 4920.83 6.55727 4920.83 7.33832 4921.61L7.36712 4921.64ZM7.36712 4921.64L17.146 4911.86" stroke="#0F67EA" stroke-width="2"/>
<path d="M17.5991 4914.13L18.1402 4912.51C18.2013 4912.32 18.1536 4912.12 18.017 4911.98L17.0199 4910.99C16.8832 4910.85 16.6811 4910.8 16.4978 4910.86L14.8744 4911.41C14.7221 4911.46 14.6025 4911.58 14.5517 4911.73L14.0106 4913.35C13.9495 4913.53 13.9972 4913.74 14.1338 4913.87L15.1309 4914.87C15.2676 4915.01 15.4697 4915.05 15.653 4914.99L17.2764 4914.45C17.4288 4914.4 17.5483 4914.28 17.5991 4914.13Z" fill="#0F67EA"/>
<path d="M14 5036L15.6205 5040.38L20 5042L15.6205 5043.62L14 5048L12.3795 5043.62L8 5042L12.3795 5040.38L14 5036Z" fill="#0F67EA"/>
<path d="M9.5 5031L10.1752 5032.82L12 5033.5L10.1752 5034.18L9.5 5036L8.82477 5034.18L7 5033.5L8.82477 5032.82L9.5 5031Z" fill="#0F67EA"/>
<path d="M5.5 5035L6.44532 5037.55L9 5038.5L6.44532 5039.45L5.5 5042L4.55468 5039.45L2 5038.5L4.55468 5037.55L5.5 5035Z" fill="#0F67EA"/>
<path fill-rule="evenodd" clip-rule="evenodd" d="M11.933 5267.92C10.9045 5266.69 9.02351 5266.69 7.99503 5267.92C7.40474 5268.62 6.48621 5268.95 5.58339 5268.79C4.01038 5268.52 2.56947 5269.73 2.56676 5271.33C2.5652 5272.24 2.07646 5273.09 1.28355 5273.55C-0.0979686 5274.35 -0.424596 5276.2 0.599737 5277.43C1.18764 5278.13 1.35738 5279.09 1.04539 5279.95C0.501794 5281.45 1.44228 5283.08 3.01436 5283.36C3.91664 5283.52 4.66543 5284.15 4.98034 5285.01C5.52903 5286.51 7.29657 5287.16 8.6808 5286.36C9.47526 5285.9 10.4527 5285.9 11.2472 5286.36C12.6314 5287.16 14.399 5286.51 14.9477 5285.01C15.2626 5284.15 16.0114 5283.52 16.9136 5283.36C18.4857 5283.08 19.4262 5281.45 18.8826 5279.95C18.5706 5279.09 18.7404 5278.13 19.3283 5277.43C20.3526 5276.2 20.026 5274.35 18.6444 5273.55C17.8515 5273.09 17.3628 5272.24 17.3612 5271.33C17.3585 5269.73 15.9176 5268.52 14.3446 5268.79C13.4418 5268.95 12.5233 5268.62 11.933 5267.92ZM9.96484 5283.58C13.5547 5283.58 16.4648 5280.67 16.4648 5277.08C16.4648 5273.49 13.5547 5270.58 9.96484 5270.58C6.37499 5270.58 3.46484 5273.49 3.46484 5277.08C3.46484 5280.67 6.37499 5283.58 9.96484 5283.58Z" fill="#0F67EA"/>
<path d="M6.46484 5277.33L9.08984 5279.95L13.4648 5275.58" stroke="#0F67EA" stroke-width="1.75" stroke-linecap="round" stroke-linejoin="round"/>
</g>
<path fill-rule="evenodd" clip-rule="evenodd" d="M16 6102H6C4.89543 6102 4 6102.9 4 6104V6114C4 6115.11 4.89543 6116 6 6116H16C17.1046 6116 18 6115.11 18 6114V6104C18 6102.9 17.1046 6102 16 6102ZM6 6100C3.79086 6100 2 6101.79 2 6104V6114C2 6116.21 3.79086 6118 6 6118H16C18.2091 6118 20 6116.21 20 6114V6104C20 6101.79 18.2091 6100 16 6100H6Z" fill="#0F67EA"/>
<path d="M11.9251 6108.02L15.006 6104.3H14.2759L11.6008 6107.53L9.46427 6104.3H7L10.2309 6109.19L7 6113.1H7.73009L10.555 6109.68L12.8114 6113.1H15.2757L11.9251 6108.02ZM10.9252 6109.23L7.99316 6104.87H9.11454L14.2762 6112.55H13.1549L10.9252 6109.23Z" fill="#0F67EA" stroke="#0F67EA" stroke-width="0.3"/>
<path d="M1.5 5384C1.5 5382.34 2.84315 5381 4.5 5381H15.5C17.1569 5381 18.5 5382.34 18.5 5384V5393.5C18.5 5395.16 17.1569 5396.5 15.5 5396.5H13.1899C12.9096 5396.5 12.6422 5396.62 12.4527 5396.82L10.7372 5398.7C10.3408 5399.13 9.65918 5399.13 9.26285 5398.7L7.54725 5396.82C7.35784 5396.62 7.0904 5396.5 6.8101 5396.5H4.5C2.84315 5396.5 1.5 5395.16 1.5 5393.5V5384Z" stroke="#0F67EA" stroke-width="2"/>
<path d="M10 5393C12.2091 5393 14 5391.21 14 5389C14 5386.79 12.2091 5385 10 5385C7.79086 5385 6 5386.79 6 5389C6 5391.21 7.79086 5393 10 5393Z" stroke="#0F67EA" stroke-width="2"/>
<path d="M15 5385C15.5523 5385 16 5384.55 16 5384C16 5383.45 15.5523 5383 15 5383C14.4477 5383 14 5383.45 14 5384C14 5384.55 14.4477 5385 15 5385Z" fill="#0F67EA"/>
<path d="M1.5 5744C1.5 5742.34 2.84315 5741 4.5 5741H15.5C17.1569 5741 18.5 5742.34 18.5 5744V5753.5C18.5 5755.16 17.1569 5756.5 15.5 5756.5H13.1899C12.9096 5756.5 12.6422 5756.62 12.4527 5756.82L10.7372 5758.7C10.3408 5759.13 9.65918 5759.13 9.26285 5758.7L7.54725 5756.82C7.35784 5756.62 7.0904 5756.5 6.8101 5756.5H4.5C2.84315 5756.5 1.5 5755.16 1.5 5753.5V5744Z" stroke="#0F67EA" stroke-width="2"/>
<path d="M13.2467 5746.14C13.1793 5746.11 13.1136 5746.07 13.05 5746.03C12.865 5745.91 12.6953 5745.76 12.5447 5745.6C12.1679 5745.17 12.0272 5744.73 11.9753 5744.43H11.9774C11.9341 5744.17 11.952 5744.01 11.9547 5744.01H10.2385V5750.64C10.2385 5750.73 10.2385 5750.82 10.2347 5750.91C10.2347 5750.92 10.2337 5750.93 10.2331 5750.94L10.232 5750.95C10.232 5750.96 10.232 5750.96 10.232 5750.96C10.2139 5751.2 10.1376 5751.43 10.0098 5751.63C9.8819 5751.83 9.70644 5752 9.49881 5752.12C9.28241 5752.24 9.03766 5752.3 8.7887 5752.3C7.98907 5752.3 7.341 5751.65 7.341 5750.85C7.341 5750.04 7.98907 5749.39 8.7887 5749.39C8.94006 5749.39 9.0905 5749.41 9.23442 5749.46L9.2365 5747.71C8.7996 5747.65 8.35574 5747.69 7.93294 5747.81C7.51013 5747.94 7.11754 5748.15 6.77994 5748.43C6.48413 5748.69 6.23544 5748.99 6.04506 5749.34C5.97261 5749.46 5.69927 5749.96 5.66617 5750.78C5.64535 5751.24 5.78421 5751.72 5.85041 5751.92C5.89205 5752.04 6.05339 5752.44 6.31632 5752.77C6.52834 5753.04 6.77884 5753.28 7.05974 5753.47H7.0639C7.89476 5754.04 8.81597 5754 8.81597 5754C8.97544 5753.99 9.50963 5754 10.1163 5753.71C10.7891 5753.39 11.1722 5752.92 11.1722 5752.92C11.4169 5752.63 11.6115 5752.31 11.7476 5751.96C11.9029 5751.55 11.9547 5751.06 11.9547 5750.87V5747.35C11.9756 5747.36 12.2529 5747.54 12.2529 5747.54C12.2529 5747.54 12.6524 5747.8 13.2757 5747.97C13.7228 5748.09 14.3253 5748.11 14.3253 5748.11V5746.41C14.1142 5746.43 13.6856 5746.36 13.2467 5746.14Z" fill="#0F67EA"/>
<path d="M1.5 5504C1.5 5502.34 2.84315 5501 4.5 5501H15.5C17.1569 5501 18.5 5502.34 18.5 5504V5513.5C18.5 5515.16 17.1569 5516.5 15.5 5516.5H13.1899C12.9096 5516.5 12.6422 5516.62 12.4527 5516.82L10.7372 5518.7C10.3408 5519.13 9.65918 5519.13 9.26285 5518.7L7.54725 5516.82C7.35784 5516.62 7.0904 5516.5 6.8101 5516.5H4.5C2.84315 5516.5 1.5 5515.16 1.5 5513.5V5504Z" stroke="#0F67EA" stroke-width="2"/>
<path d="M11.6608 5509.63L11.924 5507.82H10.3027V5506.64C10.3027 5506.15 10.5294 5505.66 11.2531 5505.66H12.001V5504.12C11.5658 5504.05 11.1254 5504.01 10.6851 5504C9.35063 5504 8.47892 5504.87 8.47892 5506.44V5507.82H7V5509.62H8.47892V5514H10.3032V5509.62L11.6608 5509.63Z" fill="#0F67EA"/>
<path d="M1.5 5624C1.5 5622.34 2.84315 5621 4.5 5621H15.5C17.1569 5621 18.5 5622.34 18.5 5624V5633.5C18.5 5635.16 17.1569 5636.5 15.5 5636.5H13.1899C12.9096 5636.5 12.6422 5636.62 12.4527 5636.82L10.7372 5638.7C10.3408 5639.13 9.65918 5639.13 9.26285 5638.7L7.54725 5636.82C7.35784 5636.62 7.0904 5636.5 6.8101 5636.5H4.5C2.84315 5636.5 1.5 5635.16 1.5 5633.5V5624Z" stroke="#0F67EA" stroke-width="2"/>
<path d="M7.62623 5633V5626.93H5.6182V5633H7.62623ZM6.62255 5626.1C7.32229 5626.1 7.75861 5625.63 7.75861 5625.05C7.7451 5624.45 7.32229 5624 6.63539 5624C5.94848 5624 5.5 5624.45 5.5 5625.05C5.5 5625.65 5.93565 5626.1 6.60972 5626.1H6.62255ZM8.73797 5633H10.746V5629.61C10.746 5629.43 10.7588 5629.25 10.8122 5629.12C10.9567 5628.75 11.2877 5628.38 11.8422 5628.38C12.569 5628.38 12.8594 5628.94 12.8594 5629.75V5633H14.8674V5629.52C14.8674 5627.65 13.8772 5626.78 12.5554 5626.78C11.4721 5626.78 10.9966 5627.39 10.7318 5627.81H10.7446V5626.93H8.73662C8.76364 5627.5 8.73662 5633 8.73662 5633H8.73797Z" fill="#0F67EA"/>
<path d="M1.5 5864C1.5 5862.34 2.84315 5861 4.5 5861H15.5C17.1569 5861 18.5 5862.34 18.5 5864V5873.5C18.5 5875.16 17.1569 5876.5 15.5 5876.5H13.1899C12.9096 5876.5 12.6422 5876.62 12.4527 5876.82L10.7372 5878.7C10.3408 5879.13 9.65918 5879.13 9.26285 5878.7L7.54725 5876.82C7.35784 5876.62 7.0904 5876.5 6.8101 5876.5H4.5C2.84315 5876.5 1.5 5875.16 1.5 5873.5V5864Z" stroke="#0F67EA" stroke-width="2"/>
<path d="M10.8562 5868.05L14.2067 5864H13.4127L10.5035 5867.52L8.17996 5864H5.5L9.01369 5869.32L5.5 5873.57H6.29399L9.36618 5869.85L11.82 5873.57H14.5L10.8562 5868.05ZM9.76874 5869.36L6.58008 5864.62H7.79961L13.4131 5872.97H12.1936L9.76874 5869.36Z" fill="#0F67EA" stroke="#0F67EA" stroke-width="0.5"/>
<path d="M1.5 5984C1.5 5982.34 2.84315 5981 4.5 5981H15.5C17.1569 5981 18.5 5982.34 18.5 5984V5993.5C18.5 5995.16 17.1569 5996.5 15.5 5996.5H13.1899C12.9096 5996.5 12.6422 5996.62 12.4527 5996.82L10.7372 5998.7C10.3408 5999.13 9.65918 5999.13 9.26285 5998.7L7.54725 5996.82C7.35784 5996.62 7.0904 5996.5 6.8101 5996.5H4.5C2.84315 5996.5 1.5 5995.16 1.5 5993.5V5984Z" stroke="#0F67EA" stroke-width="2"/>
<path d="M14.3583 5985.96C14.0543 5986.1 13.7349 5986.19 13.4075 5986.24C13.5606 5986.21 13.7858 5985.93 13.8759 5985.81C14.0121 5985.64 14.1164 5985.44 14.1826 5985.23C14.1826 5985.21 14.1982 5985.19 14.1827 5985.18C14.1755 5985.18 14.1668 5985.17 14.1576 5985.17C14.149 5985.17 14.1403 5985.18 14.1325 5985.18C13.7776 5985.38 13.3997 5985.53 13.0074 5985.63C12.9934 5985.64 12.979 5985.64 12.9654 5985.63C12.9515 5985.63 12.9389 5985.62 12.9288 5985.61C12.8985 5985.57 12.8658 5985.54 12.8311 5985.51C12.6717 5985.36 12.491 5985.24 12.2952 5985.15C12.031 5985.03 11.7453 5984.99 11.4599 5985C11.1828 5985.02 10.9122 5985.1 10.6647 5985.23C10.4215 5985.37 10.2071 5985.56 10.0352 5985.78C9.854 5986.01 9.72293 5986.28 9.65119 5986.57C9.59155 5986.84 9.58404 5987.13 9.62916 5987.41C9.62903 5987.45 9.62901 5987.46 9.58993 5987.45C8.03413 5987.22 6.75876 5986.64 5.71879 5985.42C5.67308 5985.36 5.64942 5985.36 5.6121 5985.42C5.15639 5986.13 5.37351 5987.26 5.93926 5987.82C6.01582 5987.89 6.09383 5987.97 6.17669 5988.03C5.91653 5988.01 5.66327 5987.94 5.43091 5987.82C5.38754 5987.79 5.36336 5987.81 5.36128 5987.86C5.3548 5987.93 5.3546 5988.01 5.36068 5988.08C5.40509 5988.44 5.54128 5988.79 5.75534 5989.07C5.96892 5989.36 6.25315 5989.58 6.57816 5989.72C6.65724 5989.75 6.73972 5989.78 6.82464 5989.8C6.58361 5989.85 6.33642 5989.86 6.0932 5989.82C6.04109 5989.81 6.02122 5989.84 6.04087 5989.89C6.359 5990.79 7.0549 5991.07 7.56525 5991.22C7.63474 5991.23 7.70474 5991.23 7.78338 5991.25L7.77031 5991.27C7.61892 5991.55 7.00964 5991.74 6.72937 5991.84C6.21907 5992.03 5.6748 5992.1 5.13569 5992.05C5.05027 5992.04 5.03096 5992.04 5.0092 5992.05C4.98696 5992.07 5.0091 5992.09 5.0327 5992.11C5.1416 5992.19 5.25053 5992.25 5.36381 5992.32C5.70124 5992.51 6.05808 5992.66 6.42806 5992.77C8.34269 5993.31 10.5002 5992.91 11.9428 5991.43C13.0766 5990.27 13.4782 5988.67 13.4825 5987.07C13.4827 5987.01 13.5547 5986.97 13.5963 5986.94C13.8827 5986.71 14.1354 5986.44 14.3467 5986.13C14.3831 5986.09 14.402 5986.03 14.3993 5985.97C14.3994 5985.94 14.3994 5985.94 14.3583 5985.96Z" fill="#0F67EA"/>
</g>
<path fill-rule="evenodd" clip-rule="evenodd" d="M7.49609 6218.92C7.49609 6218.95 7.5 6218.97 7.5 6219V6220H14.5V6219C14.5 6218.45 14.9492 6218 15.5 6218C15.8086 6218 16.0859 6218.14 16.2695 6218.36C16.2891 6218.39 16.3086 6218.41 16.3281 6218.44C16.4375 6218.6 16.5 6218.79 16.5 6219V6220H17C18.6562 6220 20 6221.34 20 6223V6231.5V6233C20 6234.66 18.6562 6236 17 6236H15.5H6.5H5C3.34375 6236 2 6234.66 2 6233V6231.5V6223C2 6221.34 3.34375 6220 5 6220H5.5V6219C5.5 6218.45 5.94922 6218 6.5 6218C6.84375 6218 7.15625 6218.18 7.33594 6218.45C7.42969 6218.59 7.48438 6218.75 7.49609 6218.92ZM4 6231.5V6233C4 6233.55 4.44922 6234 5 6234H6.5H15.5H17C17.5508 6234 18 6233.55 18 6233V6231.5V6223C18 6222.78 17.9258 6222.57 17.8047 6222.41C17.6211 6222.16 17.3281 6222 17 6222H5C4.44922 6222 4 6222.45 4 6223V6231.5Z" fill="#0F67EA"/>
<path d="M11 6231.55L11 6227.5" stroke="#0F67EA" stroke-width="2" stroke-linecap="round" stroke-linejoin="round"/>
<path d="M8.95455 6227.45L11 6224.5V6229.73H8.5L9.86364 6227.45H8.95455Z" fill="#0F67EA" stroke="#0F67EA" stroke-linecap="round" stroke-linejoin="round"/>
<path d="M13.0455 6227.45L11 6224.5V6229.73H13.5L12.1364 6227.45H13.0455Z" fill="#0F67EA" stroke="#0F67EA" stroke-linecap="round" stroke-linejoin="round"/>
<defs>
<clipPath id="clip0_19933_16315">
<rect width="20" height="6118" fill="white"/>
</clipPath>
</defs>
</svg>
