<svg width="200" height="128" viewBox="0 0 200 128" fill="none" xmlns="http://www.w3.org/2000/svg">
<circle cx="99.6973" cy="64.002" r="52.7676" fill="#C2DAFF"/>
<path fill-rule="evenodd" clip-rule="evenodd" d="M49.293 48.3349C51.4962 51.8332 55.3889 55.5281 61.3531 55.9129C72.2584 56.6164 70.4995 69.9842 69.0924 78.0753C67.6852 86.1663 70.8513 98.127 82.8119 95.6645C89.2955 94.3296 91.024 90.4106 92.9286 86.0926C94.5375 82.4449 96.2719 78.5124 101.105 75.6128C111.658 69.2807 107.437 55.5611 95.1244 51.6915C82.8119 47.8218 85.2744 41.8415 90.1994 33.7505C94.524 26.6457 96.1362 17.0997 87.1758 12.7344C69.1531 17.1192 54.7527 30.7588 49.293 48.3349ZM137.946 27.6603C146.941 37.1236 152.461 49.9213 152.461 64.0082C152.461 75.2421 148.951 85.656 142.967 94.2129C132.464 82.7271 136.258 70.805 139.948 59.208C140.637 57.0408 141.323 54.885 141.912 52.7455C144.433 43.5782 141.059 33.6332 137.946 27.6603Z" fill="white"/>
<path d="M152.465 64.002C152.465 93.1447 128.84 116.77 99.6973 116.77C70.5545 116.77 46.9297 93.1447 46.9297 64.002M152.465 64.002C152.465 34.8592 128.84 11.2344 99.6973 11.2344C70.5545 11.2344 46.9297 34.8592 46.9297 64.002M152.465 64.002H46.9297" stroke="#1B1C1E"/>
<path d="M163.199 64C163.199 99.0701 134.769 127.5 99.6992 127.5C64.6291 127.5 36.1992 99.0701 36.1992 64C36.1992 28.9299 64.6291 0.5 99.6992 0.5C134.769 0.5 163.199 28.9299 163.199 64Z" stroke="#1B1C1E" stroke-linecap="round" stroke-dasharray="3 6"/>
<path d="M136.811 100.721C127.277 91.2868 114.166 85.4609 99.6943 85.4609C85.2225 85.4609 72.1113 91.2868 62.5781 100.721" stroke="#1B1C1E"/>
<path d="M136.811 26.4352C127.277 35.8695 114.166 41.6953 99.6943 41.6953C85.2225 41.6953 72.1113 35.8695 62.5781 26.4352" stroke="#1B1C1E"/>
<ellipse cx="99.6954" cy="64.002" rx="20.5704" ry="52.7676" stroke="#1B1C1E"/>
<path d="M163.645 63.9922H182.426" stroke="#1B1C1E"/>
<circle cx="189.131" cy="63.9987" r="7.15493" fill="#BCD8F8" stroke="#1B1C1E"/>
<g style="mix-blend-mode:overlay">
<path fill-rule="evenodd" clip-rule="evenodd" d="M194.971 59.8639C193.7 58.706 192.01 58 190.155 58C186.203 58 183 61.2034 183 65.1549C183 66.6954 183.487 68.1221 184.315 69.2897C182.878 67.9811 181.977 66.0952 181.977 63.9987C181.977 60.0471 185.18 56.8438 189.131 56.8438C191.543 56.8438 193.675 58.0364 194.971 59.8639Z" fill="#BCD8F8"/>
</g>
<g style="mix-blend-mode:multiply">
<path fill-rule="evenodd" clip-rule="evenodd" d="M187.152 69.3065C191.104 69.3065 194.307 66.1031 194.307 62.1515C194.307 60.5726 193.796 59.1131 192.929 57.9297C194.947 59.195 196.288 61.4385 196.288 63.9953C196.288 67.9468 193.084 71.1502 189.133 71.1502C186.76 71.1502 184.657 69.9954 183.355 68.2171C184.456 68.9074 185.757 69.3065 187.152 69.3065Z" fill="#BCD8F8"/>
</g>
<path d="M36.6445 63.9922H17.8628" stroke="#1B1C1E"/>
<circle cx="7.15493" cy="7.15493" r="7.15493" transform="matrix(-1 0 0 1 18.3086 56.8438)" fill="#BCD8F8" stroke="#1B1C1E"/>
<circle cx="141.729" cy="14.8153" r="6.26056" fill="white" stroke="#1B1C1E"/>
<circle cx="163.195" cy="63.9993" r="3.57746" fill="#1B1C1E"/>
<circle cx="36.1947" cy="63.9993" r="3.57746" fill="#1B1C1E"/>
<g style="mix-blend-mode:multiply">
<path fill-rule="evenodd" clip-rule="evenodd" d="M94.767 109.533C123.91 109.533 147.535 85.9078 147.535 56.7651C147.535 47.3281 145.057 38.4697 140.718 30.8047C148.063 39.8712 152.464 51.4214 152.464 63.9995C152.464 93.1422 128.839 116.767 99.6966 116.767C79.9909 116.767 62.8081 105.965 53.7461 89.9599C63.4203 101.9 78.2023 109.533 94.767 109.533Z" fill="#C2DAFF" fill-opacity="0.48"/>
</g>
<g style="mix-blend-mode:overlay">
<path fill-rule="evenodd" clip-rule="evenodd" d="M104.698 18.2329C75.5552 18.2329 51.9303 41.8578 51.9303 71.0005C51.9303 80.4375 54.4076 89.296 58.7473 96.9609C51.4014 87.8944 47.0006 76.3442 47.0006 63.7662C47.0006 34.6234 70.6255 10.9985 99.7682 10.9985C119.474 10.9985 136.657 21.8003 145.719 37.8058C136.045 25.8656 121.263 18.2329 104.698 18.2329Z" fill="white" fill-opacity="0.33"/>
</g>
<g style="mix-blend-mode:overlay">
<path fill-rule="evenodd" clip-rule="evenodd" d="M16.9949 59.8639C15.7236 58.706 14.0334 58 12.1784 58C8.22681 58 5.02344 61.2034 5.02344 65.1549C5.02344 66.6954 5.51025 68.1221 6.33843 69.2897C4.9017 67.9811 4 66.0952 4 63.9987C4 60.0471 7.20337 56.8438 11.1549 56.8438C13.566 56.8438 15.6986 58.0364 16.9949 59.8639Z" fill="#BCD8F8"/>
</g>
<g style="mix-blend-mode:multiply">
<path fill-rule="evenodd" clip-rule="evenodd" d="M9.17564 69.3065C13.1272 69.3065 16.3306 66.1031 16.3306 62.1515C16.3306 60.5726 15.8191 59.1131 14.9528 57.9297C16.97 59.195 18.311 61.4385 18.311 63.9953C18.311 67.9468 15.1077 71.1502 11.1561 71.1502C8.7835 71.1502 6.68062 69.9954 5.37891 68.2171C6.47929 68.9074 7.78086 69.3065 9.17564 69.3065Z" fill="#BCD8F8"/>
</g>
<g style="mix-blend-mode:overlay">
<path fill-rule="evenodd" clip-rule="evenodd" d="M146.9 11.5372C145.833 10.563 144.414 9.96875 142.855 9.96875C139.542 9.96875 136.855 12.6549 136.855 15.9684C136.855 17.258 137.262 18.4526 137.955 19.4308C136.754 18.3337 136 16.7547 136 14.9997C136 11.6861 138.686 9 142 9C144.024 9 145.813 10.0021 146.9 11.5372Z" fill="#BCD8F8" fill-opacity="0.32"/>
</g>
<g style="mix-blend-mode:multiply">
<path fill-rule="evenodd" clip-rule="evenodd" d="M140.339 19.4616C143.652 19.4616 146.338 16.7755 146.338 13.462C146.338 12.1345 145.907 10.9078 145.177 9.91406C146.869 10.9749 147.995 12.8566 147.995 15.0011C147.995 18.3146 145.308 21.0007 141.995 21.0007C140.009 21.0007 138.248 20.0357 137.156 18.549C138.079 19.1273 139.17 19.4616 140.339 19.4616Z" fill="#BCD8F8" fill-opacity="0.32"/>
</g>
</svg>
