<svg width="49" height="49" viewBox="0 0 49 49" fill="none" xmlns="http://www.w3.org/2000/svg">
<path d="M1.00213 8.24754V31.1389C1.00213 34.4302 3.19908 37.2092 6.20871 38.0938V11.6738C6.20871 8.91234 8.44729 6.67376 11.2087 6.67376H39.6172C38.8973 3.42697 35.9968 0.9986 32.5282 0.9986H8.26268C4.25279 0.9986 1.00213 4.24406 1.00213 8.24754Z" fill="#23A06C" fill-opacity="0.2"/>
<path d="M44.2297 16.6192C44.2297 17.1715 44.6774 17.6192 45.2297 17.6192C45.782 17.6192 46.2297 17.1715 46.2297 16.6192H44.2297ZM25.8773 44.8349C26.4296 44.8349 26.8773 44.3872 26.8773 43.8349C26.8773 43.2826 26.4296 42.8349 25.8773 42.8349V44.8349ZM12.8436 13.4249C12.2914 13.4249 11.8436 13.8726 11.8436 14.4249C11.8436 14.9772 12.2914 15.4249 12.8436 15.4249V13.4249ZM23.2142 15.4249C23.7665 15.4249 24.2142 14.9772 24.2142 14.4249C24.2142 13.8726 23.7665 13.4249 23.2142 13.4249V15.4249ZM12.8436 18.5907C12.2914 18.5907 11.8436 19.0384 11.8436 19.5907C11.8436 20.143 12.2914 20.5907 12.8436 20.5907V18.5907ZM20.9096 20.5907C21.4619 20.5907 21.9096 20.143 21.9096 19.5907C21.9096 19.0384 21.4619 18.5907 20.9096 18.5907V20.5907ZM12.8436 23.7722C12.2914 23.7722 11.8436 24.2199 11.8436 24.7722C11.8436 25.3244 12.2914 25.7722 12.8436 25.7722V23.7722ZM15.1482 25.7722C15.7005 25.7722 16.1482 25.3244 16.1482 24.7722C16.1482 24.2199 15.7005 23.7722 15.1482 23.7722V25.7722ZM33.8657 37.1687L34.7695 36.7409C34.6576 36.5045 34.4576 36.3213 34.2122 36.2307L33.8657 37.1687ZM23.1732 33.2184L22.8173 32.2838C22.4278 32.4322 22.1711 32.8065 22.1732 33.2233C22.1753 33.6401 22.4357 34.0119 22.8266 34.1564L23.1732 33.2184ZM47.0127 24.1394L47.9502 24.4872C48.0867 24.1193 47.9954 23.7056 47.7167 23.4293C47.438 23.153 47.0235 23.0653 46.6568 23.2049L47.0127 24.1394ZM38.5265 47.0154L37.6227 47.4433C37.7948 47.8069 38.168 48.0319 38.5699 48.0145C38.9719 47.997 39.3242 47.7404 39.4641 47.3632L38.5265 47.0154ZM13.0156 7.44562H38.6571V5.44562H13.0156V7.44562ZM7.44303 37.2623V13.0182H5.44303V37.2623H7.44303ZM44.2297 13.0182V16.6192H46.2297V13.0182H44.2297ZM25.8773 42.8349H13.0156V44.8349H25.8773V42.8349ZM5.44303 37.2623C5.44303 41.4445 8.8334 44.8349 13.0156 44.8349V42.8349C9.93797 42.8349 7.44303 40.34 7.44303 37.2623H5.44303ZM38.6571 7.44562C41.7347 7.44562 44.2297 9.94057 44.2297 13.0182H46.2297C46.2297 8.83599 42.8393 5.44562 38.6571 5.44562V7.44562ZM13.0156 5.44562C8.83341 5.44562 5.44303 8.83599 5.44303 13.0182H7.44303C7.44303 9.94056 9.93797 7.44562 13.0156 7.44562V5.44562ZM12.8436 15.4249H23.2142V13.4249H12.8436V15.4249ZM12.8436 20.5907H20.9096V18.5907H12.8436V20.5907ZM12.8436 25.7722H15.1482V23.7722H12.8436V25.7722ZM2 31.1403V8.24894H0V31.1403H2ZM8.26055 2H32.5261V0H8.26055V2ZM2 8.24894C2 4.79925 4.80143 2 8.26055 2V0C3.69989 0 0 3.69167 0 8.24894H2ZM6.48857 37.1357C3.8921 36.3726 2 33.975 2 31.1403H0C0 34.8882 2.5018 38.0485 5.92459 39.0546L6.48857 37.1357ZM32.5261 2C35.5169 2 38.0184 4.09383 38.6388 6.89163L40.5914 6.45869C39.7719 2.76291 36.4725 0 32.5261 0V2ZM34.2122 36.2307L23.5197 32.2803L22.8266 34.1564L33.5191 38.1068L34.2122 36.2307ZM23.5291 34.1529L47.3686 25.074L46.6568 23.2049L22.8173 32.2838L23.5291 34.1529ZM46.0751 23.7916L37.589 46.6676L39.4641 47.3632L47.9502 24.4872L46.0751 23.7916ZM39.4304 46.5876L34.7695 36.7409L32.9618 37.5966L37.6227 47.4433L39.4304 46.5876Z" fill="#23A06C"/>
<path d="M23.1719 33.2195L33.8644 37.1699L38.5252 47.0166L47.0114 24.1406L23.1719 33.2195Z" fill="#23A06C" fill-opacity="0.2"/>
</svg>
