<svg width="48" height="63" viewBox="0 0 48 63" fill="none" xmlns="http://www.w3.org/2000/svg">
<path fill-rule="evenodd" clip-rule="evenodd" d="M27.46 3.56419C25.639 1.4786 22.361 1.4786 20.54 3.56419C19.3669 4.90764 17.5024 5.44703 15.7783 4.94165C13.1019 4.1571 10.3442 5.90313 9.95677 8.62759C9.70719 10.3826 8.43461 11.8295 6.70692 12.3226C4.02485 13.0882 2.6631 16.0259 3.83221 18.5243C4.58532 20.1336 4.30876 22.0286 3.12595 23.3638C1.28976 25.4364 1.75628 28.6331 4.11078 30.1121C5.62747 31.0648 6.43473 32.8063 6.17235 34.5595C5.76502 37.2812 7.91169 39.7219 10.704 39.712C12.5028 39.7056 14.1376 40.7407 14.8789 42.3553C16.0297 44.8619 19.175 45.7718 21.5187 44.2761C23.0284 43.3127 24.9716 43.3127 26.4813 44.2761C28.825 45.7718 31.9702 44.8619 33.1211 42.3553C33.8624 40.7407 35.4972 39.7056 37.296 39.712C40.0883 39.7219 42.235 37.2812 41.8277 34.5595C41.5653 32.8063 42.3725 31.0648 43.8892 30.1121C46.2437 28.6331 46.7102 25.4364 44.874 23.3638C43.6912 22.0286 43.4147 20.1336 44.1678 18.5243C45.3369 16.0259 43.9752 13.0882 41.2931 12.3226C39.5654 11.8295 38.2928 10.3826 38.0432 8.62759C37.6558 5.90314 34.8981 4.1571 32.2217 4.94165C30.4976 5.44703 28.6331 4.90764 27.46 3.56419ZM27.5134 19.7996L24.4616 13L21.4098 19.7996L14 20.6008L19.5237 25.6044L17.996 32.8992L24.4616 29.192L30.9273 32.8992L29.3995 25.6044L34.9232 20.6008L27.5134 19.7996Z" fill="#23A06C" fill-opacity="0.2"/>
<path d="M20.54 3.56419L19.5984 2.74205V2.74205L20.54 3.56419ZM27.46 3.56419L28.4016 2.74205V2.74205L27.46 3.56419ZM15.7783 4.94165L16.1299 3.74212L15.7783 4.94165ZM9.95677 8.62759L8.71922 8.4516L9.95677 8.62759ZM6.70692 12.3226L7.05002 13.5246H7.05002L6.70692 12.3226ZM3.83221 18.5243L4.96438 17.9945L3.83221 18.5243ZM3.12595 23.3638L2.19031 22.5349H2.19031L3.12595 23.3638ZM4.11078 30.1121L3.44588 31.1706H3.44588L4.11078 30.1121ZM6.17235 34.5595L4.93612 34.3745L6.17235 34.5595ZM10.704 39.712L10.7085 40.962H10.7085L10.704 39.712ZM14.8789 42.3553L16.0149 41.8338L14.8789 42.3553ZM21.5187 44.2761L22.1911 45.3298L21.5187 44.2761ZM26.4813 44.2761L25.8089 45.3298L26.4813 44.2761ZM33.1211 42.3553L31.9851 41.8338V41.8338L33.1211 42.3553ZM37.296 39.712L37.2915 40.962H37.2915L37.296 39.712ZM41.8277 34.5595L40.5914 34.7445L41.8277 34.5595ZM43.8892 30.1121L44.5541 31.1706L43.8892 30.1121ZM44.874 23.3638L45.8097 22.5349V22.5349L44.874 23.3638ZM44.1678 18.5243L43.0356 17.9945V17.9945L44.1678 18.5243ZM41.2931 12.3226L40.95 13.5246L41.2931 12.3226ZM38.0432 8.62759L36.8057 8.80359V8.80359L38.0432 8.62759ZM32.2217 4.94165L31.8701 3.74212V3.74212L32.2217 4.94165ZM24.4616 13L25.602 12.4882C25.4004 12.039 24.954 11.75 24.4616 11.75C23.9693 11.75 23.5228 12.039 23.3212 12.4882L24.4616 13ZM27.5134 19.7996L26.373 20.3114C26.5548 20.7164 26.9377 20.9946 27.379 21.0423L27.5134 19.7996ZM21.4098 19.7996L21.5442 21.0423C21.9856 20.9946 22.3685 20.7164 22.5502 20.3114L21.4098 19.7996ZM14 20.6008L13.8656 19.3581C13.3761 19.411 12.9633 19.7463 12.8112 20.2145C12.659 20.6828 12.7959 21.1967 13.1608 21.5272L14 20.6008ZM19.5237 25.6044L20.7472 25.8606C20.8382 25.4262 20.6919 24.976 20.3629 24.678L19.5237 25.6044ZM17.996 32.8992L16.7725 32.643C16.6716 33.1248 16.8629 33.6211 17.2613 33.9105C17.6596 34.1998 18.1906 34.2285 18.6177 33.9836L17.996 32.8992ZM24.4616 29.192L25.0834 28.1076C24.6983 27.8868 24.225 27.8868 23.8399 28.1076L24.4616 29.192ZM30.9273 32.8992L30.3055 33.9836C30.7326 34.2285 31.2637 34.1998 31.662 33.9105C32.0603 33.6211 32.2516 33.1248 32.1507 32.643L30.9273 32.8992ZM29.3995 25.6044L28.5603 24.678C28.2313 24.976 28.0851 25.4262 28.176 25.8606L29.3995 25.6044ZM34.9232 20.6008L35.7624 21.5272C36.1273 21.1967 36.2642 20.6828 36.1121 20.2145C35.9599 19.7463 35.5471 19.411 35.0576 19.3581L34.9232 20.6008ZM21.4815 4.38633C22.8044 2.87122 25.1955 2.87122 26.5185 4.38633L28.4016 2.74205C26.0825 0.0859841 21.9175 0.0859851 19.5984 2.74205L21.4815 4.38633ZM15.4267 6.14118C17.6141 6.78237 19.9849 6.10046 21.4815 4.38633L19.5984 2.74205C18.749 3.71483 17.3907 4.11169 16.1299 3.74212L15.4267 6.14118ZM11.1943 8.80359C11.4718 6.8527 13.4622 5.56532 15.4267 6.14118L16.1299 3.74212C12.7416 2.74888 9.21669 4.95357 8.71922 8.4516L11.1943 8.80359ZM7.05002 13.5246C9.24387 12.8984 10.874 11.0557 11.1943 8.80359L8.71922 8.4516C8.54034 9.70944 7.62536 10.7606 6.36382 11.1207L7.05002 13.5246ZM4.96438 17.9945C4.12856 16.2084 5.09185 14.0836 7.05002 13.5246L6.36382 11.1207C2.95784 12.0929 1.19763 15.8435 2.70004 19.0541L4.96438 17.9945ZM4.06159 24.1927C5.57333 22.4863 5.92987 20.0577 4.96438 17.9945L2.70004 19.0541C3.24076 20.2096 3.04419 21.571 2.19031 22.5349L4.06159 24.1927ZM4.77569 29.0536C3.06949 27.9818 2.74143 25.6828 4.06159 24.1927L2.19031 22.5349C-0.161911 25.19 0.443069 29.2843 3.44588 31.1706L4.77569 29.0536ZM7.40858 34.7445C7.74547 32.4935 6.70724 30.2669 4.77569 29.0536L3.44588 31.1706C4.5477 31.8627 5.124 33.1191 4.93612 34.3745L7.40858 34.7445ZM10.6996 38.462C8.65127 38.4693 7.11781 36.6874 7.40858 34.7445L4.93612 34.3745C4.41223 37.875 7.1721 40.9745 10.7085 40.962L10.6996 38.462ZM16.0149 41.8338C15.0658 39.7666 12.9805 38.4539 10.6996 38.462L10.7085 40.962C12.025 40.9573 13.2093 41.7148 13.7429 42.8769L16.0149 41.8338ZM20.8462 43.2224C19.1322 44.3163 16.8444 43.6404 16.0149 41.8338L13.7429 42.8769C15.2151 46.0833 19.2179 47.2273 22.1911 45.3298L20.8462 43.2224ZM27.1538 43.2224C25.234 41.9972 22.766 41.9972 20.8462 43.2224L22.1911 45.3298C23.2907 44.6281 24.7093 44.6281 25.8089 45.3298L27.1538 43.2224ZM31.9851 41.8338C31.1556 43.6404 28.8678 44.3163 27.1538 43.2224L25.8089 45.3298C28.7821 47.2273 32.7849 46.0833 34.2571 42.8769L31.9851 41.8338ZM37.3004 38.462C35.0195 38.4539 32.9342 39.7666 31.9851 41.8338L34.2571 42.8769C34.7907 41.7148 35.975 40.9573 37.2915 40.962L37.3004 38.462ZM40.5914 34.7445C40.8822 36.6874 39.3487 38.4693 37.3004 38.462L37.2915 40.962C40.8279 40.9745 43.5878 37.875 43.0639 34.3745L40.5914 34.7445ZM43.2243 29.0536C41.2928 30.2669 40.2545 32.4935 40.5914 34.7445L43.0639 34.3745C42.876 33.1191 43.4523 31.8627 44.5541 31.1706L43.2243 29.0536ZM43.9384 24.1927C45.2586 25.6828 44.9305 27.9818 43.2243 29.0536L44.5541 31.1706C47.5569 29.2843 48.1619 25.19 45.8097 22.5349L43.9384 24.1927ZM43.0356 17.9945C42.0701 20.0577 42.4267 22.4863 43.9384 24.1927L45.8097 22.5349C44.9558 21.571 44.7592 20.2096 45.3 19.0541L43.0356 17.9945ZM40.95 13.5246C42.9081 14.0836 43.8714 16.2084 43.0356 17.9945L45.3 19.0541C46.8024 15.8435 45.0422 12.0929 41.6362 11.1207L40.95 13.5246ZM36.8057 8.80359C37.126 11.0557 38.7561 12.8984 40.95 13.5246L41.6362 11.1207C40.3746 10.7606 39.4597 9.70944 39.2808 8.45159L36.8057 8.80359ZM32.5733 6.14118C34.5378 5.56532 36.5282 6.8527 36.8057 8.80359L39.2808 8.4516C38.7833 4.95357 35.2584 2.74888 31.8701 3.74212L32.5733 6.14118ZM26.5185 4.38633C28.0151 6.10046 30.3859 6.78237 32.5733 6.14118L31.8701 3.74212C30.6093 4.11168 29.251 3.71483 28.4016 2.74205L26.5185 4.38633ZM23.3212 13.5118L26.373 20.3114L28.6538 19.2877L25.602 12.4882L23.3212 13.5118ZM22.5502 20.3114L25.602 13.5118L23.3212 12.4882L20.2694 19.2877L22.5502 20.3114ZM14.1344 21.8436L21.5442 21.0423L21.2755 18.5568L13.8656 19.3581L14.1344 21.8436ZM20.3629 24.678L14.8392 19.6744L13.1608 21.5272L18.6845 26.5308L20.3629 24.678ZM19.2194 33.1554L20.7472 25.8606L18.3003 25.3482L16.7725 32.643L19.2194 33.1554ZM23.8399 28.1076L17.3742 31.8148L18.6177 33.9836L25.0834 30.2764L23.8399 28.1076ZM31.549 31.8148L25.0834 28.1076L23.8399 30.2764L30.3055 33.9836L31.549 31.8148ZM28.176 25.8606L29.7038 33.1554L32.1507 32.643L30.623 25.3482L28.176 25.8606ZM34.0841 19.6744L28.5603 24.678L30.2387 26.5308L35.7624 21.5272L34.0841 19.6744ZM27.379 21.0423L34.7889 21.8436L35.0576 19.3581L27.6478 18.5568L27.379 21.0423Z" fill="#23A06C"/>
<path d="M12 46.5V61L23.75 54L35.5 61V46.5" stroke="#23A06C" stroke-width="2.5" stroke-linecap="round" stroke-linejoin="round"/>
</svg>
