<svg width="28" height="28" viewBox="0 0 28 28" fill="none" xmlns="http://www.w3.org/2000/svg">
<circle cx="14" cy="14" r="13.5" fill="#1DA1F2" fill-opacity="0.1" stroke="white"/>
<path d="M18.5918 8.39844H9.62476C8.94785 8.39844 8.40234 8.94395 8.40234 9.62085V18.5879C8.40234 19.2648 8.94785 19.8103 9.62476 19.8103H18.5918C19.2687 19.8103 19.8142 19.2648 19.8142 18.5879V9.62085C19.8142 8.94395 19.2687 8.39844 18.5918 8.39844ZM11.2573 18.1778C10.5804 18.1778 10.0349 17.6323 10.0349 16.9553C10.0349 16.2784 10.5804 15.7329 11.2573 15.7329C11.9342 15.7329 12.4797 16.2784 12.4797 16.9553C12.4797 17.6323 11.9302 18.1778 11.2573 18.1778ZM15.271 18.1778H14.395C14.2437 18.1778 14.1123 18.0583 14.1043 17.907C13.9729 15.8683 12.3404 14.2398 10.3056 14.1084C10.1543 14.1004 10.0349 13.969 10.0349 13.8177V12.9417C10.0349 12.7744 10.1742 12.643 10.3415 12.651C13.1566 12.8023 15.4103 15.06 15.5616 17.8712C15.5696 18.0384 15.4342 18.1778 15.271 18.1778ZM17.895 18.1778H17.019C16.8637 18.1778 16.7363 18.0543 16.7283 17.8951C16.585 14.4189 13.7937 11.6237 10.3136 11.4804C10.1583 11.4724 10.0309 11.345 10.0309 11.1897V10.3137C10.0309 10.1504 10.1663 10.0151 10.3295 10.023C14.606 10.1783 18.0264 13.6186 18.1817 17.8751C18.1896 18.0424 18.0582 18.1778 17.895 18.1778Z" fill="white"/>
</svg>
