<?xml version="1.0" encoding="UTF-8"?>
<svg xmlns="http://www.w3.org/2000/svg" width="38" height="38" viewBox="0 0 38 38" fill="none">
  <path d="M23.7925 0C25.8261 0.0793049 28.0723 0.128111 30.2437 0.7656C35.2842 2.25104 37.797 5.10907 37.9767 10.4499C38.2402 18.2737 36.2785 25.5819 31.6064 31.8714C26.8444 38.2768 20.3183 39.7226 13.355 35.919C6.59837 32.2252 1.91724 26.6312 0.332898 18.838C-0.778236 13.3476 0.889965 8.68694 5.37044 5.28293C9.0902 2.4554 13.4269 1.18652 17.9493 0.463625C19.8837 0.167334 21.8364 0.0123986 23.7925 0Z" fill="#0F67EA"></path>
  <path d="M8.81837 15.5106L28.1442 8.6735C28.9992 8.37101 29.8242 9.19086 29.5198 10.0406L22.64 29.2462C22.377 29.9803 21.3341 29.985 21.0645 29.2533L17.9848 20.8964L26.4519 11.7224L17.2197 20.1365L8.81124 17.0763C8.07501 16.8083 8.07973 15.7719 8.81837 15.5106Z" fill="white"></path>
</svg>
