<svg width="29" height="28" viewBox="0 0 29 28" fill="none" xmlns="http://www.w3.org/2000/svg">
<path d="M14.5 27.5C21.9558 27.5 28 21.4558 28 14C28 6.54416 21.9558 0.5 14.5 0.5C7.04416 0.5 1 6.54416 1 14C1 21.4558 7.04416 27.5 14.5 27.5Z" fill="#1DA1F2" fill-opacity="0.1" stroke="white"/>
<path d="M15.9332 13.2426L20.2702 8H19.2424L15.4767 12.5521L12.469 8H9L13.5482 14.8836L9 20.3813H10.0278L14.0045 15.5741L17.1808 20.3813H20.6498L15.933 13.2426H15.9332ZM14.5256 14.9442L10.3981 8.80459H11.9767L19.2429 19.6133H17.6643L14.5256 14.9445V14.9442Z" fill="white"/>
</svg>
