<svg width="62" height="61" viewBox="0 0 62 61" fill="none" xmlns="http://www.w3.org/2000/svg">
<ellipse cx="46.2354" cy="45.243" rx="13.7627" ry="13.7586" fill="#D3ECE1"/>
<path d="M8.88281 45.2416C10.8645 39.4865 15.7638 35.4141 21.4937 35.4141C24.0762 35.4141 26.4899 36.2413 28.5438 37.677" stroke="#23A06C" stroke-width="2.5" stroke-linecap="round"/>
<ellipse cx="20.6796" cy="29.5137" rx="5.8983" ry="5.89655" stroke="#23A06C" stroke-width="2.5"/>
<path d="M38.6193 45.3438L43.3707 50.0938L53.4675 40M52.652 32.2809C50.6062 31.1462 48.2518 30.5 45.7464 30.5C37.874 30.5 31.4922 36.8799 31.4922 44.75C31.4922 52.6201 37.874 59 45.7464 59C53.6188 59 60.0007 52.6201 60.0007 44.75C60.0007 42.3958 59.4296 40.175 58.4185 38.2184" stroke="#23A06C" stroke-width="2.5" stroke-linecap="round" stroke-linejoin="round"/>
<path d="M3.10156 9.10938C3.10156 5.79567 5.78785 3.10938 9.10156 3.10938H52.2302C55.5439 3.10938 58.2302 5.79567 58.2302 9.10938V16.3363H3.10156V9.10938Z" fill="#D3ECE1"/>
<path d="M24.6027 59H11.1667C6.10406 59 2 54.8959 2 49.8333V10C2 5.58172 5.58172 2 10 2H49.8503C54.9129 2 59.0169 6.10406 59.0169 11.1667V22.3915" stroke="#23A06C" stroke-width="2.5" stroke-linecap="round"/>
<path d="M2 16.25H59.0169" stroke="#23A06C" stroke-width="2.5"/>
<ellipse cx="34.5163" cy="9.28906" rx="2.22722" ry="2.22656" fill="#23A06C"/>
<ellipse cx="41.6452" cy="9.28906" rx="2.22722" ry="2.22656" fill="#23A06C"/>
<ellipse cx="48.7741" cy="9.28906" rx="2.22722" ry="2.22656" fill="#23A06C"/>
</svg>
