<svg width="28" height="28" viewBox="0 0 28 28" fill="none" xmlns="http://www.w3.org/2000/svg">
<circle cx="14" cy="14" r="13.5" fill="#1DA1F2" fill-opacity="0.1" stroke="white"/>
<path d="M19.1015 9.29526C14.8874 8.83837 11.2945 9.07602 9.16489 9.36327C8.33396 9.47535 7.67295 10.1061 7.54585 10.9348C7.19287 13.2363 7.3342 15.4217 7.55937 16.8806C7.67889 17.6551 8.27866 18.2519 9.05237 18.3762C12.254 18.8903 16.4415 18.6408 19.1883 18.3287C20.1237 18.2225 20.8609 17.4923 20.9279 16.5533C21.0576 14.7343 20.9973 12.7 20.8965 11.1667C20.8321 10.1868 20.0778 9.4011 19.1015 9.29526Z" fill="white"/>
<path d="M12.8984 11.7891V15.8767L16.425 13.8329L12.8984 11.7891Z" fill="#1B2933"/>
</svg>
